AnekDevanagari-ExpandedThin.ufo
<glyph name="quotedbl" format="2">
  <advance width="747"/>
  <unicode hex="0022"/>
  <outline>
    <contour>
      <point x="210" y="1324" type="line"/>
      <point x="170" y="1324" type="line"/>
      <point x="174" y="822" type="line"/>
      <point x="206" y="822" type="line"/>
    </contour>
    <contour>
      <point x="577" y="1324" type="line"/>
      <point x="537" y="1324" type="line"/>
      <point x="541" y="822" type="line"/>
      <point x="573" y="822" type="line"/>
    </contour>
  </outline>
</glyph>
<glyph name="numbersign" format="2">
  <advance width="1568"/>
  <unicode hex="0023"/>
  <outline>
    <contour>
      <point x="399" y="0" type="line"/>
      <point x="609" y="1278" type="line"/>
      <point x="572" y="1278" type="line"/>
      <point x="362" y="0" type="line"/>
    </contour>
    <contour>
      <point x="1386" y="370" type="line"/>
      <point x="1386" y="402" type="line"/>
      <point x="102" y="402" type="line"/>
      <point x="102" y="370" type="line"/>
    </contour>
    <contour>
      <point x="1000" y="0" type="line"/>
      <point x="1206" y="1278" type="line"/>
      <point x="1169" y="1278" type="line"/>
      <point x="962" y="0" type="line"/>
    </contour>
    <contour>
      <point x="1466" y="885" type="line"/>
      <point x="1466" y="917" type="line"/>
      <point x="186" y="917" type="line"/>
      <point x="186" y="885" type="line"/>
    </contour>
  </outline>
</glyph>
<glyph name="six" format="2">
  <advance width="1435"/>
  <unicode hex="0036"/>
  <outline>
    <contour>
      <point x="761" y="-16" type="curve" smooth="yes"/>
      <point x="1108" y="-16"/>
      <point x="1305" y="139"/>
      <point x="1305" y="403" type="curve" smooth="yes"/>
      <point x="1305" y="417" type="line" smooth="yes"/>
      <point x="1305" y="663"/>
      <point x="1132" y="804"/>
      <point x="800" y="804" type="curve" smooth="yes"/>
      <point x="454" y="804"/>
      <point x="252" y="610"/>
      <point x="190" y="409" type="curve"/>
      <point x="181" y="409" type="line"/>
      <point x="201" y="377" type="line"/>
      <point x="277" y="594"/>
      <point x="475" y="769"/>
      <point x="798" y="769" type="curve" smooth="yes"/>
      <point x="1108" y="769"/>
      <point x="1264" y="640"/>
      <point x="1264" y="417" type="curve" smooth="yes"/>
      <point x="1264" y="407" type="line" smooth="yes"/>
      <point x="1264" y="164"/>
      <point x="1084" y="21"/>
      <point x="761" y="21" type="curve" smooth="yes"/>
      <point x="418" y="21"/>
      <point x="183" y="229"/>
      <point x="183" y="605" type="curve" smooth="yes"/>
      <point x="183" y="627" type="line" smooth="yes"/>
      <point x="183" y="1024"/>
      <point x="373" y="1260"/>
      <point x="754" y="1260" type="curve" smooth="yes"/>
      <point x="979" y="1260"/>
      <point x="1099" y="1211"/>
      <point x="1221" y="1144" type="curve"/>
      <point x="1216" y="1187" type="line"/>
      <point x="1119" y="1240"/>
      <point x="990" y="1297"/>
      <point x="754" y="1297" type="curve" smooth="yes"/>
      <point x="349" y="1297"/>
      <point x="142" y="1046"/>
      <point x="142" y="627" type="curve" smooth="yes"/>
      <point x="142" y="605" type="line" smooth="yes"/>
      <point x="142" y="212"/>
      <point x="389" y="-16"/>
    </contour>
  </outline>
</glyph>
<glyph name="eight" format="2">
  <advance width="1527"/>
  <unicode hex="0038"/>
  <outline>
    <contour>
      <point x="764" y="-25" type="curve" smooth="yes"/>
      <point x="1166" y="-25"/>
      <point x="1377" y="99"/>
      <point x="1377" y="328" type="curve" smooth="yes"/>
      <point x="1377" y="346" type="line" smooth="yes"/>
      <point x="1377" y="559"/>
      <point x="1160" y="661"/>
      <point x="918" y="672" type="curve"/>
      <point x="918" y="676" type="line"/>
      <point x="1137" y="674"/>
      <point x="1353" y="770"/>
      <point x="1353" y="962" type="curve" smooth="yes"/>
      <point x="1353" y="982" type="line" smooth="yes"/>
      <point x="1353" y="1192"/>
      <point x="1145" y="1302"/>
      <point x="764" y="1302" type="curve" smooth="yes"/>
      <point x="382" y="1302"/>
      <point x="174" y="1192"/>
      <point x="174" y="982" type="curve" smooth="yes"/>
      <point x="174" y="962" type="line" smooth="yes"/>
      <point x="174" y="769"/>
      <point x="389" y="674"/>
      <point x="609" y="676" type="curve"/>
      <point x="609" y="672" type="line"/>
      <point x="367" y="661"/>
      <point x="150" y="559"/>
      <point x="150" y="346" type="curve" smooth="yes"/>
      <point x="150" y="328" type="line" smooth="yes"/>
      <point x="150" y="99"/>
      <point x="361" y="-25"/>
    </contour>
    <contour>
      <point x="764" y="12" type="curve" smooth="yes"/>
      <point x="389" y="12"/>
      <point x="191" y="122"/>
      <point x="191" y="326" type="curve" smooth="yes"/>
      <point x="191" y="346" type="line" smooth="yes"/>
      <point x="191" y="548"/>
      <point x="393" y="656"/>
      <point x="764" y="656" type="curve" smooth="yes"/>
      <point x="1134" y="656"/>
      <point x="1336" y="548"/>
      <point x="1336" y="346" type="curve" smooth="yes"/>
      <point x="1336" y="326" type="line" smooth="yes"/>
      <point x="1336" y="122"/>
      <point x="1138" y="12"/>
    </contour>
    <contour>
      <point x="764" y="690" type="curve" smooth="yes"/>
      <point x="406" y="690"/>
      <point x="214" y="786"/>
      <point x="214" y="964" type="curve" smooth="yes"/>
      <point x="214" y="982" type="line" smooth="yes"/>
      <point x="214" y="1169"/>
      <point x="404" y="1265"/>
      <point x="764" y="1265" type="curve" smooth="yes"/>
      <point x="1123" y="1265"/>
      <point x="1313" y="1169"/>
      <point x="1313" y="982" type="curve" smooth="yes"/>
      <point x="1313" y="964" type="line" smooth="yes"/>
      <point x="1313" y="786"/>
      <point x="1120" y="690"/>
    </contour>
  </outline>
</glyph>
<glyph name="L" format="2">
  <advance width="1367"/>
  <unicode hex="004C"/>
  <anchor x="744" y="0" name="bottom"/>
  <anchor x="684" y="639" name="center"/>
  <anchor x="256" y="1278" name="top"/>
  <anchor x="972" y="1278" name="topright"/>
  <outline>
    <contour>
      <point x="276" y="1278" type="line"/>
      <point x="236" y="1278" type="line"/>
      <point x="236" y="0" type="line"/>
      <point x="276" y="0" type="line"/>
    </contour>
    <contour>
      <point x="258" y="0" type="line"/>
      <point x="1267" y="0" type="line"/>
      <point x="1267" y="34" type="line"/>
      <point x="258" y="34" type="line"/>
    </contour>
  </outline>
</glyph>
<glyph name="s" format="2">
  <advance width="1199"/>
  <unicode hex="0073"/>
  <anchor x="600" y="0" name="bottom"/>
  <anchor x="600" y="952" name="top"/>
  <outline>
    <contour>
      <point x="620" y="-25" type="curve" smooth="yes"/>
      <point x="932" y="-25"/>
      <point x="1095" y="65"/>
      <point x="1095" y="246" type="curve"/>
      <point x="1095" y="246" type="line"/>
      <point x="1095" y="441"/>
      <point x="981" y="495"/>
      <point x="600" y="515" type="curve" smooth="yes"/>
      <point x="258" y="532"/>
      <point x="155" y="570"/>
      <point x="155" y="726" type="curve"/>
      <point x="155" y="726" type="line"/>
      <point x="155" y="858"/>
      <point x="272" y="942"/>
      <point x="563" y="942" type="curve" smooth="yes"/>
      <point x="782" y="942"/>
      <point x="940" y="883"/>
      <point x="1051" y="814" type="curve"/>
      <point x="1044" y="853" type="line"/>
      <point x="954" y="913"/>
      <point x="789" y="975"/>
      <point x="565" y="975" type="curve" smooth="yes"/>
      <point x="254" y="975"/>
      <point x="118" y="885"/>
      <point x="118" y="726" type="curve"/>
      <point x="118" y="726" type="line"/>
      <point x="118" y="548"/>
      <point x="230" y="500"/>
      <point x="597" y="481" type="curve" smooth="yes"/>
      <point x="946" y="463"/>
      <point x="1058" y="424"/>
      <point x="1058" y="246" type="curve"/>
      <point x="1058" y="246" type="line"/>
      <point x="1058" y="84"/>
      <point x="905" y="9"/>
      <point x="622" y="9" type="curve" smooth="yes"/>
      <point x="392" y="9"/>
      <point x="234" y="68"/>
      <point x="100" y="144" type="curve"/>
      <point x="106" y="101" type="line"/>
      <point x="211" y="41"/>
      <point x="376" y="-25"/>
    </contour>
  </outline>
</glyph>
<glyph name="w" format="2">
  <advance width="1963"/>
  <unicode hex="0077"/>
  <anchor x="982" y="0" name="bottom"/>
  <anchor x="982" y="952" name="top"/>
  <outline>
    <contour>
      <point x="581" y="0" type="line"/>
      <point x="900" y="724" type="line"/>
      <point x="974" y="892" type="line"/>
      <point x="988" y="892" type="line"/>
      <point x="1063" y="723" type="line"/>
      <point x="1381" y="0" type="line"/>
      <point x="1447" y="0" type="line"/>
      <point x="1867" y="952" type="line"/>
      <point x="1824" y="952" type="line"/>
      <point x="1424" y="32" type="line"/>
      <point x="1404" y="32" type="line"/>
      <point x="1012" y="924" type="line"/>
      <point x="950" y="924" type="line"/>
      <point x="558" y="32" type="line"/>
      <point x="539" y="32" type="line"/>
      <point x="139" y="952" type="line"/>
      <point x="96" y="952" type="line"/>
      <point x="516" y="0" type="line"/>
    </contour>
  </outline>
</glyph>
<glyph name="braceright" format="2">
  <advance width="856"/>
  <unicode hex="007D"/>
  <outline>
    <contour>
      <point x="92" y="1279" type="line"/>
      <point x="140" y="1298"/>
      <point x="206" y="1313"/>
      <point x="287" y="1313" type="curve" smooth="yes"/>
      <point x="449" y="1313"/>
      <point x="513" y="1251"/>
      <point x="513" y="1084" type="curve" smooth="yes"/>
      <point x="513" y="1011"/>
      <point x="496" y="889"/>
      <point x="496" y="790" type="curve" smooth="yes"/>
      <point x="496" y="676"/>
      <point x="534" y="574"/>
      <point x="722" y="564" type="curve"/>
      <point x="722" y="553" type="line"/>
      <point x="726" y="563" type="line"/>
      <point x="549" y="559"/>
      <point x="496" y="461"/>
      <point x="496" y="327" type="curve" smooth="yes"/>
      <point x="496" y="227"/>
      <point x="513" y="105"/>
      <point x="513" y="33" type="curve" smooth="yes"/>
      <point x="513" y="-135"/>
      <point x="449" y="-197"/>
      <point x="287" y="-197" type="curve" smooth="yes"/>
      <point x="206" y="-197"/>
      <point x="140" y="-181"/>
      <point x="92" y="-162" type="curve"/>
      <point x="92" y="-196" type="line"/>
      <point x="138" y="-215"/>
      <point x="209" y="-231"/>
      <point x="286" y="-231" type="curve" smooth="yes"/>
      <point x="473" y="-231"/>
      <point x="551" y="-151"/>
      <point x="551" y="29" type="curve" smooth="yes"/>
      <point x="551" y="109"/>
      <point x="533" y="234"/>
      <point x="533" y="325" type="curve" smooth="yes"/>
      <point x="533" y="452"/>
      <point x="574" y="530"/>
      <point x="764" y="544" type="curve"/>
      <point x="764" y="583" type="line"/>
      <point x="574" y="593"/>
      <point x="533" y="668"/>
      <point x="533" y="791" type="curve" smooth="yes"/>
      <point x="533" y="883"/>
      <point x="551" y="1008"/>
      <point x="551" y="1087" type="curve" smooth="yes"/>
      <point x="551" y="1267"/>
      <point x="473" y="1347"/>
      <point x="286" y="1347" type="curve" smooth="yes"/>
      <point x="209" y="1347"/>
      <point x="138" y="1332"/>
      <point x="92" y="1313" type="curve"/>
    </contour>
  </outline>
</glyph>
<glyph name="cent" format="2">
  <advance width="1245"/>
  <unicode hex="00A2"/>
  <anchor x="674" y="0" name="bottom"/>
  <anchor x="674" y="952" name="top"/>
  <outline>
    <contour>
      <point x="701" y="1225" type="line"/>
      <point x="665" y="1225" type="line"/>
      <point x="665" y="958" type="line"/>
      <point x="701" y="958" type="line"/>
    </contour>
    <contour>
      <point x="701" y="-10" type="line"/>
      <point x="665" y="-10" type="line"/>
      <point x="665" y="-270" type="line"/>
      <point x="701" y="-270" type="line"/>
    </contour>
    <contour>
      <point x="679" y="-25" type="curve" smooth="yes"/>
      <point x="917" y="-25"/>
      <point x="1053" y="48"/>
      <point x="1129" y="107" type="curve"/>
      <point x="1135" y="151" type="line"/>
      <point x="1047" y="80"/>
      <point x="910" y="9"/>
      <point x="681" y="9" type="curve" smooth="yes"/>
      <point x="353" y="9"/>
      <point x="172" y="171"/>
      <point x="172" y="466" type="curve" smooth="yes"/>
      <point x="172" y="490" type="line" smooth="yes"/>
      <point x="172" y="785"/>
      <point x="355" y="943"/>
      <point x="677" y="943" type="curve" smooth="yes"/>
      <point x="894" y="943"/>
      <point x="1031" y="876"/>
      <point x="1122" y="803" type="curve"/>
      <point x="1117" y="846" type="line"/>
      <point x="1047" y="899"/>
      <point x="912" y="977"/>
      <point x="679" y="977" type="curve" smooth="yes"/>
      <point x="328" y="977"/>
      <point x="134" y="808"/>
      <point x="134" y="490" type="curve" smooth="yes"/>
      <point x="134" y="466" type="line" smooth="yes"/>
      <point x="134" y="146"/>
      <point x="327" y="-25"/>
    </contour>
  </outline>
</glyph>
<glyph name="brokenbar" format="2">
  <advance width="572"/>
  <unicode hex="00A6"/>
  <outline>
    <contour>
      <point x="304" y="1415" type="line"/>
      <point x="268" y="1415" type="line"/>
      <point x="268" y="595" type="line"/>
      <point x="304" y="595" type="line"/>
    </contour>
    <contour>
      <point x="304" y="355" type="line"/>
      <point x="268" y="355" type="line"/>
      <point x="268" y="-465" type="line"/>
      <point x="304" y="-465" type="line"/>
    </contour>
  </outline>
</glyph>
<glyph name="macron" format="2">
  <advance width="903"/>
  <unicode hex="00AF"/>
  <anchor x="451" y="952" name="_top"/>
  <anchor x="452" y="1291" name="top"/>
  <outline>
    <contour>
      <point x="773" y="1226" type="line"/>
      <point x="773" y="1258" type="line"/>
      <point x="130" y="1258" type="line"/>
      <point x="130" y="1226" type="line"/>
    </contour>
  </outline>
</glyph>
<glyph name="periodcentered" format="2">
  <advance width="394"/>
  <unicode hex="00B7"/>
  <anchor x="197" y="229" name="_top"/>
  <anchor x="197" y="598" name="top"/>
  <outline>
    <contour>
      <point x="197" y="470" type="curve" smooth="yes"/>
      <point x="233" y="470"/>
      <point x="254" y="487"/>
      <point x="254" y="521" type="curve" smooth="yes"/>
      <point x="254" y="525" type="line" smooth="yes"/>
      <point x="254" y="555"/>
      <point x="233" y="573"/>
      <point x="197" y="573" type="curve" smooth="yes"/>
      <point x="162" y="573"/>
      <point x="140" y="555"/>
      <point x="140" y="525" type="curve" smooth="yes"/>
      <point x="140" y="521" type="line" smooth="yes"/>
      <point x="140" y="487"/>
      <point x="162" y="470"/>
    </contour>
  </outline>
</glyph>
<glyph name="Adieresis" format="2">
  <advance width="1530"/>
  <unicode hex="00C4"/>
  <anchor x="765" y="0" name="bottom"/>
  <anchor x="1495" y="0" name="ogonek"/>
  <anchor x="765" y="1604" name="top"/>
  <outline>
    <contour>
      <point x="124" y="0" type="line"/>
      <point x="748" y="1246" type="line"/>
      <point x="782" y="1246" type="line"/>
      <point x="1406" y="0" type="line"/>
      <point x="1448" y="0" type="line"/>
      <point x="807" y="1278" type="line"/>
      <point x="723" y="1278" type="line"/>
      <point x="82" y="0" type="line"/>
    </contour>
    <contour>
      <point x="1196" y="447" type="line"/>
      <point x="1196" y="481" type="line"/>
      <point x="334" y="481" type="line"/>
      <point x="334" y="447" type="line"/>
    </contour>
    <contour>
      <point x="591" y="1509" type="curve" smooth="yes"/>
      <point x="626" y="1509"/>
      <point x="648" y="1526"/>
      <point x="648" y="1560" type="curve" smooth="yes"/>
      <point x="648" y="1564" type="line" smooth="yes"/>
      <point x="648" y="1594"/>
      <point x="626" y="1612"/>
      <point x="591" y="1612" type="curve" smooth="yes"/>
      <point x="555" y="1612"/>
      <point x="534" y="1594"/>
      <point x="534" y="1564" type="curve" smooth="yes"/>
      <point x="534" y="1560" type="line" smooth="yes"/>
      <point x="534" y="1526"/>
      <point x="555" y="1509"/>
    </contour>
    <contour>
      <point x="940" y="1509" type="curve" smooth="yes"/>
      <point x="975" y="1509"/>
      <point x="996" y="1526"/>
      <point x="996" y="1560" type="curve" smooth="yes"/>
      <point x="996" y="1564" type="line" smooth="yes"/>
      <point x="996" y="1594"/>
      <point x="975" y="1612"/>
      <point x="940" y="1612" type="curve" smooth="yes"/>
      <point x="904" y="1612"/>
      <point x="883" y="1594"/>
      <point x="883" y="1564" type="curve" smooth="yes"/>
      <point x="883" y="1560" type="line" smooth="yes"/>
      <point x="883" y="1526"/>
      <point x="904" y="1509"/>
    </contour>
  </outline>
</glyph>
<glyph name="Aring" format="2">
  <advance width="1530"/>
  <unicode hex="00C5"/>
  <anchor x="765" y="0" name="bottom"/>
  <anchor x="1495" y="0" name="ogonek"/>
  <anchor x="765" y="1718" name="top"/>
  <outline>
    <contour>
      <point x="124" y="0" type="line"/>
      <point x="748" y="1246" type="line"/>
      <point x="782" y="1246" type="line"/>
      <point x="1406" y="0" type="line"/>
      <point x="1448" y="0" type="line"/>
      <point x="807" y="1278" type="line"/>
      <point x="723" y="1278" type="line"/>
      <point x="82" y="0" type="line"/>
    </contour>
    <contour>
      <point x="1196" y="447" type="line"/>
      <point x="1196" y="481" type="line"/>
      <point x="334" y="481" type="line"/>
      <point x="334" y="447" type="line"/>
    </contour>
    <contour>
      <point x="578" y="1569" type="line"/>
      <point x="578" y="1462"/>
      <point x="647" y="1397"/>
      <point x="765" y="1397" type="curve" smooth="yes"/>
      <point x="882" y="1397"/>
      <point x="952" y="1462"/>
      <point x="952" y="1569" type="curve"/>
      <point x="952" y="1571" type="line"/>
      <point x="952" y="1678"/>
      <point x="882" y="1743"/>
      <point x="765" y="1743" type="curve" smooth="yes"/>
      <point x="647" y="1743"/>
      <point x="578" y="1678"/>
      <point x="578" y="1571" type="curve"/>
    </contour>
    <contour>
      <point x="612" y="1571" type="line"/>
      <point x="612" y="1661"/>
      <point x="667" y="1712"/>
      <point x="765" y="1712" type="curve" smooth="yes"/>
      <point x="863" y="1712"/>
      <point x="918" y="1661"/>
      <point x="918" y="1571" type="curve"/>
      <point x="918" y="1569" type="line"/>
      <point x="918" y="1479"/>
      <point x="863" y="1428"/>
      <point x="765" y="1428" type="curve" smooth="yes"/>
      <point x="667" y="1428"/>
      <point x="612" y="1479"/>
      <point x="612" y="1569" type="curve"/>
    </contour>
  </outline>
</glyph>
<glyph name="Ccedilla" format="2">
  <advance width="1530"/>
  <unicode hex="00C7"/>
  <anchor x="902" y="-428" name="bottom"/>
  <anchor x="825" y="1278" name="top"/>
  <outline>
    <contour>
      <point x="833" y="-21" type="curve" smooth="yes"/>
      <point x="1097" y="-21"/>
      <point x="1283" y="75"/>
      <point x="1381" y="155" type="curve"/>
      <point x="1386" y="199" type="line"/>
      <point x="1261" y="100"/>
      <point x="1083" y="16"/>
      <point x="831" y="16" type="curve" smooth="yes"/>
      <point x="410" y="16"/>
      <point x="183" y="237"/>
      <point x="183" y="629" type="curve" smooth="yes"/>
      <point x="183" y="650" type="line" smooth="yes"/>
      <point x="183" y="1043"/>
      <point x="410" y="1262"/>
      <point x="817" y="1262" type="curve" smooth="yes"/>
      <point x="1068" y="1262"/>
      <point x="1250" y="1175"/>
      <point x="1372" y="1080" type="curve"/>
      <point x="1366" y="1123" type="line"/>
      <point x="1272" y="1200"/>
      <point x="1086" y="1299"/>
      <point x="818" y="1299" type="curve" smooth="yes"/>
      <point x="385" y="1299"/>
      <point x="142" y="1065"/>
      <point x="142" y="650" type="curve" smooth="yes"/>
      <point x="142" y="629" type="line" smooth="yes"/>
      <point x="142" y="214"/>
      <point x="385" y="-21"/>
    </contour>
    <contour>
      <point x="809" y="0" type="line"/>
      <point x="784" y="-166" type="line"/>
      <point x="816" y="-168"/>
      <point x="844" y="-170"/>
      <point x="869" y="-171" type="curve"/>
      <point x="1017" y="-182"/>
      <point x="1081" y="-209"/>
      <point x="1081" y="-289" type="curve" smooth="yes"/>
      <point x="1081" y="-296" type="line" smooth="yes"/>
      <point x="1081" y="-362"/>
      <point x="1013" y="-394"/>
      <point x="898" y="-394" type="curve" smooth="yes"/>
      <point x="819" y="-394"/>
      <point x="748" y="-381"/>
      <point x="686" y="-356" type="curve"/>
      <point x="696" y="-396" type="line"/>
      <point x="741" y="-412"/>
      <point x="819" y="-428"/>
      <point x="898" y="-428" type="curve" smooth="yes"/>
      <point x="1035" y="-428"/>
      <point x="1118" y="-385"/>
      <point x="1118" y="-294" type="curve" smooth="yes"/>
      <point x="1118" y="-287" type="line" smooth="yes"/>
      <point x="1118" y="-189"/>
      <point x="1040" y="-154"/>
      <point x="882" y="-141" type="curve" smooth="yes"/>
      <point x="858" y="-139"/>
      <point x="837" y="-139"/>
      <point x="814" y="-138" type="curve"/>
      <point x="819" y="-157" type="line"/>
      <point x="842" y="0" type="line"/>
    </contour>
  </outline>
</glyph>
<glyph name="Egrave" format="2">
  <advance width="1462"/>
  <unicode hex="00C8"/>
  <anchor x="780" y="0" name="bottom"/>
  <anchor x="1356" y="0" name="ogonek"/>
  <anchor x="616" y="1654" name="top"/>
  <anchor x="20" y="1278" name="topleft"/>
  <outline>
    <contour>
      <point x="275" y="0" type="line"/>
      <point x="275" y="1278" type="line"/>
      <point x="236" y="1278" type="line"/>
      <point x="236" y="0" type="line"/>
    </contour>
    <contour>
      <point x="1308" y="0" type="line"/>
      <point x="1308" y="34" type="line"/>
      <point x="258" y="34" type="line"/>
      <point x="258" y="0" type="line"/>
    </contour>
    <contour>
      <point x="1273" y="636" type="line"/>
      <point x="1273" y="670" type="line"/>
      <point x="258" y="670" type="line"/>
      <point x="258" y="636" type="line"/>
    </contour>
    <contour>
      <point x="1298" y="1244" type="line"/>
      <point x="1298" y="1278" type="line"/>
      <point x="258" y="1278" type="line"/>
      <point x="258" y="1244" type="line"/>
    </contour>
    <contour>
      <point x="394" y="1704" type="line"/>
      <point x="394" y="1701" type="line"/>
      <point x="748" y="1450" type="line"/>
      <point x="796" y="1450" type="line"/>
      <point x="796" y="1452" type="line"/>
      <point x="451" y="1704" type="line"/>
    </contour>
  </outline>
</glyph>
<glyph name="Igrave" format="2">
  <advance width="520"/>
  <unicode hex="00CC"/>
  <anchor x="260" y="0" name="bottom"/>
  <anchor x="328" y="0" name="ogonek"/>
  <anchor x="96" y="1654" name="top"/>
  <anchor x="20" y="1278" name="topleft"/>
  <outline>
    <contour>
      <point x="280" y="1278" type="line"/>
      <point x="240" y="1278" type="line"/>
      <point x="240" y="0" type="line"/>
      <point x="280" y="0" type="line"/>
    </contour>
    <contour>
      <point x="-126" y="1704" type="line"/>
      <point x="-126" y="1701" type="line"/>
      <point x="228" y="1450" type="line"/>
      <point x="276" y="1450" type="line"/>
      <point x="276" y="1452" type="line"/>
      <point x="-69" y="1704" type="line"/>
    </contour>
  </outline>
</glyph>
<glyph name="Icircumflex" format="2">
  <advance width="520"/>
  <unicode hex="00CE"/>
  <anchor x="260" y="0" name="bottom"/>
  <anchor x="328" y="0" name="ogonek"/>
  <anchor x="263" y="1654" name="top"/>
  <anchor x="20" y="1278" name="topleft"/>
  <outline>
    <contour>
      <point x="280" y="1278" type="line"/>
      <point x="240" y="1278" type="line"/>
      <point x="240" y="0" type="line"/>
      <point x="280" y="0" type="line"/>
    </contour>
    <contour>
      <point x="-92" y="1452" type="line"/>
      <point x="-92" y="1450" type="line"/>
      <point x="-44" y="1450" type="line"/>
      <point x="257" y="1673" type="line"/>
      <point x="263" y="1673" type="line"/>
      <point x="563" y="1450" type="line"/>
      <point x="612" y="1450" type="line"/>
      <point x="612" y="1452" type="line"/>
      <point x="284" y="1704" type="line"/>
      <point x="236" y="1704" type="line"/>
    </contour>
  </outline>
</glyph>
<glyph name="Idieresis" format="2">
  <advance width="520"/>
  <unicode hex="00CF"/>
  <anchor x="260" y="0" name="bottom"/>
  <anchor x="328" y="0" name="ogonek"/>
  <anchor x="260" y="1604" name="top"/>
  <anchor x="20" y="1278" name="topleft"/>
  <outline>
    <contour>
      <point x="280" y="1278" type="line"/>
      <point x="240" y="1278" type="line"/>
      <point x="240" y="0" type="line"/>
      <point x="280" y="0" type="line"/>
    </contour>
    <contour>
      <point x="86" y="1509" type="curve" smooth="yes"/>
      <point x="121" y="1509"/>
      <point x="143" y="1526"/>
      <point x="143" y="1560" type="curve" smooth="yes"/>
      <point x="143" y="1564" type="line" smooth="yes"/>
      <point x="143" y="1594"/>
      <point x="121" y="1612"/>
      <point x="86" y="1612" type="curve" smooth="yes"/>
      <point x="50" y="1612"/>
      <point x="29" y="1594"/>
      <point x="29" y="1564" type="curve" smooth="yes"/>
      <point x="29" y="1560" type="line" smooth="yes"/>
      <point x="29" y="1526"/>
      <point x="50" y="1509"/>
    </contour>
    <contour>
      <point x="435" y="1509" type="curve" smooth="yes"/>
      <point x="470" y="1509"/>
      <point x="491" y="1526"/>
      <point x="491" y="1560" type="curve" smooth="yes"/>
      <point x="491" y="1564" type="line" smooth="yes"/>
      <point x="491" y="1594"/>
      <point x="470" y="1612"/>
      <point x="435" y="1612" type="curve" smooth="yes"/>
      <point x="399" y="1612"/>
      <point x="378" y="1594"/>
      <point x="378" y="1564" type="curve" smooth="yes"/>
      <point x="378" y="1560" type="line" smooth="yes"/>
      <point x="378" y="1526"/>
      <point x="399" y="1509"/>
    </contour>
  </outline>
</glyph>
<glyph name="Otilde" format="2">
  <advance width="1653"/>
  <unicode hex="00D5"/>
  <anchor x="827" y="0" name="bottom"/>
  <anchor x="827" y="639" name="center"/>
  <anchor x="1062" y="0" name="ogonek"/>
  <anchor x="827" y="1634" name="top"/>
  <anchor x="20" y="1278" name="topleft"/>
  <anchor x="1250" y="1278" name="topright"/>
  <outline>
    <contour>
      <point x="826" y="-21" type="curve" smooth="yes"/>
      <point x="1267" y="-21"/>
      <point x="1511" y="213"/>
      <point x="1511" y="629" type="curve" smooth="yes"/>
      <point x="1511" y="650" type="line"/>
      <point x="1512" y="1066"/>
      <point x="1267" y="1299"/>
      <point x="826" y="1299" type="curve" smooth="yes"/>
      <point x="386" y="1299"/>
      <point x="142" y="1066"/>
      <point x="142" y="650" type="curve" smooth="yes"/>
      <point x="142" y="629" type="line" smooth="yes"/>
      <point x="142" y="213"/>
      <point x="386" y="-21"/>
    </contour>
    <contour>
      <point x="826" y="16" type="curve" smooth="yes"/>
      <point x="409" y="16"/>
      <point x="183" y="236"/>
      <point x="183" y="629" type="curve" smooth="yes"/>
      <point x="183" y="650" type="line" smooth="yes"/>
      <point x="183" y="1044"/>
      <point x="409" y="1262"/>
      <point x="826" y="1262" type="curve" smooth="yes"/>
      <point x="1244" y="1262"/>
      <point x="1470" y="1044"/>
      <point x="1470" y="650" type="curve" smooth="yes"/>
      <point x="1470" y="629" type="line" smooth="yes"/>
      <point x="1470" y="236"/>
      <point x="1244" y="16"/>
    </contour>
    <contour>
      <point x="1012" y="1463" type="curve" smooth="yes"/>
      <point x="1119" y="1463"/>
      <point x="1145" y="1531"/>
      <point x="1145" y="1612" type="curve" smooth="yes"/>
      <point x="1145" y="1652" type="line"/>
      <point x="1113" y="1652" type="line"/>
      <point x="1113" y="1616" type="line" smooth="yes"/>
      <point x="1113" y="1544"/>
      <point x="1086" y="1497"/>
      <point x="1015" y="1497" type="curve" smooth="yes"/>
      <point x="887" y="1497"/>
      <point x="786" y="1642"/>
      <point x="642" y="1642" type="curve" smooth="yes"/>
      <point x="536" y="1642"/>
      <point x="509" y="1572"/>
      <point x="509" y="1491" type="curve" smooth="yes"/>
      <point x="509" y="1453" type="line"/>
      <point x="541" y="1453" type="line"/>
      <point x="541" y="1489" type="line" smooth="yes"/>
      <point x="541" y="1561"/>
      <point x="568" y="1608"/>
      <point x="639" y="1608" type="curve" smooth="yes"/>
      <point x="765" y="1608"/>
      <point x="866" y="1463"/>
    </contour>
  </outline>
</glyph>
<glyph name="Odieresis" format="2">
  <advance width="1653"/>
  <unicode hex="00D6"/>
  <anchor x="827" y="0" name="bottom"/>
  <anchor x="827" y="639" name="center"/>
  <anchor x="1062" y="0" name="ogonek"/>
  <anchor x="827" y="1604" name="top"/>
  <anchor x="20" y="1278" name="topleft"/>
  <anchor x="1250" y="1278" name="topright"/>
  <outline>
    <contour>
      <point x="826" y="-21" type="curve" smooth="yes"/>
      <point x="1267" y="-21"/>
      <point x="1511" y="213"/>
      <point x="1511" y="629" type="curve" smooth="yes"/>
      <point x="1511" y="650" type="line"/>
      <point x="1512" y="1066"/>
      <point x="1267" y="1299"/>
      <point x="826" y="1299" type="curve" smooth="yes"/>
      <point x="386" y="1299"/>
      <point x="142" y="1066"/>
      <point x="142" y="650" type="curve" smooth="yes"/>
      <point x="142" y="629" type="line" smooth="yes"/>
      <point x="142" y="213"/>
      <point x="386" y="-21"/>
    </contour>
    <contour>
      <point x="826" y="16" type="curve" smooth="yes"/>
      <point x="409" y="16"/>
      <point x="183" y="236"/>
      <point x="183" y="629" type="curve" smooth="yes"/>
      <point x="183" y="650" type="line" smooth="yes"/>
      <point x="183" y="1044"/>
      <point x="409" y="1262"/>
      <point x="826" y="1262" type="curve" smooth="yes"/>
      <point x="1244" y="1262"/>
      <point x="1470" y="1044"/>
      <point x="1470" y="650" type="curve" smooth="yes"/>
      <point x="1470" y="629" type="line" smooth="yes"/>
      <point x="1470" y="236"/>
      <point x="1244" y="16"/>
    </contour>
    <contour>
      <point x="653" y="1509" type="curve" smooth="yes"/>
      <point x="688" y="1509"/>
      <point x="710" y="1526"/>
      <point x="710" y="1560" type="curve" smooth="yes"/>
      <point x="710" y="1564" type="line" smooth="yes"/>
      <point x="710" y="1594"/>
      <point x="688" y="1612"/>
      <point x="653" y="1612" type="curve" smooth="yes"/>
      <point x="617" y="1612"/>
      <point x="596" y="1594"/>
      <point x="596" y="1564" type="curve" smooth="yes"/>
      <point x="596" y="1560" type="line" smooth="yes"/>
      <point x="596" y="1526"/>
      <point x="617" y="1509"/>
    </contour>
    <contour>
      <point x="1002" y="1509" type="curve" smooth="yes"/>
      <point x="1037" y="1509"/>
      <point x="1058" y="1526"/>
      <point x="1058" y="1560" type="curve" smooth="yes"/>
      <point x="1058" y="1564" type="line" smooth="yes"/>
      <point x="1058" y="1594"/>
      <point x="1037" y="1612"/>
      <point x="1002" y="1612" type="curve" smooth="yes"/>
      <point x="966" y="1612"/>
      <point x="945" y="1594"/>
      <point x="945" y="1564" type="curve" smooth="yes"/>
      <point x="945" y="1560" type="line" smooth="yes"/>
      <point x="945" y="1526"/>
      <point x="966" y="1509"/>
    </contour>
  </outline>
</glyph>
<glyph name="atilde" format="2">
  <advance width="1298"/>
  <unicode hex="00E3"/>
  <anchor x="639" y="0" name="bottom"/>
  <anchor x="1168" y="0" name="ogonek"/>
  <anchor x="639" y="1311" name="top"/>
  <outline>
    <contour>
      <point x="1120" y="0" type="line"/>
      <point x="1120" y="584" type="line" smooth="yes"/>
      <point x="1120" y="828"/>
      <point x="971" y="977"/>
      <point x="659" y="977" type="curve" smooth="yes"/>
      <point x="410" y="977"/>
      <point x="251" y="891"/>
      <point x="173" y="834" type="curve"/>
      <point x="168" y="793" type="line"/>
      <point x="270" y="865"/>
      <point x="434" y="943"/>
      <point x="659" y="943" type="curve" smooth="yes"/>
      <point x="946" y="943"/>
      <point x="1083" y="812"/>
      <point x="1083" y="584" type="curve" smooth="yes"/>
      <point x="1083" y="573" type="line"/>
      <point x="1083" y="333" type="line"/>
      <point x="1086" y="319" type="line"/>
      <point x="1082" y="0" type="line"/>
    </contour>
    <contour>
      <point x="536" y="-25" type="curve" smooth="yes"/>
      <point x="889" y="-25"/>
      <point x="1083" y="171"/>
      <point x="1099" y="368" type="curve"/>
      <point x="1110" y="368" type="line"/>
      <point x="1092" y="397" type="line"/>
      <point x="1058" y="180"/>
      <point x="855" y="9"/>
      <point x="542" y="9" type="curve" smooth="yes"/>
      <point x="306" y="9"/>
      <point x="156" y="88"/>
      <point x="156" y="244" type="curve" smooth="yes"/>
      <point x="156" y="255" type="line" smooth="yes"/>
      <point x="156" y="417"/>
      <point x="285" y="479"/>
      <point x="613" y="502" type="curve" smooth="yes"/>
      <point x="1097" y="536" type="line"/>
      <point x="1097" y="566" type="line"/>
      <point x="608" y="533" type="line" smooth="yes"/>
      <point x="259" y="509"/>
      <point x="118" y="439"/>
      <point x="118" y="257" type="curve" smooth="yes"/>
      <point x="118" y="242" type="line" smooth="yes"/>
      <point x="118" y="66"/>
      <point x="278" y="-25"/>
    </contour>
    <contour>
      <point x="806" y="1147" type="curve" smooth="yes"/>
      <point x="893" y="1147"/>
      <point x="934" y="1196"/>
      <point x="934" y="1302" type="curve" smooth="yes"/>
      <point x="934" y="1336" type="line"/>
      <point x="902" y="1336" type="line"/>
      <point x="902" y="1306" type="line" smooth="yes"/>
      <point x="902" y="1221"/>
      <point x="872" y="1181"/>
      <point x="806" y="1181" type="curve" smooth="yes"/>
      <point x="697" y="1181"/>
      <point x="597" y="1326"/>
      <point x="472" y="1326" type="curve" smooth="yes"/>
      <point x="385" y="1326"/>
      <point x="344" y="1276"/>
      <point x="344" y="1169" type="curve" smooth="yes"/>
      <point x="344" y="1137" type="line"/>
      <point x="376" y="1137" type="line"/>
      <point x="376" y="1167" type="line" smooth="yes"/>
      <point x="376" y="1252"/>
      <point x="406" y="1292"/>
      <point x="472" y="1292" type="curve" smooth="yes"/>
      <point x="579" y="1292"/>
      <point x="679" y="1147"/>
    </contour>
  </outline>
</glyph>
<glyph name="adieresis" format="2">
  <advance width="1298"/>
  <unicode hex="00E4"/>
  <anchor x="639" y="0" name="bottom"/>
  <anchor x="1168" y="0" name="ogonek"/>
  <anchor x="639" y="1321" name="top"/>
  <outline>
    <contour>
      <point x="1120" y="0" type="line"/>
      <point x="1120" y="584" type="line" smooth="yes"/>
      <point x="1120" y="828"/>
      <point x="971" y="977"/>
      <point x="659" y="977" type="curve" smooth="yes"/>
      <point x="410" y="977"/>
      <point x="251" y="891"/>
      <point x="173" y="834" type="curve"/>
      <point x="168" y="793" type="line"/>
      <point x="270" y="865"/>
      <point x="434" y="943"/>
      <point x="659" y="943" type="curve" smooth="yes"/>
      <point x="946" y="943"/>
      <point x="1083" y="812"/>
      <point x="1083" y="584" type="curve" smooth="yes"/>
      <point x="1083" y="573" type="line"/>
      <point x="1083" y="333" type="line"/>
      <point x="1086" y="319" type="line"/>
      <point x="1082" y="0" type="line"/>
    </contour>
    <contour>
      <point x="536" y="-25" type="curve" smooth="yes"/>
      <point x="889" y="-25"/>
      <point x="1083" y="171"/>
      <point x="1099" y="368" type="curve"/>
      <point x="1110" y="368" type="line"/>
      <point x="1092" y="397" type="line"/>
      <point x="1058" y="180"/>
      <point x="855" y="9"/>
      <point x="542" y="9" type="curve" smooth="yes"/>
      <point x="306" y="9"/>
      <point x="156" y="88"/>
      <point x="156" y="244" type="curve" smooth="yes"/>
      <point x="156" y="255" type="line" smooth="yes"/>
      <point x="156" y="417"/>
      <point x="285" y="479"/>
      <point x="613" y="502" type="curve" smooth="yes"/>
      <point x="1097" y="536" type="line"/>
      <point x="1097" y="566" type="line"/>
      <point x="608" y="533" type="line" smooth="yes"/>
      <point x="259" y="509"/>
      <point x="118" y="439"/>
      <point x="118" y="257" type="curve" smooth="yes"/>
      <point x="118" y="242" type="line" smooth="yes"/>
      <point x="118" y="66"/>
      <point x="278" y="-25"/>
    </contour>
    <contour>
      <point x="465" y="1193" type="curve" smooth="yes"/>
      <point x="500" y="1193"/>
      <point x="522" y="1210"/>
      <point x="522" y="1244" type="curve" smooth="yes"/>
      <point x="522" y="1248" type="line" smooth="yes"/>
      <point x="522" y="1278"/>
      <point x="500" y="1296"/>
      <point x="465" y="1296" type="curve" smooth="yes"/>
      <point x="429" y="1296"/>
      <point x="408" y="1278"/>
      <point x="408" y="1248" type="curve" smooth="yes"/>
      <point x="408" y="1244" type="line" smooth="yes"/>
      <point x="408" y="1210"/>
      <point x="429" y="1193"/>
    </contour>
    <contour>
      <point x="814" y="1193" type="curve" smooth="yes"/>
      <point x="849" y="1193"/>
      <point x="870" y="1210"/>
      <point x="870" y="1244" type="curve" smooth="yes"/>
      <point x="870" y="1248" type="line" smooth="yes"/>
      <point x="870" y="1278"/>
      <point x="849" y="1296"/>
      <point x="814" y="1296" type="curve" smooth="yes"/>
      <point x="778" y="1296"/>
      <point x="757" y="1278"/>
      <point x="757" y="1248" type="curve" smooth="yes"/>
      <point x="757" y="1244" type="line" smooth="yes"/>
      <point x="757" y="1210"/>
      <point x="778" y="1193"/>
    </contour>
  </outline>
</glyph>
<glyph name="ae" format="2">
  <advance width="2271"/>
  <unicode hex="00E6"/>
  <anchor x="1136" y="0" name="bottom"/>
  <anchor x="1136" y="952" name="top"/>
  <outline>
    <contour>
      <point x="1638" y="-25" type="curve" smooth="yes"/>
      <point x="1836" y="-25"/>
      <point x="1990" y="25"/>
      <point x="2115" y="119" type="curve"/>
      <point x="2120" y="162" type="line"/>
      <point x="1979" y="55"/>
      <point x="1832" y="9"/>
      <point x="1639" y="9" type="curve" smooth="yes"/>
      <point x="1304" y="9"/>
      <point x="1120" y="178"/>
      <point x="1120" y="463" type="curve" smooth="yes"/>
      <point x="1120" y="475" type="line"/>
      <point x="1120" y="480" type="line"/>
      <point x="1120" y="490" type="line" smooth="yes"/>
      <point x="1120" y="773"/>
      <point x="1294" y="943"/>
      <point x="1616" y="943" type="curve" smooth="yes"/>
      <point x="1938" y="943"/>
      <point x="2110" y="762"/>
      <point x="2110" y="507" type="curve" smooth="yes"/>
      <point x="2110" y="493"/>
      <point x="2110" y="479"/>
      <point x="2109" y="468" type="curve"/>
      <point x="2145" y="468" type="line"/>
      <point x="2147" y="483"/>
      <point x="2147" y="495"/>
      <point x="2147" y="505" type="curve" smooth="yes"/>
      <point x="2147" y="509" type="line" smooth="yes"/>
      <point x="2147" y="784"/>
      <point x="1962" y="977"/>
      <point x="1616" y="977" type="curve" smooth="yes"/>
      <point x="1324" y="977"/>
      <point x="1148" y="847"/>
      <point x="1100" y="618" type="curve"/>
      <point x="1113" y="622" type="line"/>
      <point x="1100" y="840"/>
      <point x="954" y="977"/>
      <point x="659" y="977" type="curve" smooth="yes"/>
      <point x="410" y="977"/>
      <point x="251" y="891"/>
      <point x="173" y="834" type="curve"/>
      <point x="168" y="793" type="line"/>
      <point x="270" y="865"/>
      <point x="434" y="943"/>
      <point x="659" y="943" type="curve" smooth="yes"/>
      <point x="946" y="943"/>
      <point x="1083" y="812"/>
      <point x="1083" y="584" type="curve"/>
      <point x="1083" y="494" type="line"/>
      <point x="1082" y="438"/>
      <point x="1085" y="384"/>
      <point x="1093" y="347" type="curve"/>
      <point x="1096" y="331" type="line"/>
      <point x="1147" y="105"/>
      <point x="1328" y="-25"/>
    </contour>
    <contour>
      <point x="536" y="-25" type="curve" smooth="yes"/>
      <point x="889" y="-25"/>
      <point x="1073" y="161"/>
      <point x="1105" y="350" type="curve"/>
      <point x="1116" y="350" type="line"/>
      <point x="1093" y="379" type="line"/>
      <point x="1049" y="172"/>
      <point x="851" y="9"/>
      <point x="542" y="9" type="curve" smooth="yes"/>
      <point x="306" y="9"/>
      <point x="156" y="88"/>
      <point x="156" y="244" type="curve" smooth="yes"/>
      <point x="156" y="255" type="line" smooth="yes"/>
      <point x="156" y="417"/>
      <point x="285" y="479"/>
      <point x="613" y="502" type="curve" smooth="yes"/>
      <point x="1097" y="536" type="line"/>
      <point x="1097" y="566" type="line"/>
      <point x="608" y="533" type="line" smooth="yes"/>
      <point x="259" y="509"/>
      <point x="118" y="439"/>
      <point x="118" y="257" type="curve" smooth="yes"/>
      <point x="118" y="242" type="line" smooth="yes"/>
      <point x="118" y="66"/>
      <point x="278" y="-25"/>
    </contour>
    <contour>
      <point x="2132" y="468" type="line"/>
      <point x="2132" y="500" type="line"/>
      <point x="1100" y="500" type="line"/>
      <point x="1100" y="468" type="line"/>
    </contour>
  </outline>
</glyph>
<glyph name="ccedilla" format="2">
  <advance width="1245"/>
  <unicode hex="00E7"/>
  <anchor x="751" y="-428" name="bottom"/>
  <anchor x="674" y="952" name="top"/>
  <outline>
    <contour>
      <point x="679" y="-25" type="curve" smooth="yes"/>
      <point x="917" y="-25"/>
      <point x="1053" y="48"/>
      <point x="1129" y="107" type="curve"/>
      <point x="1135" y="151" type="line"/>
      <point x="1047" y="80"/>
      <point x="910" y="9"/>
      <point x="681" y="9" type="curve" smooth="yes"/>
      <point x="353" y="9"/>
      <point x="172" y="171"/>
      <point x="172" y="466" type="curve" smooth="yes"/>
      <point x="172" y="490" type="line" smooth="yes"/>
      <point x="172" y="785"/>
      <point x="355" y="943"/>
      <point x="677" y="943" type="curve" smooth="yes"/>
      <point x="894" y="943"/>
      <point x="1031" y="876"/>
      <point x="1122" y="803" type="curve"/>
      <point x="1117" y="846" type="line"/>
      <point x="1047" y="899"/>
      <point x="912" y="977"/>
      <point x="679" y="977" type="curve" smooth="yes"/>
      <point x="328" y="977"/>
      <point x="134" y="808"/>
      <point x="134" y="490" type="curve" smooth="yes"/>
      <point x="134" y="466" type="line" smooth="yes"/>
      <point x="134" y="146"/>
      <point x="327" y="-25"/>
    </contour>
    <contour>
      <point x="658" y="0" type="line"/>
      <point x="633" y="-166" type="line"/>
      <point x="665" y="-168"/>
      <point x="693" y="-170"/>
      <point x="718" y="-171" type="curve"/>
      <point x="866" y="-182"/>
      <point x="930" y="-209"/>
      <point x="930" y="-289" type="curve" smooth="yes"/>
      <point x="930" y="-296" type="line" smooth="yes"/>
      <point x="930" y="-362"/>
      <point x="862" y="-394"/>
      <point x="747" y="-394" type="curve" smooth="yes"/>
      <point x="668" y="-394"/>
      <point x="597" y="-381"/>
      <point x="535" y="-356" type="curve"/>
      <point x="545" y="-396" type="line"/>
      <point x="590" y="-412"/>
      <point x="668" y="-428"/>
      <point x="747" y="-428" type="curve" smooth="yes"/>
      <point x="884" y="-428"/>
      <point x="967" y="-385"/>
      <point x="967" y="-294" type="curve" smooth="yes"/>
      <point x="967" y="-287" type="line" smooth="yes"/>
      <point x="967" y="-189"/>
      <point x="889" y="-154"/>
      <point x="731" y="-141" type="curve" smooth="yes"/>
      <point x="707" y="-139"/>
      <point x="686" y="-139"/>
      <point x="663" y="-138" type="curve"/>
      <point x="668" y="-157" type="line"/>
      <point x="691" y="0" type="line"/>
    </contour>
  </outline>
</glyph>
<glyph name="eacute" format="2">
  <advance width="1323"/>
  <unicode hex="00E9"/>
  <anchor x="666" y="0" name="bottom"/>
  <anchor x="956" y="0" name="ogonek"/>
  <anchor x="666" y="1321" name="top"/>
  <outline>
    <contour>
      <point x="690" y="-25" type="curve" smooth="yes"/>
      <point x="888" y="-25"/>
      <point x="1042" y="25"/>
      <point x="1167" y="119" type="curve"/>
      <point x="1172" y="162" type="line"/>
      <point x="1031" y="55"/>
      <point x="884" y="9"/>
      <point x="691" y="9" type="curve" smooth="yes"/>
      <point x="354" y="9"/>
      <point x="172" y="178"/>
      <point x="172" y="463" type="curve" smooth="yes"/>
      <point x="172" y="475" type="line"/>
      <point x="172" y="480" type="line"/>
      <point x="172" y="490" type="line" smooth="yes"/>
      <point x="172" y="773"/>
      <point x="346" y="943"/>
      <point x="668" y="943" type="curve" smooth="yes"/>
      <point x="990" y="943"/>
      <point x="1162" y="762"/>
      <point x="1162" y="507" type="curve" smooth="yes"/>
      <point x="1162" y="493"/>
      <point x="1162" y="479"/>
      <point x="1161" y="468" type="curve"/>
      <point x="1197" y="468" type="line"/>
      <point x="1199" y="483"/>
      <point x="1199" y="495"/>
      <point x="1199" y="505" type="curve" smooth="yes"/>
      <point x="1199" y="509" type="line" smooth="yes"/>
      <point x="1199" y="784"/>
      <point x="1014" y="977"/>
      <point x="668" y="977" type="curve" smooth="yes"/>
      <point x="321" y="977"/>
      <point x="134" y="796"/>
      <point x="134" y="490" type="curve" smooth="yes"/>
      <point x="134" y="463" type="line" smooth="yes"/>
      <point x="134" y="155"/>
      <point x="325" y="-25"/>
    </contour>
    <contour>
      <point x="1184" y="468" type="line"/>
      <point x="1184" y="500" type="line"/>
      <point x="152" y="500" type="line"/>
      <point x="152" y="468" type="line"/>
    </contour>
    <contour>
      <point x="652" y="1116" type="line"/>
      <point x="652" y="1114" type="line"/>
      <point x="696" y="1114" type="line"/>
      <point x="1008" y="1385" type="line"/>
      <point x="1008" y="1388" type="line"/>
      <point x="954" y="1388" type="line"/>
    </contour>
  </outline>
</glyph>
<glyph name="edieresis" format="2">
  <advance width="1323"/>
  <unicode hex="00EB"/>
  <anchor x="666" y="0" name="bottom"/>
  <anchor x="956" y="0" name="ogonek"/>
  <anchor x="666" y="1321" name="top"/>
  <outline>
    <contour>
      <point x="690" y="-25" type="curve" smooth="yes"/>
      <point x="888" y="-25"/>
      <point x="1042" y="25"/>
      <point x="1167" y="119" type="curve"/>
      <point x="1172" y="162" type="line"/>
      <point x="1031" y="55"/>
      <point x="884" y="9"/>
      <point x="691" y="9" type="curve" smooth="yes"/>
      <point x="354" y="9"/>
      <point x="172" y="178"/>
      <point x="172" y="463" type="curve" smooth="yes"/>
      <point x="172" y="475" type="line"/>
      <point x="172" y="480" type="line"/>
      <point x="172" y="490" type="line" smooth="yes"/>
      <point x="172" y="773"/>
      <point x="346" y="943"/>
      <point x="668" y="943" type="curve" smooth="yes"/>
      <point x="990" y="943"/>
      <point x="1162" y="762"/>
      <point x="1162" y="507" type="curve" smooth="yes"/>
      <point x="1162" y="493"/>
      <point x="1162" y="479"/>
      <point x="1161" y="468" type="curve"/>
      <point x="1197" y="468" type="line"/>
      <point x="1199" y="483"/>
      <point x="1199" y="495"/>
      <point x="1199" y="505" type="curve" smooth="yes"/>
      <point x="1199" y="509" type="line" smooth="yes"/>
      <point x="1199" y="784"/>
      <point x="1014" y="977"/>
      <point x="668" y="977" type="curve" smooth="yes"/>
      <point x="321" y="977"/>
      <point x="134" y="796"/>
      <point x="134" y="490" type="curve" smooth="yes"/>
      <point x="134" y="463" type="line" smooth="yes"/>
      <point x="134" y="155"/>
      <point x="325" y="-25"/>
    </contour>
    <contour>
      <point x="1184" y="468" type="line"/>
      <point x="1184" y="500" type="line"/>
      <point x="152" y="500" type="line"/>
      <point x="152" y="468" type="line"/>
    </contour>
    <contour>
      <point x="492" y="1193" type="curve" smooth="yes"/>
      <point x="527" y="1193"/>
      <point x="549" y="1210"/>
      <point x="549" y="1244" type="curve" smooth="yes"/>
      <point x="549" y="1248" type="line" smooth="yes"/>
      <point x="549" y="1278"/>
      <point x="527" y="1296"/>
      <point x="492" y="1296" type="curve" smooth="yes"/>
      <point x="456" y="1296"/>
      <point x="435" y="1278"/>
      <point x="435" y="1248" type="curve" smooth="yes"/>
      <point x="435" y="1244" type="line" smooth="yes"/>
      <point x="435" y="1210"/>
      <point x="456" y="1193"/>
    </contour>
    <contour>
      <point x="841" y="1193" type="curve" smooth="yes"/>
      <point x="876" y="1193"/>
      <point x="897" y="1210"/>
      <point x="897" y="1244" type="curve" smooth="yes"/>
      <point x="897" y="1248" type="line" smooth="yes"/>
      <point x="897" y="1278"/>
      <point x="876" y="1296"/>
      <point x="841" y="1296" type="curve" smooth="yes"/>
      <point x="805" y="1296"/>
      <point x="784" y="1278"/>
      <point x="784" y="1248" type="curve" smooth="yes"/>
      <point x="784" y="1244" type="line" smooth="yes"/>
      <point x="784" y="1210"/>
      <point x="805" y="1193"/>
    </contour>
  </outline>
</glyph>
<glyph name="iacute" format="2">
  <advance width="450"/>
  <unicode hex="00ED"/>
  <anchor x="225" y="0" name="bottom"/>
  <anchor x="292" y="0" name="ogonek"/>
  <anchor x="225" y="1321" name="top"/>
  <outline>
    <contour>
      <point x="244" y="0" type="line"/>
      <point x="244" y="952" type="line"/>
      <point x="206" y="952" type="line"/>
      <point x="206" y="0" type="line"/>
    </contour>
    <contour>
      <point x="214" y="1114" type="line"/>
      <point x="214" y="1114" type="line"/>
      <point x="251" y="1114" type="line"/>
      <point x="434" y="1388" type="line"/>
      <point x="434" y="1388" type="line"/>
      <point x="389" y="1388" type="line"/>
    </contour>
  </outline>
</glyph>
<glyph name="icircumflex" format="2">
  <advance width="450"/>
  <unicode hex="00EE"/>
  <anchor x="225" y="0" name="bottom"/>
  <anchor x="292" y="0" name="ogonek"/>
  <anchor x="225" y="1321" name="top"/>
  <outline>
    <contour>
      <point x="244" y="0" type="line"/>
      <point x="244" y="952" type="line"/>
      <point x="206" y="952" type="line"/>
      <point x="206" y="0" type="line"/>
    </contour>
    <contour>
      <point x="-26" y="1114" type="line"/>
      <point x="-26" y="1114" type="line"/>
      <point x="17" y="1114" type="line"/>
      <point x="222" y="1356" type="line"/>
      <point x="228" y="1356" type="line"/>
      <point x="433" y="1114" type="line"/>
      <point x="476" y="1114" type="line"/>
      <point x="476" y="1114" type="line"/>
      <point x="248" y="1388" type="line"/>
      <point x="202" y="1388" type="line"/>
    </contour>
  </outline>
</glyph>
<glyph name="idieresis" format="2">
  <advance width="450"/>
  <unicode hex="00EF"/>
  <anchor x="225" y="0" name="bottom"/>
  <anchor x="292" y="0" name="ogonek"/>
  <anchor x="225" y="1321" name="top"/>
  <outline>
    <contour>
      <point x="244" y="0" type="line"/>
      <point x="244" y="952" type="line"/>
      <point x="206" y="952" type="line"/>
      <point x="206" y="0" type="line"/>
    </contour>
    <contour>
      <point x="91" y="1193" type="curve" smooth="yes"/>
      <point x="126" y="1193"/>
      <point x="148" y="1210"/>
      <point x="148" y="1244" type="curve" smooth="yes"/>
      <point x="148" y="1248" type="line" smooth="yes"/>
      <point x="148" y="1278"/>
      <point x="126" y="1296"/>
      <point x="91" y="1296" type="curve" smooth="yes"/>
      <point x="55" y="1296"/>
      <point x="34" y="1278"/>
      <point x="34" y="1248" type="curve" smooth="yes"/>
      <point x="34" y="1244" type="line" smooth="yes"/>
      <point x="34" y="1210"/>
      <point x="55" y="1193"/>
    </contour>
    <contour>
      <point x="360" y="1193" type="curve" smooth="yes"/>
      <point x="395" y="1193"/>
      <point x="416" y="1210"/>
      <point x="416" y="1244" type="curve" smooth="yes"/>
      <point x="416" y="1248" type="line" smooth="yes"/>
      <point x="416" y="1278"/>
      <point x="395" y="1296"/>
      <point x="360" y="1296" type="curve" smooth="yes"/>
      <point x="324" y="1296"/>
      <point x="303" y="1278"/>
      <point x="303" y="1248" type="curve" smooth="yes"/>
      <point x="303" y="1244" type="line" smooth="yes"/>
      <point x="303" y="1210"/>
      <point x="324" y="1193"/>
    </contour>
  </outline>
</glyph>
<glyph name="ocircumflex" format="2">
  <advance width="1392"/>
  <unicode hex="00F4"/>
  <anchor x="696" y="0" name="bottom"/>
  <anchor x="696" y="476" name="center"/>
  <anchor x="953" y="0" name="ogonek"/>
  <anchor x="696" y="1321" name="top"/>
  <anchor x="1129" y="952" name="topright"/>
  <outline>
    <contour>
      <point x="697" y="-25" type="curve" smooth="yes"/>
      <point x="1063" y="-25"/>
      <point x="1258" y="142"/>
      <point x="1258" y="463" type="curve" smooth="yes"/>
      <point x="1258" y="491" type="line" smooth="yes"/>
      <point x="1258" y="810"/>
      <point x="1063" y="977"/>
      <point x="697" y="977" type="curve" smooth="yes"/>
      <point x="330" y="977"/>
      <point x="134" y="810"/>
      <point x="134" y="491" type="curve" smooth="yes"/>
      <point x="134" y="463" type="line" smooth="yes"/>
      <point x="134" y="144"/>
      <point x="328" y="-25"/>
    </contour>
    <contour>
      <point x="697" y="9" type="curve" smooth="yes"/>
      <point x="357" y="9"/>
      <point x="172" y="167"/>
      <point x="172" y="463" type="curve" smooth="yes"/>
      <point x="172" y="491" type="line" smooth="yes"/>
      <point x="172" y="787"/>
      <point x="357" y="943"/>
      <point x="697" y="943" type="curve" smooth="yes"/>
      <point x="1037" y="943"/>
      <point x="1220" y="787"/>
      <point x="1220" y="491" type="curve" smooth="yes"/>
      <point x="1220" y="463" type="line" smooth="yes"/>
      <point x="1220" y="167"/>
      <point x="1035" y="9"/>
    </contour>
    <contour>
      <point x="384" y="1116" type="line"/>
      <point x="384" y="1114" type="line"/>
      <point x="429" y="1114" type="line"/>
      <point x="693" y="1356" type="line"/>
      <point x="699" y="1356" type="line"/>
      <point x="963" y="1114" type="line"/>
      <point x="1008" y="1114" type="line"/>
      <point x="1008" y="1116" type="line"/>
      <point x="720" y="1388" type="line"/>
      <point x="672" y="1388" type="line"/>
    </contour>
  </outline>
</glyph>
<glyph name="ucircumflex" format="2">
  <advance width="1385"/>
  <unicode hex="00FB"/>
  <anchor x="693" y="0" name="bottom"/>
  <anchor x="1231" y="0" name="ogonek"/>
  <anchor x="693" y="1321" name="top"/>
  <anchor x="1365" y="952" name="topright"/>
  <outline>
    <contour>
      <point x="180" y="952" type="line"/>
      <point x="180" y="420" type="line" smooth="yes"/>
      <point x="180" y="153"/>
      <point x="293" y="-25"/>
      <point x="645" y="-25" type="curve" smooth="yes"/>
      <point x="960" y="-25"/>
      <point x="1145" y="165"/>
      <point x="1163" y="366" type="curve"/>
      <point x="1172" y="366" type="line"/>
      <point x="1156" y="395" type="line"/>
      <point x="1124" y="178"/>
      <point x="932" y="9"/>
      <point x="650" y="9" type="curve" smooth="yes"/>
      <point x="330" y="9"/>
      <point x="218" y="171"/>
      <point x="218" y="429" type="curve" smooth="yes"/>
      <point x="218" y="952" type="line"/>
    </contour>
    <contour>
      <point x="1145" y="952" type="line"/>
      <point x="1145" y="320" type="line"/>
      <point x="1149" y="320" type="line"/>
      <point x="1145" y="0" type="line"/>
      <point x="1183" y="0" type="line"/>
      <point x="1183" y="952" type="line"/>
    </contour>
    <contour>
      <point x="381" y="1116" type="line"/>
      <point x="381" y="1114" type="line"/>
      <point x="426" y="1114" type="line"/>
      <point x="690" y="1356" type="line"/>
      <point x="696" y="1356" type="line"/>
      <point x="960" y="1114" type="line"/>
      <point x="1005" y="1114" type="line"/>
      <point x="1005" y="1116" type="line"/>
      <point x="717" y="1388" type="line"/>
      <point x="669" y="1388" type="line"/>
    </contour>
  </outline>
</glyph>
<glyph name="udieresis" format="2">
  <advance width="1385"/>
  <unicode hex="00FC"/>
  <anchor x="693" y="0" name="bottom"/>
  <anchor x="1231" y="0" name="ogonek"/>
  <anchor x="693" y="1321" name="top"/>
  <anchor x="1365" y="952" name="topright"/>
  <outline>
    <contour>
      <point x="180" y="952" type="line"/>
      <point x="180" y="420" type="line" smooth="yes"/>
      <point x="180" y="153"/>
      <point x="293" y="-25"/>
      <point x="645" y="-25" type="curve" smooth="yes"/>
      <point x="960" y="-25"/>
      <point x="1145" y="165"/>
      <point x="1163" y="366" type="curve"/>
      <point x="1172" y="366" type="line"/>
      <point x="1156" y="395" type="line"/>
      <point x="1124" y="178"/>
      <point x="932" y="9"/>
      <point x="650" y="9" type="curve" smooth="yes"/>
      <point x="330" y="9"/>
      <point x="218" y="171"/>
      <point x="218" y="429" type="curve" smooth="yes"/>
      <point x="218" y="952" type="line"/>
    </contour>
    <contour>
      <point x="1145" y="952" type="line"/>
      <point x="1145" y="320" type="line"/>
      <point x="1149" y="320" type="line"/>
      <point x="1145" y="0" type="line"/>
      <point x="1183" y="0" type="line"/>
      <point x="1183" y="952" type="line"/>
    </contour>
    <contour>
      <point x="519" y="1193" type="curve" smooth="yes"/>
      <point x="554" y="1193"/>
      <point x="576" y="1210"/>
      <point x="576" y="1244" type="curve" smooth="yes"/>
      <point x="576" y="1248" type="line" smooth="yes"/>
      <point x="576" y="1278"/>
      <point x="554" y="1296"/>
      <point x="519" y="1296" type="curve" smooth="yes"/>
      <point x="483" y="1296"/>
      <point x="462" y="1278"/>
      <point x="462" y="1248" type="curve" smooth="yes"/>
      <point x="462" y="1244" type="line" smooth="yes"/>
      <point x="462" y="1210"/>
      <point x="483" y="1193"/>
    </contour>
    <contour>
      <point x="868" y="1193" type="curve" smooth="yes"/>
      <point x="903" y="1193"/>
      <point x="924" y="1210"/>
      <point x="924" y="1244" type="curve" smooth="yes"/>
      <point x="924" y="1248" type="line" smooth="yes"/>
      <point x="924" y="1278"/>
      <point x="903" y="1296"/>
      <point x="868" y="1296" type="curve" smooth="yes"/>
      <point x="832" y="1296"/>
      <point x="811" y="1278"/>
      <point x="811" y="1248" type="curve" smooth="yes"/>
      <point x="811" y="1244" type="line" smooth="yes"/>
      <point x="811" y="1210"/>
      <point x="832" y="1193"/>
    </contour>
  </outline>
</glyph>
<glyph name="yacute" format="2">
  <advance width="1291"/>
  <unicode hex="00FD"/>
  <anchor x="877" y="0" name="bottom"/>
  <anchor x="646" y="1321" name="top"/>
  <outline>
    <contour>
      <point x="630" y="59" type="line"/>
      <point x="115" y="952" type="line"/>
      <point x="72" y="952" type="line"/>
      <point x="607" y="27" type="line"/>
      <point x="658" y="27" type="line"/>
      <point x="651" y="37" type="line"/>
      <point x="434" y="-338" type="line"/>
      <point x="477" y="-338" type="line"/>
      <point x="1219" y="952" type="line"/>
      <point x="1176" y="952" type="line"/>
      <point x="656" y="50" type="line"/>
      <point x="674" y="59" type="line"/>
    </contour>
    <contour>
      <point x="632" y="1116" type="line"/>
      <point x="632" y="1114" type="line"/>
      <point x="676" y="1114" type="line"/>
      <point x="988" y="1385" type="line"/>
      <point x="988" y="1388" type="line"/>
      <point x="934" y="1388" type="line"/>
    </contour>
  </outline>
</glyph>
<glyph name="ring" format="2">
  <advance width="574"/>
  <unicode hex="02DA"/>
  <anchor x="287" y="952" name="_top"/>
  <anchor x="287" y="1422" name="top"/>
  <outline>
    <contour>
      <point x="100" y="1271" type="line"/>
      <point x="100" y="1164"/>
      <point x="169" y="1099"/>
      <point x="287" y="1099" type="curve" smooth="yes"/>
      <point x="404" y="1099"/>
      <point x="474" y="1164"/>
      <point x="474" y="1271" type="curve"/>
      <point x="474" y="1273" type="line"/>
      <point x="474" y="1380"/>
      <point x="404" y="1445"/>
      <point x="287" y="1445" type="curve" smooth="yes"/>
      <point x="169" y="1445"/>
      <point x="100" y="1380"/>
      <point x="100" y="1273" type="curve"/>
    </contour>
    <contour>
      <point x="134" y="1273" type="line"/>
      <point x="134" y="1363"/>
      <point x="189" y="1414"/>
      <point x="287" y="1414" type="curve" smooth="yes"/>
      <point x="385" y="1414"/>
      <point x="440" y="1363"/>
      <point x="440" y="1273" type="curve"/>
      <point x="440" y="1271" type="line"/>
      <point x="440" y="1181"/>
      <point x="385" y="1130"/>
      <point x="287" y="1130" type="curve" smooth="yes"/>
      <point x="189" y="1130"/>
      <point x="134" y="1181"/>
      <point x="134" y="1271" type="curve"/>
    </contour>
  </outline>
</glyph>
<glyph name="Bindu.dv" format="2">
  <unicode hex="0902"/>
  <anchor x="-317" y="1221" name="_top"/>
  <outline>
    <contour>
      <point x="-316" y="1558" type="curve" smooth="yes"/>
      <point x="-361" y="1558"/>
      <point x="-381" y="1583"/>
      <point x="-381" y="1615" type="curve" smooth="yes"/>
      <point x="-381" y="1618" type="line" smooth="yes"/>
      <point x="-381" y="1650"/>
      <point x="-361" y="1675"/>
      <point x="-316" y="1675" type="curve" smooth="yes"/>
      <point x="-271" y="1675"/>
      <point x="-251" y="1650"/>
      <point x="-251" y="1618" type="curve" smooth="yes"/>
      <point x="-251" y="1615" type="line" smooth="yes"/>
      <point x="-251" y="1583"/>
      <point x="-270" y="1558"/>
    </contour>
  </outline>
  <guideline angle="90" x="-317" y="0"/>
  <guideline angle="0" x="0" y="1221"/>
</glyph>
<glyph name="vowelChandraE.dv" format="2">
  <advance width="1501"/>
  <unicode hex="090D"/>
  <outline>
    <contour>
      <point x="1088" y="1780" type="line"/>
      <point x="1088" y="1769"/>
      <point x="1088" y="1762"/>
      <point x="1088" y="1755" type="curve" smooth="yes"/>
      <point x="1088" y="1563"/>
      <point x="967" y="1460"/>
      <point x="738" y="1460" type="curve" smooth="yes"/>
      <point x="512" y="1460"/>
      <point x="391" y="1563"/>
      <point x="391" y="1755" type="curve" smooth="yes"/>
      <point x="391" y="1762"/>
      <point x="391" y="1769"/>
      <point x="391" y="1780" type="curve"/>
      <point x="424" y="1780" type="line"/>
      <point x="424" y="1777.11"/>
      <point x="424" y="1756.68"/>
      <point x="424" y="1755" type="curve"/>
      <point x="424" y="1581"/>
      <point x="534" y="1493"/>
      <point x="738" y="1493" type="curve" smooth="yes"/>
      <point x="945" y="1493"/>
      <point x="1054" y="1581"/>
      <point x="1054" y="1755" type="curve"/>
      <point x="1054" y="1756.84"/>
      <point x="1054" y="1777.75"/>
      <point x="1054" y="1780" type="curve"/>
    </contour>
    <contour>
      <point x="-36" y="1200" type="line"/>
      <point x="-43" y="1230" type="line"/>
      <point x="1537" y="1230" type="line"/>
      <point x="1544" y="1200" type="line"/>
    </contour>
    <contour>
      <point x="315" y="682" type="line" smooth="yes"/>
      <point x="315" y="239"/>
      <point x="528" y="46"/>
      <point x="891" y="46" type="curve" smooth="yes"/>
      <point x="1018" y="46"/>
      <point x="1127" y="68"/>
      <point x="1221" y="113" type="curve"/>
      <point x="1215" y="73" type="line"/>
      <point x="1129" y="32"/>
      <point x="1021" y="12"/>
      <point x="891" y="12" type="curve" smooth="yes"/>
      <point x="512" y="12"/>
      <point x="279" y="211"/>
      <point x="279" y="677" type="curve" smooth="yes"/>
      <point x="279" y="1209" type="line"/>
      <point x="315" y="1209" type="line"/>
    </contour>
    <contour>
      <point x="1244" y="882" type="line" smooth="yes"/>
      <point x="1244" y="584"/>
      <point x="1123" y="453"/>
      <point x="859" y="453" type="curve" smooth="yes"/>
      <point x="845" y="453"/>
      <point x="838" y="453"/>
      <point x="824" y="453" type="curve"/>
      <point x="824" y="487" type="line"/>
      <point x="828.871" y="487"/>
      <point x="849.218" y="487"/>
      <point x="855" y="487" type="curve" smooth="yes"/>
      <point x="1104" y="487"/>
      <point x="1208" y="608"/>
      <point x="1208" y="885" type="curve" smooth="yes"/>
      <point x="1208" y="1207" type="line"/>
      <point x="1244" y="1207" type="line"/>
    </contour>
  </outline>
  <guideline angle="90" x="170" y="0"/>
</glyph>
<glyph name="vowelShortE.dv" format="2">
  <advance width="1501"/>
  <unicode hex="090E"/>
  <anchor x="1280" y="9" name="bottom3"/>
  <anchor x="1288" y="1221" name="top"/>
  <outline>
    <contour>
      <point x="353" y="1808" type="curve" smooth="yes"/>
      <point x="353" y="1659"/>
      <point x="435" y="1572"/>
      <point x="640" y="1572" type="curve" smooth="yes"/>
      <point x="881" y="1572" type="line" smooth="yes"/>
      <point x="1141" y="1572"/>
      <point x="1242" y="1460"/>
      <point x="1242" y="1253" type="curve" smooth="yes"/>
      <point x="1242" y="1219" type="line"/>
      <point x="1208" y="1219" type="line"/>
      <point x="1208" y="1253" type="line" smooth="yes"/>
      <point x="1208" y="1442"/>
      <point x="1119" y="1539"/>
      <point x="879" y="1539" type="curve" smooth="yes"/>
      <point x="636" y="1539" type="line" smooth="yes"/>
      <point x="411" y="1539"/>
      <point x="320" y="1641"/>
      <point x="320" y="1797" type="curve" smooth="yes"/>
      <point x="320" y="1813"/>
      <point x="321" y="1831"/>
      <point x="324" y="1848" type="curve"/>
      <point x="353" y="1848" type="line"/>
      <point x="353" y="1841.39"/>
      <point x="353" y="1814.43"/>
    </contour>
    <contour>
      <point x="-36" y="1200" type="line"/>
      <point x="-43" y="1230" type="line"/>
      <point x="1537" y="1230" type="line"/>
      <point x="1544" y="1200" type="line"/>
    </contour>
    <contour>
      <point x="315" y="682" type="line" smooth="yes"/>
      <point x="315" y="239"/>
      <point x="528" y="46"/>
      <point x="891" y="46" type="curve" smooth="yes"/>
      <point x="1018" y="46"/>
      <point x="1127" y="68"/>
      <point x="1221" y="113" type="curve"/>
      <point x="1215" y="73" type="line"/>
      <point x="1129" y="32"/>
      <point x="1021" y="12"/>
      <point x="891" y="12" type="curve" smooth="yes"/>
      <point x="512" y="12"/>
      <point x="279" y="211"/>
      <point x="279" y="677" type="curve" smooth="yes"/>
      <point x="279" y="1209" type="line"/>
      <point x="315" y="1209" type="line"/>
    </contour>
    <contour>
      <point x="1244" y="882" type="line" smooth="yes"/>
      <point x="1244" y="584"/>
      <point x="1123" y="453"/>
      <point x="859" y="453" type="curve" smooth="yes"/>
      <point x="845" y="453"/>
      <point x="838" y="453"/>
      <point x="824" y="453" type="curve"/>
      <point x="824" y="487" type="line"/>
      <point x="828.871" y="487"/>
      <point x="849.218" y="487"/>
      <point x="855" y="487" type="curve" smooth="yes"/>
      <point x="1104" y="487"/>
      <point x="1208" y="608"/>
      <point x="1208" y="885" type="curve" smooth="yes"/>
      <point x="1208" y="1207" type="line"/>
      <point x="1244" y="1207" type="line"/>
    </contour>
  </outline>
  <guideline angle="90" x="1247" y="0"/>
  <guideline angle="90" x="-801" y="0"/>
  <guideline angle="90" x="-801" y="0"/>
</glyph>
<glyph name="vowelAi.dv" format="2">
  <advance width="1501"/>
  <unicode hex="0910"/>
  <anchor x="1280" y="9" name="bottom3"/>
  <anchor x="1171" y="1221" name="top"/>
  <outline>
    <contour>
      <point x="-36" y="1200" type="line"/>
      <point x="-43" y="1230" type="line"/>
      <point x="1537" y="1230" type="line"/>
      <point x="1544" y="1200" type="line"/>
    </contour>
    <contour>
      <point x="315" y="682" type="line" smooth="yes"/>
      <point x="315" y="239"/>
      <point x="528" y="46"/>
      <point x="891" y="46" type="curve" smooth="yes"/>
      <point x="1018" y="46"/>
      <point x="1127" y="68"/>
      <point x="1221" y="113" type="curve"/>
      <point x="1215" y="73" type="line"/>
      <point x="1129" y="32"/>
      <point x="1021" y="12"/>
      <point x="891" y="12" type="curve" smooth="yes"/>
      <point x="512" y="12"/>
      <point x="279" y="211"/>
      <point x="279" y="677" type="curve" smooth="yes"/>
      <point x="279" y="1209" type="line"/>
      <point x="315" y="1209" type="line"/>
    </contour>
    <contour>
      <point x="1244" y="882" type="line" smooth="yes"/>
      <point x="1244" y="584"/>
      <point x="1123" y="453"/>
      <point x="859" y="453" type="curve" smooth="yes"/>
      <point x="845" y="453"/>
      <point x="838" y="453"/>
      <point x="824" y="453" type="curve"/>
      <point x="824" y="487" type="line"/>
      <point x="828.871" y="487"/>
      <point x="849.218" y="487"/>
      <point x="855" y="487" type="curve" smooth="yes"/>
      <point x="1104" y="487"/>
      <point x="1208" y="608"/>
      <point x="1208" y="885" type="curve" smooth="yes"/>
      <point x="1208" y="1207" type="line"/>
      <point x="1244" y="1207" type="line"/>
    </contour>
    <contour>
      <point x="354" y="1798" type="line"/>
      <point x="404" y="1798" type="line"/>
      <point x="570.959" y="1684.44"/>
      <point x="1083.93" y="1335.52"/>
      <point x="1242" y="1228" type="curve"/>
      <point x="1242" y="1221" type="line"/>
      <point x="1197" y="1221" type="line"/>
      <point x="1197" y="1230" type="line"/>
      <point x="1053" y="1316"/>
      <point x="913" y="1412"/>
      <point x="757" y="1518" type="curve" smooth="yes"/>
      <point x="354" y="1791" type="line"/>
    </contour>
  </outline>
  <guideline angle="0" x="0" y="660"/>
  <guideline angle="0" x="0" y="1221"/>
  <guideline angle="0" x="0" y="1408"/>
  <guideline angle="90" x="-801" y="0"/>
  <guideline angle="90" x="1238" y="0"/>
</glyph>
<glyph name="vowelO.dv" format="2">
  <advance width="2604"/>
  <unicode hex="0913"/>
  <anchor x="2233" y="1221" name="top"/>
  <outline>
    <contour>
      <point x="1418" y="1798" type="line"/>
      <point x="1468" y="1798" type="line"/>
      <point x="1634.96" y="1684.44"/>
      <point x="2147.93" y="1335.52"/>
      <point x="2306" y="1228" type="curve"/>
      <point x="2306" y="1221" type="line"/>
      <point x="2261" y="1221" type="line"/>
      <point x="2261" y="1230" type="line"/>
      <point x="2117" y="1316"/>
      <point x="1977" y="1412"/>
      <point x="1821" y="1518" type="curve" smooth="yes"/>
      <point x="1418" y="1791" type="line"/>
    </contour>
    <contour>
      <point x="2305" y="0" type="line"/>
      <point x="2269" y="0" type="line"/>
      <point x="2269" y="1209" type="line"/>
      <point x="2305" y="1209" type="line"/>
    </contour>
    <contour>
      <point x="2647" y="1200" type="line"/>
      <point x="1934" y="1200" type="line"/>
      <point x="1927" y="1230" type="line"/>
      <point x="2640" y="1230" type="line"/>
    </contour>
    <contour>
      <point x="2013" y="1200" type="line"/>
      <point x="1317" y="1200" type="line"/>
      <point x="1310" y="1230" type="line"/>
      <point x="2006" y="1230" type="line"/>
    </contour>
    <contour>
      <point x="1635" y="0" type="line"/>
      <point x="1635" y="1210" type="line"/>
      <point x="1671" y="1210" type="line"/>
      <point x="1671" y="0" type="line"/>
    </contour>
    <contour>
      <point x="87" y="201" type="line"/>
      <point x="236" y="100"/>
      <point x="410" y="52"/>
      <point x="612" y="52" type="curve" smooth="yes"/>
      <point x="884" y="52"/>
      <point x="1076" y="153"/>
      <point x="1076" y="342" type="curve" smooth="yes"/>
      <point x="1076" y="349" type="line" smooth="yes"/>
      <point x="1076" y="540"/>
      <point x="906" y="633"/>
      <point x="593" y="638" type="curve" smooth="yes"/>
      <point x="345" y="642" type="line"/>
      <point x="345" y="673" type="line"/>
      <point x="584" y="675" type="line" smooth="yes"/>
      <point x="904" y="678"/>
      <point x="1053" y="765"/>
      <point x="1053" y="934" type="curve" smooth="yes"/>
      <point x="1053" y="938" type="line" smooth="yes"/>
      <point x="1053" y="1096"/>
      <point x="924" y="1214"/>
      <point x="630" y="1214" type="curve" smooth="yes"/>
      <point x="449" y="1214"/>
      <point x="304" y="1176"/>
      <point x="153" y="1096" type="curve"/>
      <point x="158" y="1137" type="line"/>
      <point x="298" y="1209"/>
      <point x="443" y="1248"/>
      <point x="630" y="1248" type="curve" smooth="yes"/>
      <point x="945" y="1248"/>
      <point x="1091" y="1118"/>
      <point x="1091" y="940" type="curve" smooth="yes"/>
      <point x="1091" y="933" type="line" smooth="yes"/>
      <point x="1091" y="762"/>
      <point x="945" y="669"/>
      <point x="723" y="658" type="curve"/>
      <point x="723" y="650" type="line"/>
      <point x="975" y="632"/>
      <point x="1114" y="525"/>
      <point x="1114" y="348" type="curve" smooth="yes"/>
      <point x="1114" y="340" type="line" smooth="yes"/>
      <point x="1114" y="134"/>
      <point x="917" y="18"/>
      <point x="613" y="18" type="curve" smooth="yes"/>
      <point x="401" y="18"/>
      <point x="226" y="68"/>
      <point x="93" y="157" type="curve"/>
    </contour>
    <contour>
      <point x="719" y="665" type="line"/>
      <point x="749" y="665" type="line"/>
      <point x="749" y="661" type="line"/>
      <point x="894" y="665"/>
      <point x="1011" y="665"/>
      <point x="1151" y="665" type="curve" smooth="yes"/>
      <point x="1655" y="665" type="line"/>
      <point x="1655" y="633" type="line"/>
      <point x="1151" y="633" type="line" smooth="yes"/>
      <point x="1018" y="633"/>
      <point x="912" y="634"/>
      <point x="794" y="642" type="curve"/>
      <point x="794" y="638" type="line"/>
      <point x="719" y="644" type="line"/>
    </contour>
  </outline>
  <guideline angle="0" x="0" y="660"/>
  <guideline angle="90" x="2278" y="0"/>
  <guideline angle="0" x="0" y="1221"/>
  <guideline angle="0" x="0" y="1408"/>
  <guideline angle="90" x="2289" y="0"/>
  <guideline angle="90" x="2305" y="0"/>
  <guideline angle="90" x="2045" y="0"/>
</glyph>
<glyph name="vowelAu.dv" format="2">
  <advance width="2604"/>
  <unicode hex="0914"/>
  <anchor x="2270" y="1221" name="top"/>
  <outline>
    <contour>
      <point x="1382" y="1604" type="line"/>
      <point x="2247" y="1255" type="line"/>
      <point x="2249" y="1258" type="line"/>
      <point x="2121" y="1396"/>
      <point x="2031" y="1508"/>
      <point x="1919" y="1645" type="curve" smooth="yes"/>
      <point x="1695" y="1919" type="line"/>
      <point x="1695" y="1926" type="line"/>
      <point x="1735" y="1926" type="line"/>
      <point x="2302" y="1228" type="line"/>
      <point x="2302" y="1221" type="line"/>
      <point x="2265" y="1221" type="line"/>
      <point x="2265" y="1228" type="line"/>
      <point x="2067" y="1294"/>
      <point x="1900" y="1359"/>
      <point x="1719" y="1432" type="curve" smooth="yes"/>
      <point x="1323" y="1591" type="line"/>
      <point x="1323" y="1604" type="line"/>
    </contour>
    <contour>
      <point x="2305" y="0" type="line"/>
      <point x="2269" y="0" type="line"/>
      <point x="2269" y="1209" type="line"/>
      <point x="2305" y="1209" type="line"/>
    </contour>
    <contour>
      <point x="2647" y="1200" type="line"/>
      <point x="1934" y="1200" type="line"/>
      <point x="1927" y="1230" type="line"/>
      <point x="2640" y="1230" type="line"/>
    </contour>
    <contour>
      <point x="2013" y="1200" type="line"/>
      <point x="1317" y="1200" type="line"/>
      <point x="1310" y="1230" type="line"/>
      <point x="2006" y="1230" type="line"/>
    </contour>
    <contour>
      <point x="1635" y="0" type="line"/>
      <point x="1635" y="1210" type="line"/>
      <point x="1671" y="1210" type="line"/>
      <point x="1671" y="0" type="line"/>
    </contour>
    <contour>
      <point x="87" y="201" type="line"/>
      <point x="236" y="100"/>
      <point x="410" y="52"/>
      <point x="612" y="52" type="curve" smooth="yes"/>
      <point x="884" y="52"/>
      <point x="1076" y="153"/>
      <point x="1076" y="342" type="curve" smooth="yes"/>
      <point x="1076" y="349" type="line" smooth="yes"/>
      <point x="1076" y="540"/>
      <point x="906" y="633"/>
      <point x="593" y="638" type="curve" smooth="yes"/>
      <point x="345" y="642" type="line"/>
      <point x="345" y="673" type="line"/>
      <point x="584" y="675" type="line" smooth="yes"/>
      <point x="904" y="678"/>
      <point x="1053" y="765"/>
      <point x="1053" y="934" type="curve" smooth="yes"/>
      <point x="1053" y="938" type="line" smooth="yes"/>
      <point x="1053" y="1096"/>
      <point x="924" y="1214"/>
      <point x="630" y="1214" type="curve" smooth="yes"/>
      <point x="449" y="1214"/>
      <point x="304" y="1176"/>
      <point x="153" y="1096" type="curve"/>
      <point x="158" y="1137" type="line"/>
      <point x="298" y="1209"/>
      <point x="443" y="1248"/>
      <point x="630" y="1248" type="curve" smooth="yes"/>
      <point x="945" y="1248"/>
      <point x="1091" y="1118"/>
      <point x="1091" y="940" type="curve" smooth="yes"/>
      <point x="1091" y="933" type="line" smooth="yes"/>
      <point x="1091" y="762"/>
      <point x="945" y="669"/>
      <point x="723" y="658" type="curve"/>
      <point x="723" y="650" type="line"/>
      <point x="975" y="632"/>
      <point x="1114" y="525"/>
      <point x="1114" y="348" type="curve" smooth="yes"/>
      <point x="1114" y="340" type="line" smooth="yes"/>
      <point x="1114" y="134"/>
      <point x="917" y="18"/>
      <point x="613" y="18" type="curve" smooth="yes"/>
      <point x="401" y="18"/>
      <point x="226" y="68"/>
      <point x="93" y="157" type="curve"/>
    </contour>
    <contour>
      <point x="719" y="665" type="line"/>
      <point x="749" y="665" type="line"/>
      <point x="749" y="661" type="line"/>
      <point x="894" y="665"/>
      <point x="1011" y="665"/>
      <point x="1151" y="665" type="curve" smooth="yes"/>
      <point x="1655" y="665" type="line"/>
      <point x="1655" y="633" type="line"/>
      <point x="1151" y="633" type="line" smooth="yes"/>
      <point x="1018" y="633"/>
      <point x="912" y="634"/>
      <point x="794" y="642" type="curve"/>
      <point x="794" y="638" type="line"/>
      <point x="719" y="644" type="line"/>
    </contour>
  </outline>
  <guideline angle="0" x="0" y="1221"/>
  <guideline angle="90" x="2066" y="0"/>
  <guideline angle="90" x="2289" y="0"/>
  <guideline angle="90" x="2305" y="0"/>
  <guideline angle="90" x="2045" y="0"/>
</glyph>
<glyph name="Gha.dv" format="2">
  <advance width="1670"/>
  <unicode hex="0918"/>
  <anchor x="1353" y="9" name="bottom"/>
  <anchor x="1348" y="9" name="bottom2"/>
  <anchor x="1371" y="9" name="bottom3"/>
  <anchor x="1353" y="30" name="bottom5"/>
  <anchor x="1353" y="1221" name="top"/>
  <outline>
    <contour>
      <point x="1371" y="1209" type="line"/>
      <point x="1371" y="0" type="line"/>
      <point x="1335" y="0" type="line"/>
      <point x="1335" y="1209" type="line"/>
    </contour>
    <contour>
      <point x="1161" y="1200" type="line"/>
      <point x="1154" y="1230" type="line"/>
      <point x="1706" y="1230" type="line"/>
      <point x="1713" y="1200" type="line"/>
    </contour>
    <contour>
      <point x="-34" y="1200" type="line"/>
      <point x="-41" y="1230" type="line"/>
      <point x="1706" y="1230" type="line"/>
      <point x="1713" y="1200" type="line"/>
    </contour>
    <contour>
      <point x="637" y="752" type="line"/>
      <point x="313" y="769"/>
      <point x="214" y="879"/>
      <point x="214" y="1026" type="curve" smooth="yes"/>
      <point x="214" y="1029" type="line" smooth="yes"/>
      <point x="214" y="1105"/>
      <point x="244" y="1168"/>
      <point x="294" y="1210" type="curve"/>
      <point x="338" y="1210" type="line"/>
      <point x="278" y="1157"/>
      <point x="252" y="1101"/>
      <point x="252" y="1029" type="curve" smooth="yes"/>
      <point x="252" y="1026" type="line" smooth="yes"/>
      <point x="252" y="884"/>
      <point x="347" y="776"/>
      <point x="778" y="768" type="curve" smooth="yes"/>
      <point x="890" y="766" type="line"/>
      <point x="890" y="734" type="line"/>
      <point x="778" y="732" type="line" smooth="yes"/>
      <point x="347" y="724"/>
      <point x="246" y="639"/>
      <point x="246" y="489" type="curve" smooth="yes"/>
      <point x="246" y="485" type="line" smooth="yes"/>
      <point x="246" y="313"/>
      <point x="428" y="224"/>
      <point x="758" y="224" type="curve" smooth="yes"/>
      <point x="1110" y="224"/>
      <point x="1279" y="333"/>
      <point x="1340" y="497" type="curve"/>
      <point x="1344" y="449" type="line"/>
      <point x="1342" y="449" type="line"/>
      <point x="1288" y="308"/>
      <point x="1123" y="190"/>
      <point x="760" y="190" type="curve" smooth="yes"/>
      <point x="401" y="190"/>
      <point x="208" y="292"/>
      <point x="208" y="484" type="curve" smooth="yes"/>
      <point x="208" y="489" type="line" smooth="yes"/>
      <point x="208" y="645"/>
      <point x="312" y="737"/>
      <point x="637" y="748" type="curve"/>
    </contour>
  </outline>
  <guideline angle="90" x="-127" y="0"/>
  <guideline angle="90" x="1353" y="0"/>
  <guideline angle="90" x="1371" y="0"/>
  <guideline angle="0" x="0" y="9"/>
  <guideline angle="0" x="0" y="1221"/>
  <guideline angle="90" x="1348" y="0"/>
  <guideline angle="0" x="0" y="30"/>
</glyph>
<glyph name="Ca.dv" format="2">
  <advance width="1698"/>
  <unicode hex="091A"/>
  <anchor x="1381" y="9" name="bottom"/>
  <anchor x="1376" y="9" name="bottom2"/>
  <anchor x="1399" y="9" name="bottom3"/>
  <anchor x="1381" y="30" name="bottom5"/>
  <anchor x="1381" y="1221" name="top"/>
  <outline>
    <contour>
      <point x="1399" y="1209" type="line"/>
      <point x="1399" y="0" type="line"/>
      <point x="1363" y="0" type="line"/>
      <point x="1363" y="1209" type="line"/>
    </contour>
    <contour>
      <point x="1189" y="1200" type="line"/>
      <point x="1182" y="1230" type="line"/>
      <point x="1734" y="1230" type="line"/>
      <point x="1741" y="1200" type="line"/>
    </contour>
    <contour>
      <point x="-36" y="1200" type="line"/>
      <point x="-43" y="1230" type="line"/>
      <point x="1734" y="1230" type="line"/>
      <point x="1741" y="1200" type="line"/>
    </contour>
    <contour>
      <point x="1068" y="863" type="line"/>
      <point x="1068" y="835" type="line"/>
      <point x="732" y="837" type="line"/>
      <point x="456" y="831" type="line"/>
      <point x="66" y="831" type="line"/>
      <point x="66" y="863" type="line"/>
    </contour>
    <contour>
      <point x="849" y="198" type="curve" smooth="yes"/>
      <point x="507" y="198"/>
      <point x="304" y="315"/>
      <point x="304" y="532" type="curve" smooth="yes"/>
      <point x="304" y="536" type="line" smooth="yes"/>
      <point x="304" y="718"/>
      <point x="422" y="809"/>
      <point x="659" y="837" type="curve"/>
      <point x="659" y="851" type="line"/>
      <point x="1068" y="851" type="line"/>
      <point x="1068" y="835" type="line"/>
      <point x="831" y="829" type="line" smooth="yes"/>
      <point x="504" y="821"/>
      <point x="342" y="734"/>
      <point x="342" y="536" type="curve" smooth="yes"/>
      <point x="342" y="532" type="line" smooth="yes"/>
      <point x="342" y="339"/>
      <point x="535" y="232"/>
      <point x="846" y="232" type="curve" smooth="yes"/>
      <point x="1153" y="232"/>
      <point x="1317" y="350"/>
      <point x="1368" y="529" type="curve"/>
      <point x="1371" y="476" type="line"/>
      <point x="1369" y="476" type="line"/>
      <point x="1330" y="331"/>
      <point x="1171" y="198"/>
    </contour>
  </outline>
  <guideline angle="90" x="1381" y="0"/>
  <guideline angle="90" x="1399" y="0"/>
  <guideline angle="0" x="0" y="9"/>
  <guideline angle="0" x="0" y="1221"/>
  <guideline angle="90" x="1376" y="0"/>
  <guideline angle="0" x="0" y="30"/>
</glyph>
<glyph name="Cha.dv" format="2">
  <advance width="1832"/>
  <unicode hex="091B"/>
  <anchor x="980" y="7" name="bottom"/>
  <anchor x="837" y="7" name="bottom2"/>
  <anchor x="1431" y="7" name="bottom3"/>
  <anchor x="915" y="-80" name="bottom4"/>
  <anchor x="914" y="30" name="bottom5"/>
  <anchor x="1369" y="1221" name="top"/>
  <outline>
    <contour>
      <point x="1188" y="1200" type="line"/>
      <point x="1181" y="1230" type="line"/>
      <point x="1672" y="1230" type="line"/>
      <point x="1679" y="1200" type="line"/>
    </contour>
    <contour>
      <point x="1387" y="1209" type="line"/>
      <point x="1387" y="931" type="line"/>
      <point x="1352" y="931" type="line"/>
      <point x="1352" y="1209" type="line"/>
    </contour>
    <contour>
      <point x="1849" y="1230" type="line"/>
      <point x="1857" y="1200" type="line"/>
      <point x="-41" y="1200" type="line"/>
      <point x="-48" y="1230" type="line"/>
    </contour>
    <contour>
      <point x="1352" y="924" type="line"/>
      <point x="1352" y="1210" type="line"/>
      <point x="1387" y="1210" type="line"/>
      <point x="1387" y="924" type="line"/>
    </contour>
    <contour>
      <point x="867" y="-2" type="curve" smooth="yes"/>
      <point x="433" y="-2"/>
      <point x="208" y="144"/>
      <point x="208" y="374" type="curve" smooth="yes"/>
      <point x="208" y="379" type="line" smooth="yes"/>
      <point x="208" y="548"/>
      <point x="315" y="658"/>
      <point x="589" y="673" type="curve"/>
      <point x="589" y="676" type="line"/>
      <point x="322" y="701"/>
      <point x="217" y="816"/>
      <point x="217" y="977" type="curve" smooth="yes"/>
      <point x="217" y="983" type="line" smooth="yes"/>
      <point x="217" y="1080"/>
      <point x="263" y="1163"/>
      <point x="327" y="1209" type="curve"/>
      <point x="373" y="1209" type="line"/>
      <point x="290" y="1146"/>
      <point x="255" y="1070"/>
      <point x="255" y="982" type="curve" smooth="yes"/>
      <point x="255" y="976" type="line" smooth="yes"/>
      <point x="255" y="830"/>
      <point x="347" y="703"/>
      <point x="696" y="692" type="curve" smooth="yes"/>
      <point x="762" y="690" type="line"/>
      <point x="762" y="658" type="line"/>
      <point x="694" y="656" type="line" smooth="yes"/>
      <point x="352" y="646"/>
      <point x="246" y="545"/>
      <point x="246" y="379" type="curve" smooth="yes"/>
      <point x="246" y="374" type="line" smooth="yes"/>
      <point x="246" y="168"/>
      <point x="459" y="33"/>
      <point x="865" y="33" type="curve" smooth="yes"/>
      <point x="1365" y="33"/>
      <point x="1621" y="276"/>
      <point x="1621" y="582" type="curve" smooth="yes"/>
      <point x="1621" y="587" type="line"/>
      <point x="1621" y="595" type="line"/>
      <point x="1621" y="605" type="line" smooth="yes"/>
      <point x="1621" y="796"/>
      <point x="1504" y="906"/>
      <point x="1312" y="906" type="curve" smooth="yes"/>
      <point x="1129" y="906"/>
      <point x="1008" y="821"/>
      <point x="1008" y="667" type="curve" smooth="yes"/>
      <point x="1008" y="662" type="line" smooth="yes"/>
      <point x="1008" y="507"/>
      <point x="1127" y="427"/>
      <point x="1296" y="427" type="curve" smooth="yes"/>
      <point x="1451" y="427"/>
      <point x="1572" y="488"/>
      <point x="1623" y="612" type="curve"/>
      <point x="1628" y="570" type="line"/>
      <point x="1625" y="570" type="line"/>
      <point x="1580" y="463"/>
      <point x="1463" y="393"/>
      <point x="1296" y="393" type="curve" smooth="yes"/>
      <point x="1104" y="393"/>
      <point x="971" y="487"/>
      <point x="971" y="662" type="curve" smooth="yes"/>
      <point x="971" y="669" type="line" smooth="yes"/>
      <point x="971" y="840"/>
      <point x="1102" y="940"/>
      <point x="1310" y="940" type="curve" smooth="yes"/>
      <point x="1527" y="940"/>
      <point x="1657" y="814"/>
      <point x="1657" y="603" type="curve" smooth="yes"/>
      <point x="1657" y="589" type="line" smooth="yes"/>
      <point x="1657" y="246"/>
      <point x="1385" y="-2"/>
    </contour>
  </outline>
  <guideline angle="0" x="0" y="7"/>
  <guideline angle="0" x="0" y="34"/>
  <guideline angle="90" x="1657" y="0"/>
  <guideline angle="90" x="1369" y="0"/>
</glyph>
<glyph name="Nya.dv" format="2">
  <advance width="1853"/>
  <unicode hex="091E"/>
  <anchor x="1536" y="9" name="bottom"/>
  <anchor x="1531" y="9" name="bottom2"/>
  <anchor x="1554" y="9" name="bottom3"/>
  <anchor x="1536" y="30" name="bottom5"/>
  <anchor x="1536" y="1221" name="top"/>
  <outline>
    <contour>
      <point x="-36" y="1200" type="line"/>
      <point x="-43" y="1230" type="line"/>
      <point x="1889" y="1230" type="line"/>
      <point x="1896" y="1200" type="line"/>
    </contour>
    <contour>
      <point x="192" y="863" type="line"/>
      <point x="293" y="908"/>
      <point x="415" y="931"/>
      <point x="568" y="931" type="curve" smooth="yes"/>
      <point x="881" y="931"/>
      <point x="1057" y="805"/>
      <point x="1057" y="568" type="curve" smooth="yes"/>
      <point x="1057" y="561" type="line" smooth="yes"/>
      <point x="1057" y="315"/>
      <point x="870" y="190"/>
      <point x="562" y="190" type="curve" smooth="yes"/>
      <point x="378" y="190"/>
      <point x="232" y="231"/>
      <point x="144" y="285" type="curve"/>
      <point x="139" y="324" type="line"/>
      <point x="236" y="267"/>
      <point x="374" y="224"/>
      <point x="562" y="224" type="curve" smooth="yes"/>
      <point x="849" y="224"/>
      <point x="1020" y="340"/>
      <point x="1020" y="561" type="curve" smooth="yes"/>
      <point x="1020" y="566" type="line" smooth="yes"/>
      <point x="1020" y="789"/>
      <point x="858" y="897"/>
      <point x="568" y="897" type="curve" smooth="yes"/>
      <point x="421" y="897"/>
      <point x="303" y="878"/>
      <point x="187" y="826" type="curve"/>
    </contour>
    <contour>
      <point x="1038" y="595" type="line"/>
      <point x="1534" y="595" type="line"/>
      <point x="1534" y="563" type="line"/>
      <point x="1037" y="563" type="line"/>
    </contour>
    <contour>
      <point x="1554" y="1209" type="line"/>
      <point x="1554" y="0" type="line"/>
      <point x="1518" y="0" type="line"/>
      <point x="1518" y="1209" type="line"/>
    </contour>
    <contour>
      <point x="1344" y="1200" type="line"/>
      <point x="1337" y="1230" type="line"/>
      <point x="1889" y="1230" type="line"/>
      <point x="1896" y="1200" type="line"/>
    </contour>
  </outline>
  <guideline angle="90" x="1536" y="0"/>
  <guideline angle="90" x="1554" y="0"/>
  <guideline angle="0" x="0" y="9"/>
  <guideline angle="0" x="0" y="1221"/>
  <guideline angle="90" x="1531" y="0"/>
  <guideline angle="0" x="0" y="30"/>
</glyph>
<glyph name="Ba.dv" format="2">
  <advance width="1613"/>
  <unicode hex="092C"/>
  <anchor x="1296" y="9" name="bottom"/>
  <anchor x="1291" y="9" name="bottom2"/>
  <anchor x="1314" y="9" name="bottom3"/>
  <anchor x="1296" y="30" name="bottom5"/>
  <anchor x="1296" y="1221" name="top"/>
  <outline>
    <contour>
      <point x="1314" y="1209" type="line"/>
      <point x="1314" y="0" type="line"/>
      <point x="1278" y="0" type="line"/>
      <point x="1278" y="1209" type="line"/>
    </contour>
    <contour>
      <point x="1104" y="1200" type="line"/>
      <point x="1097" y="1230" type="line"/>
      <point x="1649" y="1230" type="line"/>
      <point x="1656" y="1200" type="line"/>
    </contour>
    <contour>
      <point x="-21" y="1200" type="line"/>
      <point x="-28" y="1230" type="line"/>
      <point x="1548" y="1230" type="line"/>
      <point x="1555" y="1200" type="line"/>
    </contour>
    <contour>
      <point x="359" y="847" type="line"/>
      <point x="395" y="862" type="line"/>
      <point x="1141" y="306" type="line"/>
      <point x="1112" y="287" type="line"/>
    </contour>
    <contour>
      <point x="173" y="563" type="curve" smooth="yes"/>
      <point x="173" y="570" type="line" smooth="yes"/>
      <point x="173" y="806"/>
      <point x="363" y="938"/>
      <point x="716" y="938" type="curve" smooth="yes"/>
      <point x="863" y="938"/>
      <point x="975" y="920"/>
      <point x="1072" y="888" type="curve"/>
      <point x="1077" y="851" type="line"/>
      <point x="974" y="886"/>
      <point x="860" y="904"/>
      <point x="724" y="904" type="curve" smooth="yes"/>
      <point x="385" y="904"/>
      <point x="211" y="786"/>
      <point x="211" y="570" type="curve" smooth="yes"/>
      <point x="211" y="564" type="line" smooth="yes"/>
      <point x="211" y="343"/>
      <point x="408" y="216"/>
      <point x="724" y="216" type="curve" smooth="yes"/>
      <point x="1058" y="216"/>
      <point x="1224" y="337"/>
      <point x="1282" y="525" type="curve"/>
      <point x="1285" y="472" type="line"/>
      <point x="1283" y="472" type="line"/>
      <point x="1240" y="319"/>
      <point x="1076" y="182"/>
      <point x="726" y="182" type="curve" smooth="yes"/>
      <point x="384" y="182"/>
      <point x="173" y="321"/>
    </contour>
  </outline>
  <guideline angle="90" x="1296" y="0"/>
  <guideline angle="90" x="1314" y="0"/>
  <guideline angle="0" x="0" y="9"/>
  <guideline angle="0" x="0" y="1221"/>
  <guideline angle="90" x="1291" y="0"/>
  <guideline angle="0" x="0" y="30"/>
</glyph>
<glyph name="Ssa.dv" format="2">
  <advance width="1549"/>
  <unicode hex="0937"/>
  <anchor x="1232" y="9" name="bottom"/>
  <anchor x="1227" y="9" name="bottom2"/>
  <anchor x="1250" y="9" name="bottom3"/>
  <anchor x="1232" y="30" name="bottom5"/>
  <anchor x="1232" y="1221" name="top"/>
  <outline>
    <contour>
      <point x="1250" y="1209" type="line"/>
      <point x="1250" y="0" type="line"/>
      <point x="1214" y="0" type="line"/>
      <point x="1214" y="1209" type="line"/>
    </contour>
    <contour>
      <point x="1040" y="1200" type="line"/>
      <point x="1033" y="1230" type="line"/>
      <point x="1585" y="1230" type="line"/>
      <point x="1592" y="1200" type="line"/>
    </contour>
    <contour>
      <point x="-36" y="1200" type="line"/>
      <point x="-43" y="1230" type="line"/>
      <point x="1584" y="1230" type="line"/>
      <point x="1591" y="1200" type="line"/>
    </contour>
    <contour>
      <point x="735" y="349" type="curve" smooth="yes"/>
      <point x="409" y="349"/>
      <point x="233" y="491"/>
      <point x="233" y="828" type="curve" smooth="yes"/>
      <point x="233" y="1205" type="line"/>
      <point x="269" y="1205" type="line"/>
      <point x="269" y="828" type="line" smooth="yes"/>
      <point x="269" y="514"/>
      <point x="429" y="383"/>
      <point x="735" y="383" type="curve" smooth="yes"/>
      <point x="1006" y="383"/>
      <point x="1155" y="495"/>
      <point x="1216" y="682" type="curve"/>
      <point x="1221" y="628" type="line"/>
      <point x="1218" y="628" type="line"/>
      <point x="1171" y="479"/>
      <point x="1023" y="349"/>
    </contour>
    <contour>
      <point x="251" y="1176" type="curve"/>
      <point x="265" y="1200" type="line"/>
      <point x="1006" y="735" type="line" smooth="yes"/>
      <point x="1069" y="695"/>
      <point x="1133" y="655"/>
      <point x="1198" y="611" type="curve"/>
      <point x="1184" y="584" type="line"/>
      <point x="417" y="1066" type="line" smooth="yes"/>
      <point x="343" y="1112"/>
      <point x="295" y="1143"/>
    </contour>
  </outline>
  <guideline angle="90" x="1232" y="0"/>
  <guideline angle="90" x="1250" y="0"/>
  <guideline angle="0" x="0" y="9"/>
  <guideline angle="0" x="0" y="1221"/>
  <guideline angle="90" x="1227" y="0"/>
  <guideline angle="0" x="0" y="30"/>
</glyph>
<glyph name="Ha.dv" format="2">
  <advance width="1464"/>
  <unicode hex="0939"/>
  <anchor x="830" y="-166" name="bottom"/>
  <anchor x="635" y="-176" name="bottom2"/>
  <anchor x="1262" y="-176" name="bottom3"/>
  <anchor x="367" y="-172" name="bottom4"/>
  <anchor x="752" y="-155" name="bottom5"/>
  <anchor x="1187" y="1221" name="top"/>
  <outline>
    <contour>
      <point x="1006" y="1200" type="line"/>
      <point x="999" y="1230" type="line"/>
      <point x="1490" y="1230" type="line"/>
      <point x="1497" y="1200" type="line"/>
    </contour>
    <contour>
      <point x="1205" y="1209" type="line"/>
      <point x="1205" y="931" type="line"/>
      <point x="1170" y="931" type="line"/>
      <point x="1170" y="1209" type="line"/>
    </contour>
    <contour>
      <point x="1504" y="1200" type="line"/>
      <point x="-27" y="1200" type="line"/>
      <point x="-34" y="1230" type="line"/>
      <point x="1497" y="1230" type="line"/>
    </contour>
    <contour>
      <point x="1170" y="1218" type="line"/>
      <point x="1205" y="1218" type="line"/>
      <point x="1205" y="854" type="line"/>
      <point x="1170" y="878" type="line"/>
    </contour>
    <contour>
      <point x="340" y="418" type="line"/>
      <point x="242" y="472"/>
      <point x="194" y="557"/>
      <point x="194" y="641" type="curve" smooth="yes"/>
      <point x="194" y="648" type="line" smooth="yes"/>
      <point x="194" y="822"/>
      <point x="342" y="926"/>
      <point x="735" y="926" type="curve" smooth="yes"/>
      <point x="917" y="926"/>
      <point x="1054" y="915"/>
      <point x="1205" y="888" type="curve"/>
      <point x="1205" y="854" type="line"/>
      <point x="1056" y="881"/>
      <point x="922" y="892"/>
      <point x="741" y="892" type="curve" smooth="yes"/>
      <point x="369" y="892"/>
      <point x="231" y="801"/>
      <point x="231" y="646" type="curve" smooth="yes"/>
      <point x="231" y="641" type="line" smooth="yes"/>
      <point x="231" y="561"/>
      <point x="278" y="485"/>
      <point x="367" y="440" type="curve"/>
    </contour>
    <contour>
      <point x="1171" y="-129" type="line"/>
      <point x="1075" y="-162"/>
      <point x="938" y="-185"/>
      <point x="791" y="-185" type="curve" smooth="yes"/>
      <point x="433" y="-185"/>
      <point x="210" y="-61"/>
      <point x="210" y="178" type="curve" smooth="yes"/>
      <point x="210" y="185" type="line" smooth="yes"/>
      <point x="210" y="288"/>
      <point x="253" y="374"/>
      <point x="340" y="434" type="curve"/>
      <point x="347" y="440" type="line"/>
      <point x="440" y="500"/>
      <point x="579" y="532"/>
      <point x="759" y="532" type="curve" smooth="yes"/>
      <point x="1111" y="532"/>
      <point x="1280" y="402"/>
      <point x="1280" y="203" type="curve" smooth="yes"/>
      <point x="1280" y="183"/>
      <point x="1278" y="160"/>
      <point x="1275" y="146" type="curve"/>
      <point x="1243" y="146" type="line"/>
      <point x="1243" y="196" type="line" smooth="yes"/>
      <point x="1243" y="384"/>
      <point x="1085" y="498"/>
      <point x="759" y="498" type="curve" smooth="yes"/>
      <point x="427" y="498"/>
      <point x="248" y="394"/>
      <point x="248" y="183" type="curve" smooth="yes"/>
      <point x="248" y="176" type="line" smooth="yes"/>
      <point x="248" y="-37"/>
      <point x="456" y="-151"/>
      <point x="793" y="-151" type="curve" smooth="yes"/>
      <point x="931" y="-151"/>
      <point x="1074" y="-128"/>
      <point x="1177" y="-91" type="curve"/>
    </contour>
  </outline>
  <guideline angle="0" x="0" y="540"/>
  <guideline angle="0" x="0" y="-176"/>
  <guideline angle="0" x="0" y="-155"/>
  <guideline angle="90" x="1187" y="0"/>
</glyph>
<glyph name="uni093A" format="2">
  <unicode hex="093A"/>
  <anchor x="-317" y="1221" name="_top"/>
  <outline>
    <contour>
      <point x="-335" y="1687" type="line"/>
      <point x="-301" y="1687" type="line"/>
      <point x="-301" y="1219" type="line"/>
      <point x="-335" y="1219" type="line"/>
    </contour>
  </outline>
  <guideline angle="90" x="-188" y="0"/>
</glyph>
<glyph name="matraIi.dv" format="2">
  <advance width="634"/>
  <unicode hex="0940"/>
  <outline>
    <contour>
      <point x="335" y="0" type="line"/>
      <point x="299" y="0" type="line"/>
      <point x="299" y="1209" type="line"/>
      <point x="335" y="1209" type="line"/>
    </contour>
    <contour>
      <point x="677" y="1200" type="line"/>
      <point x="-36" y="1200" type="line"/>
      <point x="-43" y="1230" type="line"/>
      <point x="670" y="1230" type="line"/>
    </contour>
    <contour>
      <point x="-8" y="1789" type="curve" smooth="yes"/>
      <point x="206" y="1789"/>
      <point x="334" y="1680"/>
      <point x="334" y="1421" type="curve" smooth="yes"/>
      <point x="334" y="1223" type="line"/>
      <point x="299" y="1223" type="line"/>
      <point x="299" y="1419" type="line" smooth="yes"/>
      <point x="299" y="1654"/>
      <point x="188" y="1755"/>
      <point x="-8" y="1755" type="curve" smooth="yes"/>
      <point x="-197" y="1755"/>
      <point x="-305" y="1659"/>
      <point x="-305" y="1474" type="curve" smooth="yes"/>
      <point x="-305" y="1360" type="line"/>
      <point x="-336" y="1369" type="line"/>
      <point x="-339" y="1418"/>
      <point x="-341" y="1455"/>
      <point x="-341" y="1488" type="curve" smooth="yes"/>
      <point x="-341" y="1680"/>
      <point x="-218" y="1789"/>
    </contour>
  </outline>
  <guideline angle="90" x="335" y="0"/>
  <guideline angle="90" x="75" y="0"/>
</glyph>
<glyph name="matraRu.dv" format="2">
  <unicode hex="0943"/>
  <anchor x="-317" y="9" name="_bottom"/>
  <outline>
    <contour>
      <point x="-422" y="-536" type="curve" smooth="yes"/>
      <point x="-660" y="-536"/>
      <point x="-810" y="-427"/>
      <point x="-810" y="-256" type="curve" smooth="yes"/>
      <point x="-810" y="-247" type="line" smooth="yes"/>
      <point x="-810" y="-75"/>
      <point x="-676" y="16"/>
      <point x="-406" y="16" type="curve" smooth="yes"/>
      <point x="-299" y="16" type="line"/>
      <point x="-299" y="-16" type="line"/>
      <point x="-400" y="-16" type="line" smooth="yes"/>
      <point x="-649" y="-16"/>
      <point x="-773" y="-94"/>
      <point x="-773" y="-249" type="curve" smooth="yes"/>
      <point x="-773" y="-255" type="line" smooth="yes"/>
      <point x="-773" y="-409"/>
      <point x="-639" y="-502"/>
      <point x="-423" y="-502" type="curve" smooth="yes"/>
      <point x="-267" y="-502"/>
      <point x="-149" y="-466"/>
      <point x="-48" y="-384" type="curve"/>
      <point x="-53" y="-431" type="line"/>
      <point x="-147" y="-500"/>
      <point x="-261" y="-536"/>
    </contour>
  </outline>
  <guideline angle="0" x="0" y="5936"/>
  <guideline angle="0" x="0" y="9"/>
  <guideline angle="90" x="-317" y="0"/>
  <guideline angle="90" x="-299" y="0"/>
  <guideline angle="0" x="0" y="16"/>
</glyph>
<glyph name="matraAi.dv" format="2">
  <unicode hex="0948"/>
  <anchor x="-317" y="1221" name="_top"/>
  <outline>
    <contour>
      <point x="-1219" y="1604" type="line"/>
      <point x="-354" y="1255" type="line"/>
      <point x="-352" y="1258" type="line"/>
      <point x="-480" y="1396"/>
      <point x="-570" y="1508"/>
      <point x="-682" y="1645" type="curve" smooth="yes"/>
      <point x="-906" y="1919" type="line"/>
      <point x="-906" y="1926" type="line"/>
      <point x="-866" y="1926" type="line"/>
      <point x="-299" y="1228" type="line"/>
      <point x="-299" y="1221" type="line"/>
      <point x="-336" y="1221" type="line"/>
      <point x="-336" y="1228" type="line"/>
      <point x="-534" y="1294"/>
      <point x="-701" y="1359"/>
      <point x="-882" y="1432" type="curve" smooth="yes"/>
      <point x="-1278" y="1591" type="line"/>
      <point x="-1278" y="1604" type="line"/>
    </contour>
  </outline>
  <guideline angle="0" x="0" y="1221"/>
  <guideline angle="90" x="-542" y="0"/>
  <guideline angle="90" x="-317" y="0"/>
  <guideline angle="90" x="-299" y="0"/>
</glyph>
<glyph name="matraAu.dv" format="2">
  <advance width="634"/>
  <unicode hex="094C"/>
  <outline>
    <contour>
      <point x="335" y="0" type="line"/>
      <point x="299" y="0" type="line"/>
      <point x="299" y="1209" type="line"/>
      <point x="335" y="1209" type="line"/>
    </contour>
    <contour>
      <point x="677" y="1200" type="line"/>
      <point x="-36" y="1200" type="line"/>
      <point x="-43" y="1230" type="line"/>
      <point x="670" y="1230" type="line"/>
    </contour>
    <contour>
      <point x="-583" y="1604" type="line"/>
      <point x="282" y="1255" type="line"/>
      <point x="284" y="1258" type="line"/>
      <point x="156" y="1396"/>
      <point x="66" y="1508"/>
      <point x="-46" y="1645" type="curve" smooth="yes"/>
      <point x="-270" y="1919" type="line"/>
      <point x="-270" y="1926" type="line"/>
      <point x="-230" y="1926" type="line"/>
      <point x="337" y="1228" type="line"/>
      <point x="337" y="1221" type="line"/>
      <point x="300" y="1221" type="line"/>
      <point x="300" y="1228" type="line"/>
      <point x="102" y="1294"/>
      <point x="-65" y="1359"/>
      <point x="-246" y="1432" type="curve" smooth="yes"/>
      <point x="-642" y="1591" type="line"/>
      <point x="-642" y="1604" type="line"/>
    </contour>
  </outline>
</glyph>
<glyph name="Halant.dv" format="2">
  <unicode hex="094D"/>
  <anchor x="-322" y="9" name="_bottom2"/>
  <outline>
    <contour>
      <point x="-346" y="-146" type="line"/>
      <point x="-303" y="-146" type="line"/>
      <point x="148" y="-591" type="line"/>
      <point x="148" y="-595" type="line"/>
      <point x="106" y="-595" type="line"/>
      <point x="-346" y="-151" type="line"/>
    </contour>
  </outline>
  <guideline angle="90" x="-322" y="0"/>
  <guideline angle="0" x="0" y="9"/>
</glyph>
<glyph name="uni0957" format="2">
  <unicode hex="0957"/>
  <anchor x="-317" y="30" name="_bottom5"/>
  <outline>
    <contour>
      <point x="-317" y="-358" type="curve" smooth="yes"/>
      <point x="-508.785" y="-358"/>
      <point x="-667.818" y="-322.603"/>
      <point x="-794" y="-251.585" type="curve"/>
      <point x="-798" y="-209" type="line"/>
      <point x="-672" y="-285.579"/>
      <point x="-500" y="-322"/>
      <point x="-317" y="-322" type="curve" smooth="yes"/>
      <point x="-134" y="-322"/>
      <point x="38" y="-285.579"/>
      <point x="164" y="-209" type="curve"/>
      <point x="160" y="-251.585" type="line"/>
      <point x="38.8176" y="-321.603"/>
      <point x="-125.215" y="-358"/>
    </contour>
    <contour>
      <point x="-317" y="-704" type="curve" smooth="yes"/>
      <point x="-508.785" y="-704"/>
      <point x="-667.818" y="-668.603"/>
      <point x="-794" y="-597.585" type="curve"/>
      <point x="-798" y="-555" type="line"/>
      <point x="-672" y="-631.579"/>
      <point x="-500" y="-668"/>
      <point x="-317" y="-668" type="curve" smooth="yes"/>
      <point x="-134" y="-668"/>
      <point x="38" y="-631.579"/>
      <point x="164" y="-555" type="curve"/>
      <point x="160" y="-597.585" type="line"/>
      <point x="38.8176" y="-667.603"/>
      <point x="-125.215" y="-704"/>
    </contour>
  </outline>
  <guideline angle="90" x="-317" y="0"/>
  <guideline angle="0" x="0" y="9"/>
</glyph>
<glyph name="GaNukta.dv" format="2">
  <advance width="1534"/>
  <unicode hex="095A"/>
  <anchor x="1217" y="9" name="bottom"/>
  <anchor x="1212" y="9" name="bottom2"/>
  <anchor x="1235" y="9" name="bottom3"/>
  <anchor x="1217" y="30" name="bottom5"/>
  <anchor x="1217" y="1221" name="top"/>
  <outline>
    <contour>
      <point x="1486" y="1200" type="line"/>
      <point x="-36" y="1200" type="line"/>
      <point x="-43" y="1230" type="line"/>
      <point x="1479" y="1230" type="line"/>
    </contour>
    <contour>
      <point x="364" y="1205" type="curve"/>
      <point x="421.135" y="1205" type="line"/>
      <point x="559.388" y="1122.17"/>
      <point x="657" y="995.628"/>
      <point x="657" y="811.977" type="curve" smooth="yes"/>
      <point x="657" y="807.284" type="line" smooth="yes"/>
      <point x="657" y="567.758"/>
      <point x="503.507" y="440"/>
      <point x="244.772" y="440" type="curve" smooth="yes"/>
      <point x="182.406" y="440"/>
      <point x="136.462" y="445.312"/>
      <point x="91" y="457" type="curve"/>
      <point x="86" y="494" type="line"/>
      <point x="134.136" y="480.81"/>
      <point x="181.717" y="475"/>
      <point x="242.315" y="475" type="curve" smooth="yes"/>
      <point x="474.607" y="475"/>
      <point x="619" y="587.455"/>
      <point x="619" y="809.399" type="curve" smooth="yes"/>
      <point x="619" y="814.079" type="line" smooth="yes"/>
      <point x="619" y="991.452"/>
      <point x="522.13" y="1114.84"/>
    </contour>
    <contour>
      <point x="1235" y="1209" type="line"/>
      <point x="1235" y="0" type="line"/>
      <point x="1199" y="0" type="line"/>
      <point x="1199" y="1209" type="line"/>
    </contour>
    <contour>
      <point x="1025" y="1200" type="line"/>
      <point x="1018" y="1230" type="line"/>
      <point x="1570" y="1230" type="line"/>
      <point x="1577" y="1200" type="line"/>
    </contour>
    <contour>
      <point x="339" y="0" type="curve" smooth="yes"/>
      <point x="294" y="0"/>
      <point x="273" y="26"/>
      <point x="273" y="56" type="curve"/>
      <point x="273" y="56.6629"/>
      <point x="273" y="58.4258"/>
      <point x="273" y="59" type="curve"/>
      <point x="273" y="93"/>
      <point x="294" y="117"/>
      <point x="339" y="117" type="curve" smooth="yes"/>
      <point x="384" y="117"/>
      <point x="405" y="93"/>
      <point x="405" y="59" type="curve"/>
      <point x="405" y="58.3371"/>
      <point x="405" y="56.5742"/>
      <point x="405" y="56" type="curve"/>
      <point x="405" y="25"/>
      <point x="384" y="0"/>
    </contour>
  </outline>
  <guideline angle="90" x="1217" y="0"/>
  <guideline angle="90" x="1235" y="0"/>
  <guideline angle="0" x="0" y="9"/>
  <guideline angle="0" x="0" y="1221"/>
  <guideline angle="90" x="1212" y="0"/>
  <guideline angle="0" x="0" y="30"/>
</glyph>
<glyph name="matraLru.dv" format="2">
  <unicode hex="0962"/>
  <outline>
    <contour>
      <point x="-94" y="-201" type="line"/>
      <point x="-94" y="-205" type="line" smooth="yes"/>
      <point x="-94" y="-308"/>
      <point x="-140.287" y="-358.547"/>
      <point x="-247.421" y="-429.765" type="curve" smooth="yes"/>
      <point x="-337.098" y="-489.379"/>
      <point x="-394" y="-526"/>
      <point x="-394" y="-594" type="curve" smooth="yes"/>
      <point x="-394" y="-667"/>
      <point x="-333" y="-697"/>
      <point x="-252" y="-697" type="curve" smooth="yes"/>
      <point x="-191" y="-697"/>
      <point x="-133" y="-681"/>
      <point x="-89" y="-649" type="curve"/>
      <point x="-91" y="-685" type="line"/>
      <point x="-128" y="-712"/>
      <point x="-186" y="-728"/>
      <point x="-251" y="-728" type="curve" smooth="yes"/>
      <point x="-357" y="-728"/>
      <point x="-427" y="-677"/>
      <point x="-427" y="-594" type="curve" smooth="yes"/>
      <point x="-427" y="-517"/>
      <point x="-373.151" y="-474.858"/>
      <point x="-270.142" y="-406.212" type="curve" smooth="yes"/>
      <point x="-172.084" y="-340.865"/>
      <point x="-129" y="-300"/>
      <point x="-129" y="-205" type="curve"/>
      <point x="-129" y="-203" type="line"/>
    </contour>
    <contour>
      <point x="-577" y="-349" type="line"/>
      <point x="-579" y="-212" type="line" smooth="yes"/>
      <point x="-581" y="-80"/>
      <point x="-657" y="-18"/>
      <point x="-780" y="-18" type="curve" smooth="yes"/>
      <point x="-901" y="-18"/>
      <point x="-997" y="-96"/>
      <point x="-997" y="-232" type="curve" smooth="yes"/>
      <point x="-997" y="-236" type="line" smooth="yes"/>
      <point x="-997" y="-350"/>
      <point x="-936" y="-443"/>
      <point x="-805" y="-530" type="curve"/>
      <point x="-858" y="-530" type="line"/>
      <point x="-967" y="-453"/>
      <point x="-1032" y="-355"/>
      <point x="-1032" y="-236" type="curve" smooth="yes"/>
      <point x="-1032" y="-231" type="line" smooth="yes"/>
      <point x="-1032" y="-83"/>
      <point x="-929" y="14"/>
      <point x="-781" y="14" type="curve" smooth="yes"/>
      <point x="-647" y="14"/>
      <point x="-576" y="-51"/>
      <point x="-562" y="-151" type="curve"/>
      <point x="-559" y="-151" type="line"/>
      <point x="-544" y="-52"/>
      <point x="-461" y="12"/>
      <point x="-327" y="12" type="curve" smooth="yes"/>
      <point x="-182" y="12"/>
      <point x="-94" y="-72"/>
      <point x="-94" y="-199" type="curve" smooth="yes"/>
      <point x="-94" y="-203" type="line"/>
      <point x="-129" y="-205" type="line"/>
      <point x="-129" y="-201" type="line" smooth="yes"/>
      <point x="-129" y="-91"/>
      <point x="-200" y="-20"/>
      <point x="-328" y="-20" type="curve" smooth="yes"/>
      <point x="-452" y="-20"/>
      <point x="-540" y="-78"/>
      <point x="-543" y="-212" type="curve" smooth="yes"/>
      <point x="-546" y="-349" type="line"/>
    </contour>
  </outline>
</glyph>
<glyph name="Chaar.dv" format="2">
  <advance width="1469"/>
  <unicode hex="096A"/>
  <outline>
    <contour>
      <point x="246" y="315" type="line" smooth="yes"/>
      <point x="246" y="501"/>
      <point x="397" y="609"/>
      <point x="691" y="644" type="curve"/>
      <point x="719" y="650" type="line"/>
      <point x="1121" y="713"/>
      <point x="1251" y="851"/>
      <point x="1251" y="1012" type="curve" smooth="yes"/>
      <point x="1251" y="1017" type="line" smooth="yes"/>
      <point x="1251" y="1083"/>
      <point x="1235" y="1139"/>
      <point x="1202" y="1209" type="curve"/>
      <point x="1242" y="1209" type="line"/>
      <point x="1274" y="1141"/>
      <point x="1289" y="1085"/>
      <point x="1289" y="1017" type="curve" smooth="yes"/>
      <point x="1289" y="1012" type="line" smooth="yes"/>
      <point x="1289" y="840"/>
      <point x="1150" y="696"/>
      <point x="805" y="635" type="curve"/>
      <point x="748" y="627" type="line"/>
      <point x="431" y="590"/>
      <point x="284" y="490"/>
      <point x="284" y="315" type="curve" smooth="yes"/>
      <point x="284" y="310" type="line" smooth="yes"/>
      <point x="284" y="142"/>
      <point x="430" y="34"/>
      <point x="739" y="34" type="curve" smooth="yes"/>
      <point x="1048" y="34"/>
      <point x="1194" y="142"/>
      <point x="1194" y="310" type="curve" smooth="yes"/>
      <point x="1194" y="315" type="line" smooth="yes"/>
      <point x="1194" y="488"/>
      <point x="1033" y="590"/>
      <point x="721" y="627" type="curve"/>
      <point x="680" y="631" type="line"/>
      <point x="319" y="690"/>
      <point x="189" y="845"/>
      <point x="189" y="1010" type="curve" smooth="yes"/>
      <point x="189" y="1015" type="line" smooth="yes"/>
      <point x="189" y="1081"/>
      <point x="201" y="1142"/>
      <point x="235" y="1209" type="curve"/>
      <point x="275" y="1209" type="line"/>
      <point x="241" y="1141"/>
      <point x="227" y="1083"/>
      <point x="227" y="1015" type="curve" smooth="yes"/>
      <point x="227" y="1010" type="line" smooth="yes"/>
      <point x="227" y="858"/>
      <point x="347" y="707"/>
      <point x="749" y="650" type="curve"/>
      <point x="792" y="643" type="line"/>
      <point x="1061" y="612"/>
      <point x="1232" y="498"/>
      <point x="1232" y="313" type="curve" smooth="yes"/>
      <point x="1232" y="308" type="line" smooth="yes"/>
      <point x="1232" y="127"/>
      <point x="1079" y="0"/>
      <point x="739" y="0" type="curve" smooth="yes"/>
      <point x="400" y="0"/>
      <point x="246" y="127"/>
      <point x="246" y="310" type="curve" smooth="yes"/>
    </contour>
  </outline>
  <guideline angle="0" x="0" y="712"/>
</glyph>
<glyph name="Saha.dv" format="2">
  <advance width="1372"/>
  <unicode hex="096C"/>
  <outline>
    <contour>
      <point x="700" y="5" type="curve" smooth="yes"/>
      <point x="376" y="5"/>
      <point x="182" y="131"/>
      <point x="182" y="349" type="curve" smooth="yes"/>
      <point x="182" y="356" type="line" smooth="yes"/>
      <point x="182" y="560"/>
      <point x="340" y="658"/>
      <point x="638" y="667" type="curve"/>
      <point x="638" y="671" type="line"/>
      <point x="343" y="683"/>
      <point x="207" y="774"/>
      <point x="207" y="942" type="curve" smooth="yes"/>
      <point x="207" y="949" type="line" smooth="yes"/>
      <point x="207" y="1120"/>
      <point x="362" y="1242"/>
      <point x="698" y="1242" type="curve" smooth="yes"/>
      <point x="892" y="1242"/>
      <point x="1037" y="1210"/>
      <point x="1165" y="1152" type="curve"/>
      <point x="1170" y="1111" type="line"/>
      <point x="1031" y="1177"/>
      <point x="882" y="1208"/>
      <point x="702" y="1208" type="curve" smooth="yes"/>
      <point x="394" y="1208"/>
      <point x="245" y="1105"/>
      <point x="245" y="948" type="curve" smooth="yes"/>
      <point x="245" y="942" type="line" smooth="yes"/>
      <point x="245" y="771"/>
      <point x="406" y="692"/>
      <point x="758" y="687" type="curve" smooth="yes"/>
      <point x="995" y="684" type="line"/>
      <point x="995" y="651" type="line"/>
      <point x="758" y="649" type="line" smooth="yes"/>
      <point x="400" y="646"/>
      <point x="220" y="566"/>
      <point x="220" y="354" type="curve" smooth="yes"/>
      <point x="220" y="349" type="line" smooth="yes"/>
      <point x="220" y="148"/>
      <point x="409" y="39"/>
      <point x="696" y="39" type="curve" smooth="yes"/>
      <point x="873" y="39"/>
      <point x="1032" y="77"/>
      <point x="1136" y="150" type="curve"/>
      <point x="1141" y="112" type="line"/>
      <point x="1032" y="43"/>
      <point x="886" y="5"/>
    </contour>
    <contour>
      <point x="1167.68" y="391.6" type="line"/>
      <point x="1167.68" y="138.84" type="line"/>
      <point x="1247.78" y="-243.86" type="line"/>
      <point x="1212" y="-244" type="line"/>
      <point x="1135.64" y="124.6" type="line"/>
      <point x="1132.08" y="126.38" type="line"/>
      <point x="1132.08" y="391.6" type="line"/>
    </contour>
  </outline>
  <guideline angle="0" x="0" y="1249"/>
</glyph>
<glyph name="uni0971" format="2">
  <advance width="574"/>
  <unicode hex="0971"/>
  <outline>
    <contour>
      <point x="288" y="1148" type="curve" smooth="yes"/>
      <point x="242" y="1148"/>
      <point x="219" y="1175"/>
      <point x="219" y="1209" type="curve" smooth="yes"/>
      <point x="219" y="1212" type="line" smooth="yes"/>
      <point x="219" y="1246"/>
      <point x="242" y="1273"/>
      <point x="288" y="1273" type="curve" smooth="yes"/>
      <point x="334" y="1273"/>
      <point x="357" y="1247"/>
      <point x="357" y="1213" type="curve" smooth="yes"/>
      <point x="357" y="1210" type="line" smooth="yes"/>
      <point x="357" y="1176"/>
      <point x="334" y="1148"/>
    </contour>
  </outline>
</glyph>
<glyph name="uni0976" format="2">
  <advance width="1970"/>
  <unicode hex="0976"/>
  <anchor x="1653" y="1221" name="top"/>
  <outline>
    <contour>
      <point x="2013" y="1200" type="line"/>
      <point x="1317" y="1200" type="line"/>
      <point x="1310" y="1230" type="line"/>
      <point x="2006" y="1230" type="line"/>
    </contour>
    <contour>
      <point x="1635" y="0" type="line"/>
      <point x="1635" y="1210" type="line"/>
      <point x="1671" y="1210" type="line"/>
      <point x="1671" y="0" type="line"/>
    </contour>
    <contour>
      <point x="87" y="201" type="line"/>
      <point x="236" y="100"/>
      <point x="410" y="52"/>
      <point x="612" y="52" type="curve" smooth="yes"/>
      <point x="884" y="52"/>
      <point x="1076" y="153"/>
      <point x="1076" y="342" type="curve" smooth="yes"/>
      <point x="1076" y="349" type="line" smooth="yes"/>
      <point x="1076" y="540"/>
      <point x="906" y="633"/>
      <point x="593" y="638" type="curve" smooth="yes"/>
      <point x="345" y="642" type="line"/>
      <point x="345" y="673" type="line"/>
      <point x="584" y="675" type="line" smooth="yes"/>
      <point x="904" y="678"/>
      <point x="1053" y="765"/>
      <point x="1053" y="934" type="curve" smooth="yes"/>
      <point x="1053" y="938" type="line" smooth="yes"/>
      <point x="1053" y="1096"/>
      <point x="924" y="1214"/>
      <point x="630" y="1214" type="curve" smooth="yes"/>
      <point x="449" y="1214"/>
      <point x="304" y="1176"/>
      <point x="153" y="1096" type="curve"/>
      <point x="158" y="1137" type="line"/>
      <point x="298" y="1209"/>
      <point x="443" y="1248"/>
      <point x="630" y="1248" type="curve" smooth="yes"/>
      <point x="945" y="1248"/>
      <point x="1091" y="1118"/>
      <point x="1091" y="940" type="curve" smooth="yes"/>
      <point x="1091" y="933" type="line" smooth="yes"/>
      <point x="1091" y="762"/>
      <point x="945" y="669"/>
      <point x="723" y="658" type="curve"/>
      <point x="723" y="650" type="line"/>
      <point x="975" y="632"/>
      <point x="1114" y="525"/>
      <point x="1114" y="348" type="curve" smooth="yes"/>
      <point x="1114" y="340" type="line" smooth="yes"/>
      <point x="1114" y="134"/>
      <point x="917" y="18"/>
      <point x="613" y="18" type="curve" smooth="yes"/>
      <point x="401" y="18"/>
      <point x="226" y="68"/>
      <point x="93" y="157" type="curve"/>
    </contour>
    <contour>
      <point x="719" y="665" type="line"/>
      <point x="749" y="665" type="line"/>
      <point x="749" y="661" type="line"/>
      <point x="894" y="665"/>
      <point x="1011" y="665"/>
      <point x="1151" y="665" type="curve" smooth="yes"/>
      <point x="1655" y="665" type="line"/>
      <point x="1655" y="633" type="line"/>
      <point x="1151" y="633" type="line" smooth="yes"/>
      <point x="1018" y="633"/>
      <point x="912" y="634"/>
      <point x="794" y="642" type="curve"/>
      <point x="794" y="638" type="line"/>
      <point x="719" y="644" type="line"/>
    </contour>
    <contour>
      <point x="941" y="-382" type="curve" smooth="yes"/>
      <point x="749.215" y="-382"/>
      <point x="590.182" y="-346.603"/>
      <point x="464" y="-275.585" type="curve"/>
      <point x="460" y="-233" type="line"/>
      <point x="586" y="-309.579"/>
      <point x="758" y="-346"/>
      <point x="941" y="-346" type="curve" smooth="yes"/>
      <point x="1124" y="-346"/>
      <point x="1296" y="-309.579"/>
      <point x="1422" y="-233" type="curve"/>
      <point x="1418" y="-275.585" type="line"/>
      <point x="1296.82" y="-345.603"/>
      <point x="1132.78" y="-382"/>
    </contour>
  </outline>
  <guideline angle="90" x="947" y="0"/>
  <guideline angle="90" x="1653" y="0"/>
  <guideline angle="90" x="947" y="0"/>
  <guideline angle="90" x="941" y="0"/>
  <guideline angle="0" x="0" y="471"/>
  <guideline angle="0" x="0" y="9"/>
</glyph>
<glyph name="uni0978" format="2">
  <advance width="1450"/>
  <unicode hex="0978"/>
  <anchor x="1069" y="9" name="bottom"/>
  <anchor x="1014" y="9" name="bottom2"/>
  <anchor x="1259" y="9" name="bottom3"/>
  <anchor x="747" y="30" name="bottom5"/>
  <anchor x="1090" y="1221" name="top"/>
  <outline>
    <contour>
      <point x="1501" y="1200" type="line"/>
      <point x="-32" y="1200" type="line"/>
      <point x="-39" y="1230" type="line"/>
      <point x="1494" y="1230" type="line"/>
    </contour>
    <contour>
      <point x="339" y="1210" type="line"/>
      <point x="339" y="626" type="line"/>
      <point x="303" y="626" type="line"/>
      <point x="303" y="1210" type="line"/>
    </contour>
    <contour>
      <point x="294" y="269" type="line"/>
      <point x="273" y="413"/>
      <point x="260" y="495"/>
      <point x="239" y="642" type="curve"/>
      <point x="303" y="671" type="line"/>
      <point x="339" y="671" type="line"/>
      <point x="339" y="269" type="line"/>
    </contour>
    <contour>
      <point x="323" y="680" type="line"/>
      <point x="444" y="718"/>
      <point x="606" y="744"/>
      <point x="757" y="744" type="curve" smooth="yes"/>
      <point x="1121" y="744"/>
      <point x="1262" y="601.614"/>
      <point x="1262" y="389.882" type="curve" smooth="yes"/>
      <point x="1262" y="227.52"/>
      <point x="1179" y="107"/>
      <point x="1061" y="0" type="curve"/>
      <point x="1013" y="0" type="line"/>
      <point x="1012.8" y="3.99673" type="line"/>
      <point x="1140.73" y="117.031"/>
      <point x="1224" y="230.564"/>
      <point x="1224" y="389.456" type="curve" smooth="yes"/>
      <point x="1224" y="583.313"/>
      <point x="1094" y="710"/>
      <point x="757" y="710" type="curve" smooth="yes"/>
      <point x="613" y="710"/>
      <point x="449" y="685"/>
      <point x="332" y="647" type="curve"/>
    </contour>
  </outline>
</glyph>
<glyph name="uni097D" format="2">
  <advance width="1321"/>
  <unicode hex="097D"/>
  <outline>
    <contour>
      <point x="420" y="498" type="line"/>
      <point x="584" y="498" type="line" smooth="yes"/>
      <point x="1011" y="498"/>
      <point x="1186" y="619"/>
      <point x="1186" y="847" type="curve" smooth="yes"/>
      <point x="1186" y="854" type="line" smooth="yes"/>
      <point x="1186" y="1072"/>
      <point x="1018" y="1210"/>
      <point x="701" y="1210" type="curve" smooth="yes"/>
      <point x="484" y="1210"/>
      <point x="329" y="1157"/>
      <point x="183" y="1070" type="curve"/>
      <point x="187" y="1113" type="line"/>
      <point x="331" y="1193"/>
      <point x="479" y="1244"/>
      <point x="700" y="1244" type="curve" smooth="yes"/>
      <point x="1048" y="1244"/>
      <point x="1223" y="1084"/>
      <point x="1223" y="854" type="curve" smooth="yes"/>
      <point x="1223" y="846" type="line" smooth="yes"/>
      <point x="1223" y="600"/>
      <point x="1041" y="465"/>
      <point x="587" y="465" type="curve" smooth="yes"/>
      <point x="429" y="465" type="line"/>
    </contour>
    <contour>
      <point x="456" y="486" type="line"/>
      <point x="456" y="0" type="line"/>
      <point x="420" y="0" type="line"/>
      <point x="420" y="498" type="line"/>
    </contour>
  </outline>
  <guideline angle="0" x="0" y="712"/>
</glyph>
<glyph name="uni097F" format="2">
  <advance width="1613"/>
  <unicode hex="097F"/>
  <anchor x="1296" y="-319" name="bottom"/>
  <anchor x="1291" y="-134" name="bottom2"/>
  <anchor x="1314" y="9" name="bottom3"/>
  <anchor x="1296" y="30" name="bottom5"/>
  <anchor x="1296" y="1221" name="top"/>
  <outline>
    <contour>
      <point x="1278" y="-101" type="line"/>
      <point x="1278" y="25" type="line"/>
      <point x="1314" y="25" type="line"/>
      <point x="1314" y="-134" type="line"/>
      <point x="218" y="-134" type="line"/>
      <point x="217" y="-101" type="line"/>
    </contour>
    <contour>
      <point x="1314" y="1209" type="line"/>
      <point x="1314" y="0" type="line"/>
      <point x="1278" y="0" type="line"/>
      <point x="1278" y="1209" type="line"/>
    </contour>
    <contour>
      <point x="1104" y="1200" type="line"/>
      <point x="1097" y="1230" type="line"/>
      <point x="1649" y="1230" type="line"/>
      <point x="1656" y="1200" type="line"/>
    </contour>
    <contour>
      <point x="-21" y="1200" type="line"/>
      <point x="-28" y="1230" type="line"/>
      <point x="1548" y="1230" type="line"/>
      <point x="1555" y="1200" type="line"/>
    </contour>
    <contour>
      <point x="359" y="847" type="line"/>
      <point x="395" y="862" type="line"/>
      <point x="1141" y="306" type="line"/>
      <point x="1112" y="287" type="line"/>
    </contour>
    <contour>
      <point x="173" y="563" type="curve" smooth="yes"/>
      <point x="173" y="570" type="line" smooth="yes"/>
      <point x="173" y="806"/>
      <point x="363" y="938"/>
      <point x="716" y="938" type="curve" smooth="yes"/>
      <point x="863" y="938"/>
      <point x="975" y="920"/>
      <point x="1072" y="888" type="curve"/>
      <point x="1077" y="851" type="line"/>
      <point x="974" y="886"/>
      <point x="860" y="904"/>
      <point x="724" y="904" type="curve" smooth="yes"/>
      <point x="385" y="904"/>
      <point x="211" y="786"/>
      <point x="211" y="570" type="curve" smooth="yes"/>
      <point x="211" y="564" type="line" smooth="yes"/>
      <point x="211" y="343"/>
      <point x="408" y="216"/>
      <point x="724" y="216" type="curve" smooth="yes"/>
      <point x="1058" y="216"/>
      <point x="1224" y="337"/>
      <point x="1282" y="525" type="curve"/>
      <point x="1285" y="472" type="line"/>
      <point x="1283" y="472" type="line"/>
      <point x="1240" y="319"/>
      <point x="1076" y="182"/>
      <point x="726" y="182" type="curve" smooth="yes"/>
      <point x="384" y="182"/>
      <point x="173" y="321"/>
    </contour>
  </outline>
  <guideline angle="0" x="0" y="-134"/>
  <guideline angle="90" x="1296" y="0"/>
  <guideline angle="90" x="1314" y="0"/>
  <guideline angle="0" x="0" y="9"/>
  <guideline angle="0" x="0" y="1221"/>
  <guideline angle="90" x="1291" y="0"/>
  <guideline angle="0" x="0" y="30"/>
</glyph>
<glyph name="quotedblright" format="2">
  <advance width="735"/>
  <unicode hex="201D"/>
  <outline>
    <contour>
      <point x="553" y="1324" type="line"/>
      <point x="558" y="1286"/>
      <point x="562" y="1247"/>
      <point x="562" y="1202" type="curve" smooth="yes"/>
      <point x="562" y="1057"/>
      <point x="530" y="943"/>
      <point x="435" y="829" type="curve"/>
      <point x="459" y="807" type="line"/>
      <point x="564" y="927"/>
      <point x="599" y="1051"/>
      <point x="599" y="1204" type="curve" smooth="yes"/>
      <point x="599" y="1256"/>
      <point x="594" y="1300"/>
      <point x="590" y="1324" type="curve"/>
    </contour>
    <contour>
      <point x="202" y="1324" type="line"/>
      <point x="207" y="1286"/>
      <point x="211" y="1247"/>
      <point x="211" y="1202" type="curve" smooth="yes"/>
      <point x="211" y="1057"/>
      <point x="179" y="943"/>
      <point x="84" y="829" type="curve"/>
      <point x="108" y="807" type="line"/>
      <point x="213" y="927"/>
      <point x="248" y="1051"/>
      <point x="248" y="1204" type="curve" smooth="yes"/>
      <point x="248" y="1256"/>
      <point x="243" y="1300"/>
      <point x="239" y="1324" type="curve"/>
    </contour>
  </outline>
</glyph>
<glyph name="quotedblbase" format="2">
  <advance width="729"/>
  <unicode hex="201E"/>
  <outline>
    <contour>
      <point x="522" y="240" type="line"/>
      <point x="528" y="206"/>
      <point x="531" y="171"/>
      <point x="531" y="132" type="curve" smooth="yes"/>
      <point x="531" y="-27"/>
      <point x="496" y="-146"/>
      <point x="394" y="-272" type="curve"/>
      <point x="417" y="-294" type="line"/>
      <point x="531" y="-162"/>
      <point x="569" y="-32"/>
      <point x="569" y="134" type="curve" smooth="yes"/>
      <point x="569" y="180"/>
      <point x="563" y="219"/>
      <point x="560" y="240" type="curve"/>
    </contour>
    <contour>
      <point x="172" y="240" type="line"/>
      <point x="178" y="206"/>
      <point x="181" y="171"/>
      <point x="181" y="132" type="curve" smooth="yes"/>
      <point x="181" y="-27"/>
      <point x="146" y="-146"/>
      <point x="44" y="-272" type="curve"/>
      <point x="67" y="-294" type="line"/>
      <point x="181" y="-162"/>
      <point x="219" y="-32"/>
      <point x="219" y="134" type="curve" smooth="yes"/>
      <point x="219" y="180"/>
      <point x="213" y="219"/>
      <point x="210" y="240" type="curve"/>
    </contour>
  </outline>
</glyph>
<glyph name="ellipsis" format="2">
  <advance width="1250"/>
  <unicode hex="2026"/>
  <outline>
    <contour>
      <point x="1051" y="-14" type="curve" smooth="yes"/>
      <point x="1089" y="-14"/>
      <point x="1110" y="4"/>
      <point x="1110" y="39" type="curve" smooth="yes"/>
      <point x="1110" y="43" type="line" smooth="yes"/>
      <point x="1110" y="77"/>
      <point x="1089" y="94"/>
      <point x="1051" y="94" type="curve" smooth="yes"/>
      <point x="1016" y="94"/>
      <point x="994" y="77"/>
      <point x="994" y="43" type="curve" smooth="yes"/>
      <point x="994" y="39" type="line" smooth="yes"/>
      <point x="994" y="4"/>
      <point x="1016" y="-14"/>
    </contour>
    <contour>
      <point x="624" y="-14" type="curve" smooth="yes"/>
      <point x="662" y="-14"/>
      <point x="683" y="4"/>
      <point x="683" y="39" type="curve" smooth="yes"/>
      <point x="683" y="43" type="line" smooth="yes"/>
      <point x="683" y="77"/>
      <point x="662" y="94"/>
      <point x="624" y="94" type="curve" smooth="yes"/>
      <point x="589" y="94"/>
      <point x="567" y="77"/>
      <point x="567" y="43" type="curve" smooth="yes"/>
      <point x="567" y="39" type="line" smooth="yes"/>
      <point x="567" y="4"/>
      <point x="589" y="-14"/>
    </contour>
    <contour>
      <point x="197" y="-14" type="curve" smooth="yes"/>
      <point x="235" y="-14"/>
      <point x="256" y="4"/>
      <point x="256" y="39" type="curve" smooth="yes"/>
      <point x="256" y="43" type="line" smooth="yes"/>
      <point x="256" y="77"/>
      <point x="235" y="94"/>
      <point x="197" y="94" type="curve" smooth="yes"/>
      <point x="162" y="94"/>
      <point x="140" y="77"/>
      <point x="140" y="43" type="curve" smooth="yes"/>
      <point x="140" y="39" type="line" smooth="yes"/>
      <point x="140" y="4"/>
      <point x="162" y="-14"/>
    </contour>
  </outline>
</glyph>
<glyph name="oneinferior" format="2">
  <advance width="531"/>
  <unicode hex="2081"/>
  <outline>
    <contour>
      <point x="386" y="-194" type="line"/>
      <point x="386" y="478" type="line"/>
      <point x="334" y="478" type="line"/>
      <point x="58" y="333" type="line"/>
      <point x="56" y="296" type="line"/>
      <point x="344" y="446" type="line"/>
      <point x="351" y="446" type="line"/>
      <point x="351" y="-194" type="line"/>
    </contour>
  </outline>
</glyph>
<glyph name="fourinferior" format="2">
  <advance width="855"/>
  <unicode hex="2084"/>
  <outline>
    <contour>
      <point x="671" y="-194" type="line"/>
      <point x="671" y="478" type="line"/>
      <point x="589" y="478" type="line"/>
      <point x="48" y="2" type="line"/>
      <point x="48" y="-45" type="line"/>
      <point x="837" y="-45" type="line"/>
      <point x="837" y="-13" type="line"/>
      <point x="70" y="-13" type="line"/>
      <point x="88" y="-33" type="line"/>
      <point x="88" y="-7" type="line"/>
      <point x="607" y="449" type="line"/>
      <point x="637" y="449" type="line"/>
      <point x="636" y="312" type="line"/>
      <point x="636" y="-194" type="line"/>
    </contour>
  </outline>
</glyph>
<glyph name="fiveinferior" format="2">
  <advance width="913"/>
  <unicode hex="2085"/>
  <outline>
    <contour>
      <point x="478" y="-204" type="curve" smooth="yes"/>
      <point x="708" y="-204"/>
      <point x="831" y="-124"/>
      <point x="831" y="17" type="curve" smooth="yes"/>
      <point x="831" y="25" type="line" smooth="yes"/>
      <point x="831" y="168"/>
      <point x="725" y="234"/>
      <point x="514" y="234" type="curve" smooth="yes"/>
      <point x="326" y="234"/>
      <point x="215" y="167"/>
      <point x="151" y="107" type="curve"/>
      <point x="159" y="103" type="line"/>
      <point x="160" y="254" type="line"/>
      <point x="160" y="445" type="line"/>
      <point x="793" y="445" type="line"/>
      <point x="793" y="478" type="line"/>
      <point x="126" y="478" type="line"/>
      <point x="126" y="86" type="line"/>
      <point x="156" y="80" type="line"/>
      <point x="237" y="152"/>
      <point x="350" y="201"/>
      <point x="510" y="201" type="curve" smooth="yes"/>
      <point x="701" y="201"/>
      <point x="794" y="146"/>
      <point x="794" y="24" type="curve" smooth="yes"/>
      <point x="794" y="18" type="line" smooth="yes"/>
      <point x="794" y="-104"/>
      <point x="683" y="-171"/>
      <point x="477" y="-171" type="curve" smooth="yes"/>
      <point x="318" y="-171"/>
      <point x="201" y="-139"/>
      <point x="120" y="-100" type="curve"/>
      <point x="125" y="-137" type="line"/>
      <point x="194" y="-167"/>
      <point x="305" y="-204"/>
    </contour>
  </outline>
</glyph>
<glyph name="sixinferior" format="2">
  <advance width="933"/>
  <unicode hex="2086"/>
  <outline>
    <contour>
      <point x="505" y="-204" type="curve" smooth="yes"/>
      <point x="720" y="-204"/>
      <point x="853" y="-125"/>
      <point x="853" y="15" type="curve" smooth="yes"/>
      <point x="853" y="24" type="line" smooth="yes"/>
      <point x="853" y="165"/>
      <point x="741" y="229"/>
      <point x="541" y="229" type="curve" smooth="yes"/>
      <point x="315" y="229"/>
      <point x="182" y="116"/>
      <point x="129" y="21" type="curve"/>
      <point x="121" y="21" type="line"/>
      <point x="136" y="-9" type="line"/>
      <point x="210" y="103"/>
      <point x="325" y="197"/>
      <point x="538" y="197" type="curve" smooth="yes"/>
      <point x="716" y="197"/>
      <point x="816" y="144"/>
      <point x="816" y="24" type="curve" smooth="yes"/>
      <point x="816" y="17" type="line" smooth="yes"/>
      <point x="816" y="-102"/>
      <point x="699" y="-171"/>
      <point x="505" y="-171" type="curve" smooth="yes"/>
      <point x="275" y="-171"/>
      <point x="125" y="-62"/>
      <point x="125" y="125" type="curve" smooth="yes"/>
      <point x="125" y="143" type="line" smooth="yes"/>
      <point x="125" y="344"/>
      <point x="249" y="456"/>
      <point x="495" y="456" type="curve" smooth="yes"/>
      <point x="644" y="456"/>
      <point x="723" y="423"/>
      <point x="800" y="384" type="curve"/>
      <point x="795" y="421" type="line"/>
      <point x="731" y="454"/>
      <point x="644" y="489"/>
      <point x="492" y="489" type="curve" smooth="yes"/>
      <point x="225" y="489"/>
      <point x="88" y="363"/>
      <point x="88" y="143" type="curve" smooth="yes"/>
      <point x="88" y="125" type="line" smooth="yes"/>
      <point x="88" y="-79"/>
      <point x="250" y="-204"/>
    </contour>
  </outline>
</glyph>
<glyph name="seveninferior" format="2">
  <advance width="814"/>
  <unicode hex="2087"/>
  <outline>
    <contour>
      <point x="284" y="-194" type="line"/>
      <point x="761" y="444" type="line"/>
      <point x="761" y="478" type="line"/>
      <point x="58" y="478" type="line"/>
      <point x="58" y="445" type="line"/>
      <point x="718" y="445" type="line"/>
      <point x="238" y="-194" type="line"/>
    </contour>
  </outline>
</glyph>
<glyph name="divisionslash" format="2">
  <advance width="1054"/>
  <unicode hex="2215"/>
  <outline>
    <contour>
      <point x="126" y="-221" type="line"/>
      <point x="972" y="1317" type="line"/>
      <point x="928" y="1317" type="line"/>
      <point x="82" y="-221" type="line"/>
    </contour>
  </outline>
</glyph>
<glyph name="uniA8FB" format="2">
  <advance width="1083"/>
  <unicode hex="A8FB"/>
  <outline>
    <contour>
      <point x="1126" y="1200" type="line"/>
      <point x="-36" y="1200" type="line"/>
      <point x="-43" y="1230" type="line"/>
      <point x="1119" y="1230" type="line"/>
    </contour>
  </outline>
</glyph>
<glyph name="fl" format="2">
  <advance width="1479"/>
  <unicode hex="FB02"/>
  <anchor x="1254" y="0" name="bottom"/>
  <anchor x="739" y="0" name="caret_1"/>
  <anchor x="1254" y="646" name="center"/>
  <anchor x="1254" y="1324" name="top"/>
  <anchor x="1519" y="1324" name="topright"/>
  <outline>
    <contour>
      <point x="626" y="1350" type="curve" smooth="yes"/>
      <point x="338" y="1350"/>
      <point x="235" y="1238"/>
      <point x="235" y="1065" type="curve" smooth="yes"/>
      <point x="235" y="1060" type="line" smooth="yes"/>
      <point x="235" y="1000"/>
      <point x="257" y="943"/>
      <point x="275" y="905" type="curve"/>
      <point x="275" y="898" type="line"/>
      <point x="307" y="903" type="line"/>
      <point x="291" y="941"/>
      <point x="273" y="996"/>
      <point x="273" y="1057" type="curve" smooth="yes"/>
      <point x="273" y="1062" type="line" smooth="yes"/>
      <point x="273" y="1221"/>
      <point x="364" y="1316"/>
      <point x="626" y="1316" type="curve" smooth="yes"/>
      <point x="752" y="1316"/>
      <point x="849" y="1291"/>
      <point x="965" y="1249" type="curve"/>
      <point x="960" y="1284" type="line"/>
      <point x="858" y="1324"/>
      <point x="766" y="1350"/>
    </contour>
    <contour>
      <point x="308" y="0" type="line"/>
      <point x="308" y="891" type="line"/>
      <point x="271" y="891" type="line"/>
      <point x="271" y="0" type="line"/>
    </contour>
    <contour>
      <point x="949" y="879" type="line"/>
      <point x="954" y="911" type="line"/>
      <point x="298" y="911" type="line"/>
      <point x="283" y="911" type="line"/>
      <point x="24" y="911" type="line"/>
      <point x="24" y="879" type="line"/>
    </contour>
    <contour>
      <point x="1273" y="0" type="line"/>
      <point x="1273" y="1324" type="line"/>
      <point x="1235" y="1324" type="line"/>
      <point x="1235" y="0" type="line"/>
    </contour>
  </outline>
</glyph>
<glyph name="BaBa.dv" format="2">
  <advance width="2657"/>
  <anchor x="2340" y="9" name="bottom"/>
  <anchor x="2335" y="9" name="bottom2"/>
  <anchor x="2358" y="9" name="bottom3"/>
  <anchor x="2340" y="30" name="bottom5"/>
  <anchor x="2340" y="1221" name="top"/>
  <outline>
    <contour>
      <point x="-21" y="1200" type="line"/>
      <point x="-28" y="1230" type="line"/>
      <point x="1348" y="1230" type="line"/>
      <point x="1355" y="1200" type="line"/>
    </contour>
    <contour>
      <point x="359" y="847" type="line"/>
      <point x="395" y="862" type="line"/>
      <point x="1141" y="306" type="line"/>
      <point x="1112" y="287" type="line"/>
    </contour>
    <contour>
      <point x="173" y="563" type="curve" smooth="yes"/>
      <point x="173" y="570" type="line" smooth="yes"/>
      <point x="173" y="806"/>
      <point x="363" y="938"/>
      <point x="716" y="938" type="curve" smooth="yes"/>
      <point x="863" y="938"/>
      <point x="975" y="920"/>
      <point x="1072" y="888" type="curve"/>
      <point x="1077" y="851" type="line"/>
      <point x="974" y="886"/>
      <point x="860" y="904"/>
      <point x="724" y="904" type="curve" smooth="yes"/>
      <point x="385" y="904"/>
      <point x="211" y="786"/>
      <point x="211" y="570" type="curve" smooth="yes"/>
      <point x="211" y="564" type="line" smooth="yes"/>
      <point x="211" y="343"/>
      <point x="408" y="216"/>
      <point x="722" y="216" type="curve" smooth="yes"/>
      <point x="1033" y="216"/>
      <point x="1175" y="310"/>
      <point x="1248" y="454" type="curve"/>
      <point x="1263" y="417" type="line"/>
      <point x="1259" y="417" type="line"/>
      <point x="1188" y="284"/>
      <point x="1048" y="182"/>
      <point x="726" y="182" type="curve" smooth="yes"/>
      <point x="384" y="182"/>
      <point x="173" y="321"/>
    </contour>
    <contour>
      <point x="2358" y="1209" type="line"/>
      <point x="2358" y="0" type="line"/>
      <point x="2322" y="0" type="line"/>
      <point x="2322" y="1209" type="line"/>
    </contour>
    <contour>
      <point x="2148" y="1200" type="line"/>
      <point x="2141" y="1230" type="line"/>
      <point x="2693" y="1230" type="line"/>
      <point x="2700" y="1200" type="line"/>
    </contour>
    <contour>
      <point x="1023" y="1200" type="line"/>
      <point x="1016" y="1230" type="line"/>
      <point x="2592" y="1230" type="line"/>
      <point x="2599" y="1200" type="line"/>
    </contour>
    <contour>
      <point x="1403" y="847" type="line"/>
      <point x="1439" y="862" type="line"/>
      <point x="2185" y="306" type="line"/>
      <point x="2156" y="287" type="line"/>
    </contour>
    <contour>
      <point x="1217" y="563" type="curve" smooth="yes"/>
      <point x="1217" y="570" type="line" smooth="yes"/>
      <point x="1217" y="806"/>
      <point x="1407" y="938"/>
      <point x="1760" y="938" type="curve" smooth="yes"/>
      <point x="1907" y="938"/>
      <point x="2019" y="920"/>
      <point x="2116" y="888" type="curve"/>
      <point x="2121" y="851" type="line"/>
      <point x="2018" y="886"/>
      <point x="1904" y="904"/>
      <point x="1768" y="904" type="curve" smooth="yes"/>
      <point x="1429" y="904"/>
      <point x="1255" y="786"/>
      <point x="1255" y="570" type="curve" smooth="yes"/>
      <point x="1255" y="564" type="line" smooth="yes"/>
      <point x="1255" y="343"/>
      <point x="1452" y="216"/>
      <point x="1768" y="216" type="curve" smooth="yes"/>
      <point x="2102" y="216"/>
      <point x="2268" y="337"/>
      <point x="2326" y="525" type="curve"/>
      <point x="2329" y="472" type="line"/>
      <point x="2327" y="472" type="line"/>
      <point x="2284" y="319"/>
      <point x="2120" y="182"/>
      <point x="1770" y="182" type="curve" smooth="yes"/>
      <point x="1428" y="182"/>
      <point x="1217" y="321"/>
    </contour>
  </outline>
  <guideline angle="90" x="2340" y="0"/>
  <guideline angle="90" x="2358" y="0"/>
  <guideline angle="0" x="0" y="9"/>
  <guideline angle="0" x="0" y="1221"/>
  <guideline angle="90" x="2335" y="0"/>
  <guideline angle="0" x="0" y="30"/>
</glyph>
<glyph name="BaDa.dv" format="2">
  <advance width="2483"/>
  <anchor x="2242" y="-114" name="bottom"/>
  <anchor x="1820" y="-114" name="bottom2"/>
  <anchor x="2276" y="-114" name="bottom3"/>
  <anchor x="1304" y="120" name="bottom4"/>
  <anchor x="1772" y="-103" name="bottom5"/>
  <anchor x="2179" y="1221" name="top"/>
  <outline>
    <contour>
      <point x="-21" y="1200" type="line"/>
      <point x="-28" y="1230" type="line"/>
      <point x="1253" y="1230" type="line"/>
      <point x="1260" y="1200" type="line"/>
    </contour>
    <contour>
      <point x="323" y="838" type="line"/>
      <point x="359" y="853" type="line"/>
      <point x="1056" y="306" type="line"/>
      <point x="1027" y="287" type="line"/>
    </contour>
    <contour>
      <point x="173" y="563" type="curve" smooth="yes"/>
      <point x="173" y="570" type="line" smooth="yes"/>
      <point x="173" y="806"/>
      <point x="345.036" y="938"/>
      <point x="664.66" y="938" type="curve" smooth="yes"/>
      <point x="797.761" y="938"/>
      <point x="899.171" y="920"/>
      <point x="987" y="888" type="curve"/>
      <point x="992" y="851" type="line"/>
      <point x="899.11" y="886"/>
      <point x="796.299" y="904"/>
      <point x="673.648" y="904" type="curve" smooth="yes"/>
      <point x="367.921" y="904"/>
      <point x="211" y="786"/>
      <point x="211" y="570" type="curve" smooth="yes"/>
      <point x="211" y="564" type="line" smooth="yes"/>
      <point x="211" y="343"/>
      <point x="392.715" y="216"/>
      <point x="684.198" y="216" type="curve" smooth="yes"/>
      <point x="979.005" y="216"/>
      <point x="1116.47" y="311.551"/>
      <point x="1180" y="469" type="curve"/>
      <point x="1184" y="412" type="line"/>
      <point x="1182" y="412" type="line"/>
      <point x="1123.72" y="287.012"/>
      <point x="992.413" y="182"/>
      <point x="684.659" y="182" type="curve" smooth="yes"/>
      <point x="368.226" y="182"/>
      <point x="173" y="321"/>
    </contour>
    <contour>
      <point x="1998" y="1200" type="line"/>
      <point x="1991" y="1230" type="line"/>
      <point x="2482" y="1230" type="line"/>
      <point x="2489" y="1200" type="line"/>
    </contour>
    <contour>
      <point x="2197" y="1209" type="line"/>
      <point x="2197" y="931" type="line"/>
      <point x="2162" y="931" type="line"/>
      <point x="2162" y="1209" type="line"/>
    </contour>
    <contour>
      <point x="952" y="1200" type="line"/>
      <point x="945" y="1230" type="line"/>
      <point x="2517" y="1230" type="line"/>
      <point x="2524" y="1200" type="line"/>
    </contour>
    <contour>
      <point x="2162" y="860" type="line"/>
      <point x="2162" y="1210" type="line"/>
      <point x="2197" y="1210" type="line"/>
      <point x="2197" y="842" type="line"/>
    </contour>
    <contour>
      <point x="2218" y="534" type="line"/>
      <point x="2218" y="242" type="line"/>
      <point x="2284" y="-133" type="line"/>
      <point x="2248" y="-133" type="line"/>
      <point x="2184" y="242" type="line"/>
      <point x="2182" y="246" type="line"/>
      <point x="2182" y="534" type="line"/>
    </contour>
    <contour>
      <point x="1721" y="137" type="curve" smooth="yes"/>
      <point x="1921" y="137"/>
      <point x="2074" y="182"/>
      <point x="2186" y="265" type="curve"/>
      <point x="2188" y="226" type="line"/>
      <point x="2079" y="151"/>
      <point x="1933" y="103"/>
      <point x="1723" y="103" type="curve" smooth="yes"/>
      <point x="1376" y="103"/>
      <point x="1161" y="253"/>
      <point x="1161" y="506" type="curve" smooth="yes"/>
      <point x="1161" y="516" type="line" smooth="yes"/>
      <point x="1161" y="764"/>
      <point x="1351" y="908"/>
      <point x="1752" y="908" type="curve" smooth="yes"/>
      <point x="1910" y="908"/>
      <point x="2043" y="899"/>
      <point x="2197" y="876" type="curve"/>
      <point x="2197" y="842" type="line"/>
      <point x="2040" y="867"/>
      <point x="1910" y="874"/>
      <point x="1755" y="874" type="curve" smooth="yes"/>
      <point x="1378" y="874"/>
      <point x="1199" y="740"/>
      <point x="1199" y="514" type="curve" smooth="yes"/>
      <point x="1199" y="507" type="line" smooth="yes"/>
      <point x="1199" y="277"/>
      <point x="1397" y="137"/>
    </contour>
  </outline>
  <guideline angle="0" x="0" y="-124"/>
  <guideline angle="0" x="0" y="-103"/>
  <guideline angle="90" x="2179" y="0"/>
</glyph>
<glyph name="BaDda.dv" format="2">
  <advance width="2490"/>
  <anchor x="1836" y="-9" name="bottom"/>
  <anchor x="1682" y="-9" name="bottom2"/>
  <anchor x="2310" y="-9" name="bottom3"/>
  <anchor x="1776" y="12" name="bottom5"/>
  <anchor x="2201" y="1221" name="top"/>
  <outline>
    <contour>
      <point x="-21" y="1200" type="line"/>
      <point x="-28" y="1230" type="line"/>
      <point x="1648" y="1230" type="line"/>
      <point x="1655" y="1200" type="line"/>
    </contour>
    <contour>
      <point x="1099" y="304" type="line"/>
      <point x="329" y="847" type="line"/>
      <point x="365" y="862" type="line"/>
      <point x="1128" y="323" type="line"/>
    </contour>
    <contour>
      <point x="716" y="192" type="curve" smooth="yes"/>
      <point x="378" y="192"/>
      <point x="173" y="326"/>
      <point x="173" y="566" type="curve" smooth="yes"/>
      <point x="173" y="573" type="line" smooth="yes"/>
      <point x="173" y="814"/>
      <point x="374" y="948"/>
      <point x="720" y="948" type="curve" smooth="yes"/>
      <point x="989" y="948"/>
      <point x="1149" y="876"/>
      <point x="1253" y="744" type="curve"/>
      <point x="1236" y="716" type="line"/>
      <point x="1135" y="844"/>
      <point x="974" y="914"/>
      <point x="719" y="914" type="curve" smooth="yes"/>
      <point x="397" y="914"/>
      <point x="211" y="795"/>
      <point x="211" y="572" type="curve" smooth="yes"/>
      <point x="211" y="566" type="line" smooth="yes"/>
      <point x="211" y="347"/>
      <point x="402" y="226"/>
      <point x="716" y="226" type="curve" smooth="yes"/>
      <point x="863" y="226"/>
      <point x="1018" y="259"/>
      <point x="1128" y="323" type="curve"/>
      <point x="1123" y="283" type="line"/>
      <point x="1019" y="223"/>
      <point x="865" y="192"/>
    </contour>
    <contour>
      <point x="2020" y="1200" type="line"/>
      <point x="2013" y="1230" type="line"/>
      <point x="2504" y="1230" type="line"/>
      <point x="2511" y="1200" type="line"/>
    </contour>
    <contour>
      <point x="2219" y="1209" type="line"/>
      <point x="2219" y="931" type="line"/>
      <point x="2184" y="931" type="line"/>
      <point x="2184" y="1209" type="line"/>
    </contour>
    <contour>
      <point x="2502" y="1200" type="line"/>
      <point x="1012" y="1200" type="line"/>
      <point x="1005" y="1230" type="line"/>
      <point x="2495" y="1230" type="line"/>
    </contour>
    <contour>
      <point x="2184" y="1218" type="line"/>
      <point x="2219" y="1218" type="line"/>
      <point x="2219" y="856" type="line"/>
      <point x="2217.5" y="857.032"/>
      <point x="2185.55" y="878.937"/>
      <point x="2184" y="880" type="curve"/>
    </contour>
    <contour>
      <point x="1223" y="153" type="line"/>
      <point x="1363.67" y="73"/>
      <point x="1550.56" y="16"/>
      <point x="1793.73" y="16" type="curve" smooth="yes"/>
      <point x="2123.3" y="16"/>
      <point x="2270" y="116"/>
      <point x="2270" y="258" type="curve" smooth="yes"/>
      <point x="2270" y="265" type="line" smooth="yes"/>
      <point x="2270" y="402"/>
      <point x="2164.67" y="500"/>
      <point x="1869.12" y="500" type="curve" smooth="yes"/>
      <point x="1669.32" y="500"/>
      <point x="1540.1" y="467.211"/>
      <point x="1407.9" y="422" type="curve"/>
      <point x="1294.59" y="469.584"/>
      <point x="1226" y="537.144"/>
      <point x="1226" y="651.102" type="curve" smooth="yes"/>
      <point x="1226" y="658.074" type="line" smooth="yes"/>
      <point x="1226" y="817.435"/>
      <point x="1364" y="926"/>
      <point x="1761" y="926" type="curve" smooth="yes"/>
      <point x="1930" y="926"/>
      <point x="2064" y="915"/>
      <point x="2219" y="888" type="curve"/>
      <point x="2219" y="855" type="line"/>
      <point x="2069" y="881"/>
      <point x="1939" y="892"/>
      <point x="1767" y="892" type="curve" smooth="yes"/>
      <point x="1391" y="892"/>
      <point x="1263" y="794.681"/>
      <point x="1263" y="654.662" type="curve" smooth="yes"/>
      <point x="1263" y="649.696" type="line" smooth="yes"/>
      <point x="1263" y="550.99"/>
      <point x="1325.09" y="495.563"/>
      <point x="1411.22" y="459" type="curve"/>
      <point x="1532.41" y="502.151"/>
      <point x="1670.61" y="534"/>
      <point x="1868.91" y="534" type="curve" smooth="yes"/>
      <point x="2190.92" y="534"/>
      <point x="2307" y="422"/>
      <point x="2307" y="265" type="curve" smooth="yes"/>
      <point x="2307" y="258" type="line" smooth="yes"/>
      <point x="2307" y="89"/>
      <point x="2148.27" y="-18"/>
      <point x="1790.62" y="-18" type="curve" smooth="yes"/>
      <point x="1545.49" y="-18"/>
      <point x="1355.61" y="39"/>
      <point x="1225.01" y="111" type="curve"/>
    </contour>
  </outline>
  <guideline angle="0" x="0" y="300"/>
  <guideline angle="0" x="0" y="-9"/>
  <guideline angle="90" x="1682" y="0"/>
  <guideline angle="0" x="0" y="12"/>
  <guideline angle="90" x="2201" y="0"/>
</glyph>
<glyph name="BaJaNukta.dv" format="2">
  <advance width="2927"/>
  <anchor x="2610" y="9" name="bottom"/>
  <anchor x="2605" y="9" name="bottom2"/>
  <anchor x="2628" y="9" name="bottom3"/>
  <anchor x="2610" y="30" name="bottom5"/>
  <anchor x="2610" y="1221" name="top"/>
  <outline>
    <contour>
      <point x="2628" y="1209" type="line"/>
      <point x="2628" y="0" type="line"/>
      <point x="2592" y="0" type="line"/>
      <point x="2592" y="1209" type="line"/>
    </contour>
    <contour>
      <point x="2418" y="1200" type="line"/>
      <point x="2411" y="1230" type="line"/>
      <point x="2963" y="1230" type="line"/>
      <point x="2970" y="1200" type="line"/>
    </contour>
    <contour>
      <point x="2870" y="1200" type="line"/>
      <point x="1072" y="1200" type="line"/>
      <point x="1065" y="1230" type="line"/>
      <point x="2863" y="1230" type="line"/>
    </contour>
    <contour>
      <point x="2610" y="826" type="line"/>
      <point x="2610" y="794" type="line"/>
      <point x="1996" y="794" type="line"/>
      <point x="1758" y="796" type="line"/>
      <point x="1384" y="796" type="line"/>
      <point x="1384" y="826" type="line"/>
    </contour>
    <contour>
      <point x="1791" y="817" type="line"/>
      <point x="1791" y="802" type="line"/>
      <point x="2020" y="782"/>
      <point x="2163" y="668"/>
      <point x="2163" y="472" type="curve" smooth="yes"/>
      <point x="2163" y="465" type="line" smooth="yes"/>
      <point x="2163" y="258"/>
      <point x="2010" y="114"/>
      <point x="1708" y="114" type="curve" smooth="yes"/>
      <point x="1459" y="114"/>
      <point x="1313" y="196"/>
      <point x="1202" y="303" type="curve"/>
      <point x="1210" y="340" type="line"/>
      <point x="1333" y="226"/>
      <point x="1468" y="148"/>
      <point x="1706" y="148" type="curve" smooth="yes"/>
      <point x="1984" y="148"/>
      <point x="2125" y="276"/>
      <point x="2125" y="463" type="curve" smooth="yes"/>
      <point x="2125" y="466" type="line" smooth="yes"/>
      <point x="2125" y="664"/>
      <point x="2000" y="791"/>
      <point x="1597" y="794" type="curve" smooth="yes"/>
      <point x="1384" y="796" type="line"/>
      <point x="1384" y="817" type="line"/>
    </contour>
    <contour>
      <point x="-21" y="1200" type="line"/>
      <point x="-28" y="1230" type="line"/>
      <point x="1348" y="1230" type="line"/>
      <point x="1355" y="1200" type="line"/>
    </contour>
    <contour>
      <point x="359" y="801" type="line"/>
      <point x="395" y="816" type="line"/>
      <point x="1141" y="260" type="line"/>
      <point x="1112" y="241" type="line"/>
    </contour>
    <contour>
      <point x="173" y="517" type="curve" smooth="yes"/>
      <point x="173" y="524" type="line" smooth="yes"/>
      <point x="173" y="760"/>
      <point x="363" y="892"/>
      <point x="716" y="892" type="curve" smooth="yes"/>
      <point x="863" y="892"/>
      <point x="975" y="874"/>
      <point x="1072" y="842" type="curve"/>
      <point x="1077" y="805" type="line"/>
      <point x="973" y="840"/>
      <point x="858" y="858"/>
      <point x="721" y="858" type="curve" smooth="yes"/>
      <point x="385" y="858"/>
      <point x="211" y="740"/>
      <point x="211" y="524" type="curve" smooth="yes"/>
      <point x="211" y="518" type="line" smooth="yes"/>
      <point x="211" y="297"/>
      <point x="408" y="170"/>
      <point x="724" y="170" type="curve" smooth="yes"/>
      <point x="968" y="170"/>
      <point x="1122" y="232"/>
      <point x="1210" y="340" type="curve"/>
      <point x="1223" y="301" type="line"/>
      <point x="1217" y="300" type="line"/>
      <point x="1131" y="204"/>
      <point x="980" y="136"/>
      <point x="725" y="136" type="curve" smooth="yes"/>
      <point x="384" y="136"/>
      <point x="173" y="275"/>
    </contour>
    <contour>
      <point x="1698" y="-226" type="curve" smooth="yes"/>
      <point x="1653" y="-226"/>
      <point x="1632" y="-200"/>
      <point x="1632" y="-170" type="curve"/>
      <point x="1632" y="-169.337"/>
      <point x="1632" y="-167.574"/>
      <point x="1632" y="-167" type="curve"/>
      <point x="1632" y="-133"/>
      <point x="1653" y="-109"/>
      <point x="1698" y="-109" type="curve" smooth="yes"/>
      <point x="1743" y="-109"/>
      <point x="1764" y="-133"/>
      <point x="1764" y="-167" type="curve"/>
      <point x="1764" y="-167.663"/>
      <point x="1764" y="-169.426"/>
      <point x="1764" y="-170" type="curve"/>
      <point x="1764" y="-201"/>
      <point x="1743" y="-226"/>
    </contour>
  </outline>
  <guideline angle="90" x="665" y="0"/>
  <guideline angle="90" x="2610" y="0"/>
  <guideline angle="90" x="2628" y="0"/>
  <guideline angle="0" x="0" y="9"/>
  <guideline angle="0" x="0" y="1221"/>
  <guideline angle="90" x="2605" y="0"/>
  <guideline angle="0" x="0" y="30"/>
  <guideline angle="0" x="0" y="33"/>
  <guideline angle="90" x="1698" y="0"/>
</glyph>
<glyph name="BaNa.dv" format="2">
  <advance width="1607"/>
  <anchor x="1290" y="-62" name="bottom"/>
  <anchor x="1285" y="-62" name="bottom2"/>
  <anchor x="1308" y="-62" name="bottom3"/>
  <anchor x="1290" y="1221" name="top"/>
  <outline>
    <contour>
      <point x="-27" y="1200" type="line"/>
      <point x="-34" y="1230" type="line"/>
      <point x="1643" y="1230" type="line"/>
      <point x="1650" y="1200" type="line"/>
    </contour>
    <contour>
      <point x="1308" y="1210" type="line"/>
      <point x="1308" y="767" type="line"/>
      <point x="1272" y="767" type="line"/>
      <point x="1272" y="1210" type="line"/>
    </contour>
    <contour>
      <point x="356" y="847" type="line"/>
      <point x="389" y="862" type="line"/>
      <point x="1126" y="313" type="line"/>
      <point x="1098" y="294" type="line"/>
    </contour>
    <contour>
      <point x="920" y="249" type="line"/>
      <point x="927" y="242" type="line"/>
      <point x="854" y="219"/>
      <point x="778" y="203"/>
      <point x="699" y="203" type="curve" smooth="yes"/>
      <point x="386" y="203"/>
      <point x="167" y="329"/>
      <point x="167" y="564" type="curve" smooth="yes"/>
      <point x="167" y="573" type="line" smooth="yes"/>
      <point x="167" y="810"/>
      <point x="357" y="938"/>
      <point x="710" y="938" type="curve" smooth="yes"/>
      <point x="858" y="938"/>
      <point x="970" y="920"/>
      <point x="1066" y="888" type="curve"/>
      <point x="1071" y="851" type="line"/>
      <point x="968" y="886"/>
      <point x="854" y="904"/>
      <point x="719" y="904" type="curve" smooth="yes"/>
      <point x="379" y="904"/>
      <point x="205" y="792"/>
      <point x="205" y="573" type="curve" smooth="yes"/>
      <point x="205" y="566" type="line" smooth="yes"/>
      <point x="205" y="349"/>
      <point x="406" y="235"/>
      <point x="701" y="235" type="curve" smooth="yes"/>
      <point x="852" y="235"/>
      <point x="961" y="267"/>
      <point x="1105" y="315" type="curve" smooth="yes"/>
      <point x="1281" y="374" type="line"/>
      <point x="1281" y="339" type="line"/>
      <point x="279" y="12" type="line"/>
      <point x="300" y="32" type="line"/>
      <point x="391" y="-246" type="line"/>
      <point x="352" y="-260" type="line"/>
      <point x="302" y="-162"/>
      <point x="276" y="-105"/>
      <point x="226" y="-7" type="curve"/>
      <point x="260" y="45" type="line"/>
    </contour>
    <contour>
      <point x="1308" y="888" type="line"/>
      <point x="1308" y="-71" type="line"/>
      <point x="1272" y="-71" type="line"/>
      <point x="1272" y="888" type="line"/>
    </contour>
  </outline>
  <guideline angle="90" x="1290" y="0"/>
  <guideline angle="90" x="1308" y="0"/>
  <guideline angle="90" x="1290" y="0"/>
</glyph>
<glyph name="BaSaTta.dv" format="2">
  <advance width="3572"/>
  <anchor x="2975" y="2" name="bottom"/>
  <anchor x="2802" y="2" name="bottom2"/>
  <anchor x="3425" y="2" name="bottom3"/>
  <anchor x="2909" y="-80" name="bottom4"/>
  <anchor x="2899" y="23" name="bottom5"/>
  <anchor x="3311" y="1221" name="top"/>
  <outline>
    <contour>
      <point x="3130" y="1200" type="line"/>
      <point x="3123" y="1230" type="line"/>
      <point x="3614" y="1230" type="line"/>
      <point x="3621" y="1200" type="line"/>
    </contour>
    <contour>
      <point x="3329" y="1209" type="line"/>
      <point x="3329" y="931" type="line"/>
      <point x="3294" y="931" type="line"/>
      <point x="3294" y="1209" type="line"/>
    </contour>
    <contour>
      <point x="2091" y="1200" type="line"/>
      <point x="2084" y="1230" type="line"/>
      <point x="3622" y="1230" type="line"/>
      <point x="3629" y="1200" type="line"/>
    </contour>
    <contour>
      <point x="3294" y="805" type="line"/>
      <point x="3294" y="1212" type="line"/>
      <point x="3329" y="1212" type="line"/>
      <point x="3329" y="787" type="line"/>
    </contour>
    <contour>
      <point x="3400" y="124" type="line"/>
      <point x="3287" y="45"/>
      <point x="3118" y="-7"/>
      <point x="2894" y="-7" type="curve" smooth="yes"/>
      <point x="2503" y="-7"/>
      <point x="2296" y="151"/>
      <point x="2296" y="427" type="curve" smooth="yes"/>
      <point x="2296" y="438" type="line" smooth="yes"/>
      <point x="2296" y="714"/>
      <point x="2492" y="853"/>
      <point x="2880" y="853" type="curve" smooth="yes"/>
      <point x="3038" y="853"/>
      <point x="3165" y="844"/>
      <point x="3329" y="821" type="curve"/>
      <point x="3329" y="787" type="line"/>
      <point x="3161" y="812"/>
      <point x="3038" y="819"/>
      <point x="2880" y="819" type="curve" smooth="yes"/>
      <point x="2513" y="819"/>
      <point x="2334" y="694"/>
      <point x="2334" y="436" type="curve" smooth="yes"/>
      <point x="2334" y="429" type="line" smooth="yes"/>
      <point x="2334" y="169"/>
      <point x="2526" y="27"/>
      <point x="2894" y="27" type="curve" smooth="yes"/>
      <point x="3111" y="27"/>
      <point x="3280" y="80"/>
      <point x="3403" y="167" type="curve"/>
    </contour>
    <contour>
      <point x="-21" y="1200" type="line"/>
      <point x="-28" y="1230" type="line"/>
      <point x="2253" y="1230" type="line"/>
      <point x="2260" y="1200" type="line"/>
    </contour>
    <contour>
      <point x="358" y="875" type="line"/>
      <point x="394" y="890" type="line"/>
      <point x="1091" y="360" type="line"/>
      <point x="1061" y="341" type="line"/>
    </contour>
    <contour>
      <point x="1668" y="616" type="line"/>
      <point x="2342" y="616" type="line"/>
      <point x="2342" y="584" type="line"/>
      <point x="1680" y="584" type="line"/>
    </contour>
    <contour>
      <point x="1891" y="0" type="line"/>
      <point x="1847" y="0" type="line"/>
      <point x="1306" y="550" type="line"/>
      <point x="1209" y="555" type="line"/>
      <point x="1209" y="586" type="line"/>
      <point x="1335" y="577" type="line"/>
      <point x="1335" y="562" type="line"/>
      <point x="1410" y="490"/>
      <point x="1467" y="433"/>
      <point x="1543" y="356" type="curve" smooth="yes"/>
      <point x="1891" y="4" type="line"/>
    </contour>
    <contour>
      <point x="1694" y="1209" type="line"/>
      <point x="1797" y="1139"/>
      <point x="1864" y="1036"/>
      <point x="1864" y="897" type="curve" smooth="yes"/>
      <point x="1864" y="892" type="line" smooth="yes"/>
      <point x="1864" y="675"/>
      <point x="1708" y="554"/>
      <point x="1302" y="554" type="curve" smooth="yes"/>
      <point x="1246" y="554" type="line"/>
      <point x="1209" y="586" type="line"/>
      <point x="1295" y="586" type="line" smooth="yes"/>
      <point x="1683" y="586"/>
      <point x="1829" y="692"/>
      <point x="1829" y="894" type="curve" smooth="yes"/>
      <point x="1829" y="899" type="line" smooth="yes"/>
      <point x="1829" y="1034"/>
      <point x="1765" y="1129"/>
      <point x="1646" y="1209" type="curve"/>
    </contour>
    <contour>
      <point x="173" y="605.959" type="curve" smooth="yes"/>
      <point x="173" y="612.864" type="line" smooth="yes"/>
      <point x="173" y="839.739"/>
      <point x="349" y="966"/>
      <point x="675" y="966" type="curve" smooth="yes"/>
      <point x="824" y="966"/>
      <point x="937.104" y="947.373"/>
      <point x="1033" y="916" type="curve"/>
      <point x="1040" y="879" type="line"/>
      <point x="935.554" y="914"/>
      <point x="825.027" y="932"/>
      <point x="677" y="932" type="curve" smooth="yes"/>
      <point x="375" y="932"/>
      <point x="211" y="819.707"/>
      <point x="211" y="612.85" type="curve" smooth="yes"/>
      <point x="211" y="606.94" type="line" smooth="yes"/>
      <point x="211" y="395.159"/>
      <point x="405" y="274"/>
      <point x="706" y="274" type="curve" smooth="yes"/>
      <point x="998" y="274"/>
      <point x="1154.41" y="401.901"/>
      <point x="1209" y="586" type="curve"/>
      <point x="1238" y="568" type="line"/>
      <point x="1179.32" y="377.799"/>
      <point x="1019" y="240"/>
      <point x="706" y="240" type="curve" smooth="yes"/>
      <point x="381" y="240"/>
      <point x="173" y="373.166"/>
    </contour>
  </outline>
  <guideline angle="0" x="0" y="2"/>
  <guideline angle="0" x="0" y="23"/>
  <guideline angle="90" x="-862" y="0"/>
  <guideline angle="90" x="3311" y="0"/>
</glyph>
<glyph name="BaSha.MAR.dv" format="2">
  <advance width="2972"/>
  <anchor x="2655" y="9" name="bottom"/>
  <anchor x="2650" y="9" name="bottom2"/>
  <anchor x="2673" y="9" name="bottom3"/>
  <anchor x="2655" y="30" name="bottom5"/>
  <anchor x="2655" y="1221" name="top"/>
  <outline>
    <contour>
      <point x="-21" y="1200" type="line"/>
      <point x="-28" y="1230" type="line"/>
      <point x="1349" y="1230" type="line"/>
      <point x="1356" y="1200" type="line"/>
    </contour>
    <contour>
      <point x="361" y="847" type="line"/>
      <point x="396" y="862" type="line"/>
      <point x="1142" y="306" type="line"/>
      <point x="1115" y="286" type="line"/>
    </contour>
    <contour>
      <point x="173" y="563" type="curve" smooth="yes"/>
      <point x="173" y="570" type="line" smooth="yes"/>
      <point x="173" y="802"/>
      <point x="365" y="938"/>
      <point x="675" y="938" type="curve" smooth="yes"/>
      <point x="808.96" y="938"/>
      <point x="914.771" y="921"/>
      <point x="1009.03" y="888" type="curve"/>
      <point x="1017" y="851" type="line"/>
      <point x="912.251" y="886"/>
      <point x="805.433" y="904"/>
      <point x="678" y="904" type="curve" smooth="yes"/>
      <point x="390" y="904"/>
      <point x="211" y="781"/>
      <point x="211" y="570" type="curve" smooth="yes"/>
      <point x="211" y="564" type="line" smooth="yes"/>
      <point x="211" y="343"/>
      <point x="406" y="216"/>
      <point x="720" y="216" type="curve" smooth="yes"/>
      <point x="933" y="216"/>
      <point x="1082" y="264"/>
      <point x="1176" y="349" type="curve"/>
      <point x="1190" y="317" type="line"/>
      <point x="1186" y="317" type="line"/>
      <point x="1095" y="237"/>
      <point x="948" y="182"/>
      <point x="722" y="182" type="curve" smooth="yes"/>
      <point x="382" y="182"/>
      <point x="173" y="321"/>
    </contour>
    <contour>
      <point x="2673" y="1209" type="line"/>
      <point x="2673" y="0" type="line"/>
      <point x="2637" y="0" type="line"/>
      <point x="2637" y="1209" type="line"/>
    </contour>
    <contour>
      <point x="2463" y="1200" type="line"/>
      <point x="2456" y="1230" type="line"/>
      <point x="3008" y="1230" type="line"/>
      <point x="3015" y="1200" type="line"/>
    </contour>
    <contour>
      <point x="969" y="1230" type="line"/>
      <point x="2907" y="1230" type="line"/>
      <point x="2914" y="1200" type="line"/>
      <point x="976" y="1200" type="line"/>
    </contour>
    <contour>
      <point x="1697" y="933" type="line"/>
      <point x="1697" y="1214" type="line"/>
      <point x="1732" y="1214" type="line"/>
      <point x="1732" y="933" type="line"/>
    </contour>
    <contour>
      <point x="2053" y="-100" type="line"/>
      <point x="1997" y="-100" type="line"/>
      <point x="1376" y="285" type="line"/>
      <point x="1176" y="313" type="line"/>
      <point x="1176" y="349" type="line"/>
      <point x="1405" y="310" type="line"/>
      <point x="1405" y="303" type="line"/>
      <point x="1540" y="225"/>
      <point x="1582" y="198"/>
      <point x="1724" y="110" type="curve" smooth="yes"/>
      <point x="2053" y="-93" type="line"/>
    </contour>
    <contour>
      <point x="1708" y="949" type="curve" smooth="yes"/>
      <point x="1996" y="949"/>
      <point x="2173" y="809"/>
      <point x="2173" y="615" type="curve" smooth="yes"/>
      <point x="2173" y="608" type="line" smooth="yes"/>
      <point x="2173" y="397"/>
      <point x="1987" y="277"/>
      <point x="1614" y="277" type="curve" smooth="yes"/>
      <point x="1471" y="277"/>
      <point x="1395" y="289"/>
      <point x="1288" y="308" type="curve"/>
      <point x="1176" y="349" type="line"/>
      <point x="1332" y="327"/>
      <point x="1438" y="311"/>
      <point x="1610" y="311" type="curve" smooth="yes"/>
      <point x="1961" y="311"/>
      <point x="2135" y="417"/>
      <point x="2135" y="609" type="curve" smooth="yes"/>
      <point x="2135" y="614" type="line" smooth="yes"/>
      <point x="2135" y="790"/>
      <point x="1973" y="915"/>
      <point x="1708" y="915" type="curve" smooth="yes"/>
      <point x="1514" y="915"/>
      <point x="1357" y="874"/>
      <point x="1202" y="780" type="curve"/>
      <point x="1208" y="825" type="line"/>
      <point x="1344" y="905"/>
      <point x="1498" y="949"/>
    </contour>
  </outline>
  <guideline angle="90" x="2655" y="0"/>
  <guideline angle="90" x="2673" y="0"/>
  <guideline angle="0" x="0" y="9"/>
  <guideline angle="0" x="0" y="1221"/>
  <guideline angle="90" x="2650" y="0"/>
  <guideline angle="0" x="0" y="30"/>
</glyph>
<glyph name="BaSha.dv" format="2">
  <advance width="3026"/>
  <anchor x="2709" y="9" name="bottom"/>
  <anchor x="2704" y="9" name="bottom2"/>
  <anchor x="2727" y="9" name="bottom3"/>
  <anchor x="2709" y="30" name="bottom5"/>
  <anchor x="2709" y="1221" name="top"/>
  <outline>
    <contour>
      <point x="-21" y="1200" type="line"/>
      <point x="-28" y="1230" type="line"/>
      <point x="1128" y="1230" type="line"/>
      <point x="1135" y="1200" type="line"/>
    </contour>
    <contour>
      <point x="359" y="847" type="line"/>
      <point x="395" y="862" type="line"/>
      <point x="1141" y="306" type="line"/>
      <point x="1112" y="287" type="line"/>
    </contour>
    <contour>
      <point x="1039" y="863" type="line"/>
      <point x="946" y="890"/>
      <point x="844" y="904"/>
      <point x="724" y="904" type="curve" smooth="yes"/>
      <point x="385" y="904"/>
      <point x="211" y="786"/>
      <point x="211" y="570" type="curve" smooth="yes"/>
      <point x="211" y="564" type="line" smooth="yes"/>
      <point x="211" y="343"/>
      <point x="408" y="216"/>
      <point x="724" y="216" type="curve" smooth="yes"/>
      <point x="1040" y="216"/>
      <point x="1192" y="317"/>
      <point x="1261" y="488" type="curve"/>
      <point x="1284" y="465" type="line"/>
      <point x="1212" y="293"/>
      <point x="1059" y="182"/>
      <point x="726" y="182" type="curve" smooth="yes"/>
      <point x="384" y="182"/>
      <point x="173" y="321"/>
      <point x="173" y="563" type="curve" smooth="yes"/>
      <point x="173" y="570" type="line" smooth="yes"/>
      <point x="173" y="806"/>
      <point x="363" y="938"/>
      <point x="716" y="938" type="curve" smooth="yes"/>
      <point x="844" y="938"/>
      <point x="946" y="924"/>
      <point x="1034" y="899" type="curve"/>
    </contour>
    <contour>
      <point x="2727" y="1209" type="line"/>
      <point x="2727" y="0" type="line"/>
      <point x="2691" y="0" type="line"/>
      <point x="2691" y="1209" type="line"/>
    </contour>
    <contour>
      <point x="2517" y="1200" type="line"/>
      <point x="2510" y="1230" type="line"/>
      <point x="3062" y="1230" type="line"/>
      <point x="3069" y="1200" type="line"/>
    </contour>
    <contour>
      <point x="2400" y="1230" type="line"/>
      <point x="3062" y="1230" type="line"/>
      <point x="3069" y="1200" type="line"/>
      <point x="2407" y="1200" type="line"/>
    </contour>
    <contour>
      <point x="2136" y="0" type="line"/>
      <point x="2083" y="0" type="line"/>
      <point x="1412" y="442" type="line"/>
      <point x="1261" y="455" type="line"/>
      <point x="1261" y="488" type="line"/>
      <point x="1441" y="466" type="line"/>
      <point x="1441" y="460" type="line"/>
      <point x="1541" y="397"/>
      <point x="1606" y="354"/>
      <point x="1722" y="278" type="curve" smooth="yes"/>
      <point x="2136" y="7" type="line"/>
    </contour>
    <contour>
      <point x="2229" y="879" type="curve" smooth="yes"/>
      <point x="2229" y="867" type="line" smooth="yes"/>
      <point x="2229" y="586"/>
      <point x="1994" y="440"/>
      <point x="1572" y="440" type="curve" smooth="yes"/>
      <point x="1492" y="440"/>
      <point x="1446" y="445"/>
      <point x="1360" y="457" type="curve"/>
      <point x="1261" y="488" type="line"/>
      <point x="1382" y="477"/>
      <point x="1455" y="473"/>
      <point x="1565" y="473" type="curve" smooth="yes"/>
      <point x="1967" y="473"/>
      <point x="2191" y="603"/>
      <point x="2191" y="869" type="curve" smooth="yes"/>
      <point x="2191" y="878" type="line" smooth="yes"/>
      <point x="2191" y="1081"/>
      <point x="2044" y="1223"/>
      <point x="1771" y="1223" type="curve" smooth="yes"/>
      <point x="1528" y="1223"/>
      <point x="1376" y="1112"/>
      <point x="1376" y="947" type="curve" smooth="yes"/>
      <point x="1376" y="944" type="line" smooth="yes"/>
      <point x="1376" y="882"/>
      <point x="1397" y="821"/>
      <point x="1457" y="756" type="curve"/>
      <point x="1414" y="756" type="line"/>
      <point x="1364" y="812"/>
      <point x="1339" y="879"/>
      <point x="1339" y="944" type="curve" smooth="yes"/>
      <point x="1339" y="948" type="line" smooth="yes"/>
      <point x="1339" y="1129"/>
      <point x="1504" y="1257"/>
      <point x="1771" y="1257" type="curve" smooth="yes"/>
      <point x="2063" y="1257"/>
      <point x="2229" y="1102"/>
    </contour>
  </outline>
  <guideline angle="90" x="747" y="0"/>
  <guideline angle="0" x="0" y="659"/>
  <guideline angle="90" x="2407" y="0"/>
  <guideline angle="90" x="2709" y="0"/>
  <guideline angle="90" x="2727" y="0"/>
  <guideline angle="0" x="0" y="9"/>
  <guideline angle="0" x="0" y="1221"/>
  <guideline angle="90" x="2704" y="0"/>
  <guideline angle="0" x="0" y="30"/>
</glyph>
<glyph name="BaTa.dv" format="2">
  <advance width="2626"/>
  <anchor x="2309" y="9" name="bottom"/>
  <anchor x="2304" y="9" name="bottom2"/>
  <anchor x="2327" y="9" name="bottom3"/>
  <anchor x="2309" y="30" name="bottom5"/>
  <anchor x="2309" y="1221" name="top"/>
  <outline>
    <contour>
      <point x="-21" y="1200" type="line"/>
      <point x="-28" y="1230" type="line"/>
      <point x="1348" y="1230" type="line"/>
      <point x="1355" y="1200" type="line"/>
    </contour>
    <contour>
      <point x="359" y="847" type="line"/>
      <point x="395" y="862" type="line"/>
      <point x="1141" y="306" type="line"/>
      <point x="1112" y="287" type="line"/>
    </contour>
    <contour>
      <point x="173" y="563" type="curve" smooth="yes"/>
      <point x="173" y="570" type="line" smooth="yes"/>
      <point x="173" y="806"/>
      <point x="363" y="938"/>
      <point x="716" y="938" type="curve" smooth="yes"/>
      <point x="863" y="938"/>
      <point x="975" y="920"/>
      <point x="1072" y="888" type="curve"/>
      <point x="1077" y="851" type="line"/>
      <point x="974" y="886"/>
      <point x="860" y="904"/>
      <point x="724" y="904" type="curve" smooth="yes"/>
      <point x="385" y="904"/>
      <point x="211" y="786"/>
      <point x="211" y="570" type="curve" smooth="yes"/>
      <point x="211" y="564" type="line" smooth="yes"/>
      <point x="211" y="343"/>
      <point x="408" y="216"/>
      <point x="724" y="216" type="curve" smooth="yes"/>
      <point x="1053" y="216"/>
      <point x="1213" y="331"/>
      <point x="1272" y="504" type="curve"/>
      <point x="1276" y="447" type="line"/>
      <point x="1274" y="447" type="line"/>
      <point x="1223" y="309"/>
      <point x="1070" y="182"/>
      <point x="726" y="182" type="curve" smooth="yes"/>
      <point x="384" y="182"/>
      <point x="173" y="321"/>
    </contour>
    <contour>
      <point x="2327" y="1209" type="line"/>
      <point x="2327" y="0" type="line"/>
      <point x="2291" y="0" type="line"/>
      <point x="2291" y="1209" type="line"/>
    </contour>
    <contour>
      <point x="2117" y="1200" type="line"/>
      <point x="2110" y="1230" type="line"/>
      <point x="2662" y="1230" type="line"/>
      <point x="2669" y="1200" type="line"/>
    </contour>
    <contour>
      <point x="1040" y="1200" type="line"/>
      <point x="1033" y="1230" type="line"/>
      <point x="2662" y="1230" type="line"/>
      <point x="2669" y="1200" type="line"/>
    </contour>
    <contour>
      <point x="1533" y="0" type="line"/>
      <point x="1355" y="151"/>
      <point x="1258" y="303"/>
      <point x="1258" y="488" type="curve" smooth="yes"/>
      <point x="1258" y="692"/>
      <point x="1392" y="826"/>
      <point x="1683" y="826" type="curve" smooth="yes"/>
      <point x="2310" y="826" type="line"/>
      <point x="2310" y="794" type="line"/>
      <point x="1687" y="794" type="line" smooth="yes"/>
      <point x="1422" y="794"/>
      <point x="1296" y="675"/>
      <point x="1296" y="488" type="curve" smooth="yes"/>
      <point x="1296" y="306"/>
      <point x="1390" y="166"/>
      <point x="1586" y="0" type="curve"/>
    </contour>
  </outline>
  <guideline angle="90" x="2309" y="0"/>
  <guideline angle="90" x="2327" y="0"/>
  <guideline angle="0" x="0" y="9"/>
  <guideline angle="0" x="0" y="1221"/>
  <guideline angle="90" x="2304" y="0"/>
  <guideline angle="0" x="0" y="30"/>
</glyph>
<glyph name="BaYa.dv" format="2">
  <advance width="2701"/>
  <anchor x="2384" y="9" name="bottom"/>
  <anchor x="2379" y="9" name="bottom2"/>
  <anchor x="2402" y="9" name="bottom3"/>
  <anchor x="2384" y="30" name="bottom5"/>
  <anchor x="2384" y="1221" name="top"/>
  <outline>
    <contour>
      <point x="2402" y="1209" type="line"/>
      <point x="2402" y="0" type="line"/>
      <point x="2366" y="0" type="line"/>
      <point x="2366" y="1209" type="line"/>
    </contour>
    <contour>
      <point x="2192" y="1200" type="line"/>
      <point x="2185" y="1230" type="line"/>
      <point x="2737" y="1230" type="line"/>
      <point x="2744" y="1200" type="line"/>
    </contour>
    <contour>
      <point x="999" y="1230" type="line"/>
      <point x="2736" y="1230" type="line"/>
      <point x="2743" y="1200" type="line"/>
      <point x="1006" y="1200" type="line"/>
    </contour>
    <contour>
      <point x="1622" y="1210" type="line"/>
      <point x="1707" y="1158"/>
      <point x="1764" y="1071"/>
      <point x="1764" y="965" type="curve" smooth="yes"/>
      <point x="1764" y="959" type="line" smooth="yes"/>
      <point x="1764" y="773"/>
      <point x="1621" y="698"/>
      <point x="1309" y="698" type="curve" smooth="yes"/>
      <point x="1223" y="698" type="line"/>
      <point x="1209" y="730" type="line"/>
      <point x="1300" y="730" type="line" smooth="yes"/>
      <point x="1584" y="730"/>
      <point x="1727" y="789"/>
      <point x="1727" y="958" type="curve" smooth="yes"/>
      <point x="1727" y="962" type="line" smooth="yes"/>
      <point x="1727" y="1072"/>
      <point x="1675" y="1146"/>
      <point x="1570" y="1210" type="curve"/>
    </contour>
    <contour>
      <point x="1204" y="667" type="line" smooth="yes"/>
      <point x="1204" y="684"/>
      <point x="1205" y="712"/>
      <point x="1209" y="730" type="curve"/>
      <point x="1240" y="721" type="line"/>
      <point x="1240" y="662" type="line" smooth="yes"/>
      <point x="1240" y="411"/>
      <point x="1459" y="251"/>
      <point x="1805" y="251" type="curve" smooth="yes"/>
      <point x="2126" y="251"/>
      <point x="2312" y="366"/>
      <point x="2370" y="562" type="curve"/>
      <point x="2373" y="507" type="line"/>
      <point x="2371" y="507" type="line"/>
      <point x="2321" y="342"/>
      <point x="2150" y="217"/>
      <point x="1805" y="217" type="curve" smooth="yes"/>
      <point x="1428" y="217"/>
      <point x="1204" y="388"/>
      <point x="1204" y="662" type="curve" smooth="yes"/>
    </contour>
    <contour>
      <point x="-21" y="1200" type="line"/>
      <point x="-28" y="1230" type="line"/>
      <point x="1348" y="1230" type="line"/>
      <point x="1355" y="1200" type="line"/>
    </contour>
    <contour>
      <point x="359" y="847" type="line"/>
      <point x="395" y="862" type="line"/>
      <point x="1141" y="306" type="line"/>
      <point x="1112" y="287" type="line"/>
    </contour>
    <contour>
      <point x="1077" y="851" type="line"/>
      <point x="974" y="886"/>
      <point x="860" y="904"/>
      <point x="724" y="904" type="curve" smooth="yes"/>
      <point x="385" y="904"/>
      <point x="211" y="786"/>
      <point x="211" y="570" type="curve" smooth="yes"/>
      <point x="211" y="564" type="line" smooth="yes"/>
      <point x="211" y="343"/>
      <point x="408" y="216"/>
      <point x="724" y="216" type="curve" smooth="yes"/>
      <point x="1038" y="216"/>
      <point x="1188" y="317"/>
      <point x="1265" y="471" type="curve"/>
      <point x="1284" y="447" type="line"/>
      <point x="1282" y="447" type="line"/>
      <point x="1207" y="293"/>
      <point x="1055" y="182"/>
      <point x="726" y="182" type="curve" smooth="yes"/>
      <point x="384" y="182"/>
      <point x="173" y="321"/>
      <point x="173" y="563" type="curve" smooth="yes"/>
      <point x="173" y="570" type="line" smooth="yes"/>
      <point x="173" y="806"/>
      <point x="363" y="938"/>
      <point x="716" y="938" type="curve" smooth="yes"/>
      <point x="863" y="938"/>
      <point x="975" y="920"/>
      <point x="1072" y="888" type="curve"/>
    </contour>
  </outline>
  <guideline angle="90" x="1142" y="0"/>
</glyph>
<glyph name="BhaVa.dv" format="2">
  <advance width="2457"/>
  <anchor x="2140" y="9" name="bottom"/>
  <anchor x="2135" y="9" name="bottom2"/>
  <anchor x="2158" y="9" name="bottom3"/>
  <anchor x="2140" y="30" name="bottom5"/>
  <anchor x="2140" y="1221" name="top"/>
  <outline>
    <contour>
      <point x="1138" y="1200" type="line"/>
      <point x="1130" y="1230" type="line"/>
      <point x="2393" y="1230" type="line"/>
      <point x="2400" y="1200" type="line"/>
    </contour>
    <contour>
      <point x="1061" y="564" type="curve" smooth="yes"/>
      <point x="1061" y="571" type="line" smooth="yes"/>
      <point x="1061" y="803"/>
      <point x="1241" y="931"/>
      <point x="1576" y="931" type="curve" smooth="yes"/>
      <point x="1712" y="931"/>
      <point x="1822" y="912"/>
      <point x="1915" y="878" type="curve"/>
      <point x="1921" y="841" type="line"/>
      <point x="1815" y="879"/>
      <point x="1710" y="897"/>
      <point x="1580" y="897" type="curve" smooth="yes"/>
      <point x="1265" y="897"/>
      <point x="1099" y="783"/>
      <point x="1099" y="570" type="curve" smooth="yes"/>
      <point x="1099" y="564" type="line" smooth="yes"/>
      <point x="1099" y="353"/>
      <point x="1276" y="232"/>
      <point x="1594" y="232" type="curve" smooth="yes"/>
      <point x="1914" y="232"/>
      <point x="2074" y="350"/>
      <point x="2126" y="528" type="curve"/>
      <point x="2129" y="475" type="line"/>
      <point x="2128" y="475" type="line"/>
      <point x="2087" y="330"/>
      <point x="1934" y="198"/>
      <point x="1594" y="198" type="curve" smooth="yes"/>
      <point x="1254" y="198"/>
      <point x="1061" y="329"/>
    </contour>
    <contour>
      <point x="924" y="1200" type="line"/>
      <point x="917" y="1230" type="line"/>
      <point x="1177" y="1230" type="line"/>
      <point x="1184" y="1200" type="line"/>
    </contour>
    <contour>
      <point x="333" y="568" type="line"/>
      <point x="333" y="600" type="line"/>
      <point x="1081" y="600" type="line"/>
      <point x="1081" y="568" type="line"/>
    </contour>
    <contour>
      <point x="307" y="185" type="line"/>
      <point x="285" y="333"/>
      <point x="273" y="418"/>
      <point x="251" y="566" type="curve"/>
      <point x="315" y="596" type="line"/>
      <point x="351" y="596" type="line"/>
      <point x="351" y="185" type="line"/>
    </contour>
    <contour>
      <point x="315" y="573" type="line"/>
      <point x="315" y="970" type="line" smooth="yes"/>
      <point x="315" y="1141"/>
      <point x="266" y="1200"/>
      <point x="109" y="1200" type="curve" smooth="yes"/>
      <point x="-32" y="1200" type="line"/>
      <point x="-39" y="1230" type="line"/>
      <point x="111" y="1230" type="line" smooth="yes"/>
      <point x="289" y="1230"/>
      <point x="351" y="1155"/>
      <point x="351" y="974" type="curve" smooth="yes"/>
      <point x="351" y="573" type="line"/>
    </contour>
    <contour>
      <point x="2158" y="1209" type="line"/>
      <point x="2158" y="0" type="line"/>
      <point x="2122" y="0" type="line"/>
      <point x="2122" y="1209" type="line"/>
    </contour>
    <contour>
      <point x="1948" y="1200" type="line"/>
      <point x="1941" y="1230" type="line"/>
      <point x="2493" y="1230" type="line"/>
      <point x="2500" y="1200" type="line"/>
    </contour>
  </outline>
  <guideline angle="90" x="2140" y="0"/>
  <guideline angle="90" x="2158" y="0"/>
  <guideline angle="0" x="0" y="9"/>
  <guideline angle="0" x="0" y="1221"/>
  <guideline angle="90" x="2135" y="0"/>
  <guideline angle="0" x="0" y="30"/>
</glyph>
<glyph name="BhaYa.dv" format="2">
  <advance width="2542"/>
  <anchor x="2225" y="9" name="bottom"/>
  <anchor x="2220" y="9" name="bottom2"/>
  <anchor x="2243" y="9" name="bottom3"/>
  <anchor x="2225" y="30" name="bottom5"/>
  <anchor x="2225" y="1221" name="top"/>
  <outline>
    <contour>
      <point x="2243" y="1209" type="line"/>
      <point x="2243" y="0" type="line"/>
      <point x="2207" y="0" type="line"/>
      <point x="2207" y="1209" type="line"/>
    </contour>
    <contour>
      <point x="2033" y="1200" type="line"/>
      <point x="2026" y="1230" type="line"/>
      <point x="2578" y="1230" type="line"/>
      <point x="2585" y="1200" type="line"/>
    </contour>
    <contour>
      <point x="335" y="568" type="line"/>
      <point x="335" y="600" type="line"/>
      <point x="1080" y="600" type="line"/>
      <point x="1080" y="568" type="line"/>
    </contour>
    <contour>
      <point x="308" y="185" type="line"/>
      <point x="287" y="333"/>
      <point x="275" y="418"/>
      <point x="253" y="566" type="curve"/>
      <point x="317" y="596" type="line"/>
      <point x="353" y="596" type="line"/>
      <point x="353" y="185" type="line"/>
    </contour>
    <contour>
      <point x="317" y="573" type="line"/>
      <point x="317" y="970" type="line" smooth="yes"/>
      <point x="317" y="1141"/>
      <point x="267" y="1200"/>
      <point x="111" y="1200" type="curve" smooth="yes"/>
      <point x="-32" y="1200" type="line"/>
      <point x="-39" y="1230" type="line"/>
      <point x="113" y="1230" type="line" smooth="yes"/>
      <point x="291" y="1230"/>
      <point x="353" y="1155"/>
      <point x="353" y="974" type="curve" smooth="yes"/>
      <point x="353" y="573" type="line"/>
    </contour>
    <contour>
      <point x="870" y="1230" type="line"/>
      <point x="2577" y="1230" type="line"/>
      <point x="2584" y="1200" type="line"/>
      <point x="877" y="1200" type="line"/>
    </contour>
    <contour>
      <point x="1463" y="1210" type="line"/>
      <point x="1548" y="1158"/>
      <point x="1605" y="1071"/>
      <point x="1605" y="965" type="curve" smooth="yes"/>
      <point x="1605" y="959" type="line" smooth="yes"/>
      <point x="1605" y="773"/>
      <point x="1462" y="698"/>
      <point x="1150" y="698" type="curve" smooth="yes"/>
      <point x="1064" y="698" type="line"/>
      <point x="1050" y="730" type="line"/>
      <point x="1141" y="730" type="line" smooth="yes"/>
      <point x="1425" y="730"/>
      <point x="1568" y="789"/>
      <point x="1568" y="958" type="curve" smooth="yes"/>
      <point x="1568" y="962" type="line" smooth="yes"/>
      <point x="1568" y="1072"/>
      <point x="1516" y="1146"/>
      <point x="1411" y="1210" type="curve"/>
    </contour>
    <contour>
      <point x="1045" y="667" type="line" smooth="yes"/>
      <point x="1045" y="684"/>
      <point x="1046" y="712"/>
      <point x="1050" y="730" type="curve"/>
      <point x="1081" y="721" type="line"/>
      <point x="1081" y="662" type="line" smooth="yes"/>
      <point x="1081" y="411"/>
      <point x="1300" y="251"/>
      <point x="1646" y="251" type="curve" smooth="yes"/>
      <point x="1967" y="251"/>
      <point x="2153" y="366"/>
      <point x="2211" y="562" type="curve"/>
      <point x="2214" y="507" type="line"/>
      <point x="2212" y="507" type="line"/>
      <point x="2162" y="342"/>
      <point x="1991" y="217"/>
      <point x="1646" y="217" type="curve" smooth="yes"/>
      <point x="1269" y="217"/>
      <point x="1045" y="388"/>
      <point x="1045" y="662" type="curve" smooth="yes"/>
    </contour>
  </outline>
  <guideline angle="90" x="2225" y="0"/>
  <guideline angle="90" x="2243" y="0"/>
  <guideline angle="0" x="0" y="9"/>
  <guideline angle="0" x="0" y="1221"/>
  <guideline angle="90" x="2220" y="0"/>
  <guideline angle="0" x="0" y="30"/>
</glyph>
<glyph name="Binduone.dv" format="2">
  <anchor x="-317" y="1221" name="_top"/>
  <outline>
    <contour>
      <point x="-219.5" y="1567.28" type="curve" smooth="yes"/>
      <point x="-259.893" y="1567.28"/>
      <point x="-277.845" y="1591.32"/>
      <point x="-277.845" y="1619.92" type="curve" smooth="yes"/>
      <point x="-277.845" y="1623.29" type="line" smooth="yes"/>
      <point x="-277.845" y="1653.05"/>
      <point x="-259.893" y="1677.3"/>
      <point x="-219.5" y="1677.3" type="curve" smooth="yes"/>
      <point x="-179.107" y="1677.3"/>
      <point x="-161.155" y="1653.05"/>
      <point x="-161.155" y="1623.29" type="curve" smooth="yes"/>
      <point x="-161.155" y="1619.92" type="line" smooth="yes"/>
      <point x="-161.155" y="1591.32"/>
      <point x="-179.107" y="1567.28"/>
    </contour>
  </outline>
</glyph>
